<svg overflow="visible" fill="none" xmlns="http://www.w3.org/2000/svg">
<path d="M0.385742 0.515869H414.386V154.605C414.386 154.605 394.941 97.0228 363.756 86.1661C307.08 66.4351 243.973 40.289 183.549 55.0524C150.78 63.0589 145.75 109.707 76.6302 118.483C25.7006 124.95 39.7037 232.372 14.7243 232.372C0.753875 232.372 0.385742 206.409 0.385742 206.409V0.515869Z" fill="#C4C4C4"/>
<path d="M0.385742 0.515869H414.386V154.605C414.386 154.605 394.941 97.0228 363.756 86.1661C307.08 66.4351 243.973 40.289 183.549 55.0524C150.78 63.0589 145.75 109.707 76.6302 118.483C25.7006 124.95 39.7037 232.372 14.7243 232.372C0.753875 232.372 0.385742 206.409 0.385742 206.409V0.515869Z" fill="url(#paint0_linear)"/>
<g filter="url(#filter0_f)">
<g filter="url(#filter1_d)">
<path opacity="0.75" d="M53.5825 88.0973C53.5825 96.0843 52.677 103.297 51.2233 108.497C50.4955 111.1 49.638 113.171 48.7073 114.579C47.7636 116.007 46.8266 116.637 45.9646 116.637C45.1027 116.637 44.1656 116.007 43.2219 114.579C42.2912 113.171 41.4337 111.1 40.7059 108.497C39.2522 103.297 38.3467 96.0843 38.3467 88.0973C38.3467 80.1104 39.2522 72.8978 40.7059 67.6978C41.4337 65.0942 42.2912 63.0236 43.2219 61.6154C44.1656 60.1875 45.1027 59.5576 45.9646 59.5576C46.8266 59.5576 47.7636 60.1875 48.7073 61.6154C49.638 63.0236 50.4955 65.0942 51.2233 67.6978C52.677 72.8978 53.5825 80.1104 53.5825 88.0973ZM45.9645 110.722C47.0774 110.722 48.0216 109.92 48.7891 108.759C49.5696 107.578 50.2532 105.902 50.8195 103.876C51.9542 99.8171 52.6496 94.2383 52.6496 88.0964C52.6496 81.9545 51.9542 76.3757 50.8195 72.3167C50.2532 70.2907 49.5696 68.6148 48.7891 67.4339C48.0216 66.2727 47.0774 65.4709 45.9645 65.4709C44.8516 65.4709 43.9073 66.2727 43.1398 67.4339C42.3593 68.6148 41.6758 70.2907 41.1094 72.3167C39.9747 76.3757 39.2794 81.9545 39.2794 88.0964C39.2794 94.2383 39.9747 99.8171 41.1094 103.876C41.6758 105.902 42.3593 107.578 43.1398 108.759C43.9073 109.92 44.8516 110.722 45.9645 110.722Z" fill="black" stroke="black"/>
<mask id="mask0" mask-type="alpha" maskUnits="userSpaceOnUse" x="37" y="59" width="18" height="59">
<path d="M53.5825 88.0973C53.5825 96.0843 52.677 103.297 51.2233 108.497C50.4955 111.1 49.638 113.171 48.7073 114.579C47.7636 116.007 46.8266 116.637 45.9646 116.637C45.1027 116.637 44.1656 116.007 43.2219 114.579C42.2912 113.171 41.4337 111.1 40.7059 108.497C39.2522 103.297 38.3467 96.0843 38.3467 88.0973C38.3467 80.1104 39.2522 72.8978 40.7059 67.6978C41.4337 65.0942 42.2912 63.0236 43.2219 61.6154C44.1656 60.1875 45.1027 59.5576 45.9646 59.5576C46.8266 59.5576 47.7636 60.1875 48.7073 61.6154C49.638 63.0236 50.4955 65.0942 51.2233 67.6978C52.677 72.8978 53.5825 80.1104 53.5825 88.0973ZM45.9645 110.722C47.0774 110.722 48.0216 109.92 48.7891 108.759C49.5696 107.578 50.2532 105.902 50.8195 103.876C51.9542 99.8171 52.6496 94.2383 52.6496 88.0964C52.6496 81.9545 51.9542 76.3757 50.8195 72.3167C50.2532 70.2907 49.5696 68.6148 48.7891 67.4339C48.0216 66.2727 47.0774 65.4709 45.9645 65.4709C44.8516 65.4709 43.9073 66.2727 43.1398 67.4339C42.3593 68.6148 41.6758 70.2907 41.1094 72.3167C39.9747 76.3757 39.2794 81.9545 39.2794 88.0964C39.2794 94.2383 39.9747 99.8171 41.1094 103.876C41.6758 105.902 42.3593 107.578 43.1398 108.759C43.9073 109.92 44.8516 110.722 45.9645 110.722Z" fill="#595959" stroke="#595959"/>
</mask>
<g mask="url(#mask0)">
<ellipse cx="49.9833" cy="108.005" rx="4.17956" ry="14.9512" fill="#5A85E3"/>
</g>
</g>
<path d="M27.5161 83.817V92.817H26.6176L25.3856 86.457V92.817H24.3203V83.817H25.2188L26.4508 85.177V83.817H27.5161Z" fill="white"/>
<path d="M30.78 83.877V92.817H29.7842V91.777C29.6916 92.1903 29.5835 92.5036 29.46 92.717C29.3365 92.917 29.2053 93.017 29.0663 93.017C28.7452 93.017 28.4874 92.597 28.2929 91.757C28.0983 90.9036 28.0011 89.6236 28.0011 87.917V83.877H29.0478V87.137C29.0478 87.8836 29.0756 88.417 29.1312 88.737C29.1867 89.057 29.2686 89.217 29.3766 89.217C29.4785 89.217 29.5634 89.0436 29.6314 88.697C29.6993 88.337 29.7333 87.777 29.7333 87.017V83.877H30.78Z" fill="white"/>
<path d="M32.606 93.017C32.3188 93.017 32.061 92.777 31.8325 92.297C31.6071 91.817 31.4295 91.1436 31.2999 90.277C31.1733 89.4103 31.11 88.4303 31.11 87.337C31.11 86.2436 31.1733 86.2703 31.2999 85.417C31.4295 84.5503 31.6071 83.877 31.8325 83.397C32.061 82.917 32.3188 82.677 32.606 82.677C32.9147 82.677 33.1787 82.9636 33.398 83.537C33.6172 84.1103 33.7685 83.9036 33.8518 84.917L33.0413 86.637C32.9425 85.677 32.7959 85.197 32.6013 85.197C32.4778 85.197 32.3744 85.3836 32.291 85.757C32.2107 86.1303 32.1706 86.657 32.1706 87.337C32.1706 88.0303 32.2107 88.5636 32.291 88.937C32.3744 89.3103 32.4778 89.497 32.6013 89.497C32.7959 89.497 32.9425 89.017 33.0413 88.057L33.8518 89.777C33.7685 90.7903 33.6172 91.5836 33.398 92.157C33.1787 92.7303 32.9147 93.017 32.606 93.017Z" fill="white"/>
<path d="M34.0938 78.977H35.1405V92.817H34.0938V78.977Z" fill="white"/>
<path d="M38.3 87.337C38.3 87.4036 38.2954 87.757 38.2861 88.397H36.5261C36.5632 88.8103 36.6249 89.1303 36.7114 89.357C36.7979 89.5703 36.9059 89.677 37.0356 89.677C37.1468 89.677 37.2394 89.617 37.3135 89.497C37.3907 89.377 37.4741 89.1703 37.5636 88.877L38.1101 91.257C37.8631 92.4303 37.4941 93.017 37.0032 93.017C36.6975 93.017 36.4289 92.777 36.1973 92.297C35.9657 91.8036 35.7866 91.1236 35.66 90.257C35.5334 89.3903 35.4701 88.417 35.4701 87.337C35.4701 86.2436 35.5319 85.2703 35.6554 84.417C35.782 83.5503 35.9534 82.877 36.1695 82.397C36.3887 81.917 36.6342 81.677 36.9059 81.677C37.1622 81.677 37.3953 81.897 37.6053 82.337C37.8183 82.777 37.9866 83.4236 38.1101 84.277C38.2367 85.1303 38.3 86.1503 38.3 87.337ZM36.9152 84.757C36.8071 84.757 36.7176 84.8836 36.6466 85.137C36.5755 85.3903 36.5292 85.7503 36.5076 86.217H37.3228C37.3012 85.7636 37.2548 85.4103 37.1838 85.157C37.1128 84.8903 37.0233 84.757 36.9152 84.757Z" fill="white"/>
<path d="M39.9689 93.017C39.6879 93.017 39.4347 92.777 39.2093 92.297C38.987 91.8036 38.8125 91.1303 38.6859 90.277C38.5593 89.4103 38.496 88.4303 38.496 87.337C38.496 86.2436 38.5593 85.2703 38.6859 84.417C38.8125 83.5503 38.987 82.877 39.2093 82.397C39.4347 81.917 39.6879 81.677 39.9689 81.677C40.2529 81.677 40.5061 81.917 40.7284 82.397C40.9538 82.877 41.1283 83.5503 41.2518 84.417C41.3784 85.2703 41.4417 86.2436 41.4417 87.337C41.4417 88.4303 41.3784 89.4103 41.2518 90.277C41.1283 91.1303 40.9538 91.8036 40.7284 92.297C40.5061 92.777 40.2529 93.017 39.9689 93.017ZM39.9689 89.497C40.0893 89.497 40.1881 89.3103 40.2653 88.937C40.3425 88.5503 40.3811 88.017 40.3811 87.337C40.3811 86.657 40.3425 86.1303 40.2653 85.757C40.1881 85.3836 40.0893 85.197 39.9689 85.197C39.8485 85.197 39.7496 85.3836 39.6725 85.757C39.5953 86.1303 39.5567 86.657 39.5567 87.337C39.5567 88.017 39.5953 88.5503 39.6725 88.937C39.7496 89.3103 39.8485 89.497 39.9689 89.497Z" fill="white"/>
<path d="M43.6358 92.437C43.4784 92.8236 43.2638 93.017 42.9921 93.017C42.637 93.017 42.3637 92.6503 42.1723 91.917C41.9808 91.1703 41.8851 90.057 41.8851 88.577V85.777H41.5377V82.477H41.8851V79.417H42.9318V82.477H43.4506V85.777H42.9318V88.537C42.9318 88.8703 42.9519 89.1303 42.9921 89.317C43.0322 89.5036 43.0847 89.597 43.1495 89.597C43.2391 89.597 43.3178 89.497 43.3857 89.297L43.6358 92.437Z" fill="white"/>
<path d="M43.8997 81.877H44.9464V92.817H43.8997V81.877ZM44.423 80.997C44.2347 80.997 44.0818 80.7836 43.9645 80.357C43.8503 79.917 43.7931 79.3636 43.7931 78.697C43.7931 78.0303 43.8503 77.4836 43.9645 77.057C44.0818 76.617 44.2347 76.397 44.423 76.397C44.6145 76.397 44.7673 76.6036 44.8815 77.017C44.9958 77.4303 45.0529 77.9636 45.0529 78.617C45.0529 79.3103 44.9958 79.8836 44.8815 80.337C44.7673 80.777 44.6145 80.997 44.423 80.997Z" fill="white"/>
<path d="M48.2124 77.977V92.817H47.2167V91.917C47.0654 92.6503 46.8338 93.017 46.5219 93.017C46.2996 93.017 46.0943 92.7903 45.9059 92.337C45.7207 91.8703 45.5724 91.2036 45.4613 90.337C45.3532 89.4703 45.2992 88.4703 45.2992 87.337C45.2992 86.2036 45.3532 85.2103 45.4613 84.357C45.5724 83.4903 45.7207 82.8303 45.9059 82.377C46.0943 81.9103 46.2996 81.677 46.5219 81.677C46.8029 81.677 47.0175 81.9903 47.1657 82.617V77.977H48.2124ZM46.772 89.497C46.8924 89.497 46.9912 89.3103 47.0684 88.937C47.1456 88.5503 47.1842 88.017 47.1842 87.337C47.1842 86.657 47.1456 86.1303 47.0684 85.757C46.9912 85.3836 46.8924 85.197 46.772 85.197C46.6516 85.197 46.5528 85.3836 46.4756 85.757C46.3984 86.1303 46.3598 86.657 46.3598 87.337C46.3598 88.017 46.3984 88.5503 46.4756 88.937C46.5528 89.3103 46.6516 89.497 46.772 89.497Z" fill="white"/>
<path d="M51.3715 87.337C51.3715 87.4036 51.3669 87.757 51.3576 88.397H49.5976C49.6347 88.8103 49.6964 89.1303 49.7829 89.357C49.8694 89.5703 49.9774 89.677 50.1071 89.677C50.2183 89.677 50.3109 89.617 50.385 89.497C50.4622 89.377 50.5456 89.1703 50.6351 88.877L51.1816 91.257C50.9346 92.4303 50.5656 93.017 50.0747 93.017C49.769 93.017 49.5004 92.777 49.2688 92.297C49.0372 91.8036 48.8581 91.1236 48.7315 90.257C48.6049 89.3903 48.5416 88.417 48.5416 87.337C48.5416 86.2436 48.6034 85.2703 48.7269 84.417C48.8535 83.5503 49.0249 82.877 49.241 82.397C49.4602 81.917 49.7057 81.677 49.9774 81.677C50.2337 81.677 50.4668 81.897 50.6768 82.337C50.8898 82.777 51.0581 83.4236 51.1816 84.277C51.3082 85.1303 51.3715 86.1503 51.3715 87.337ZM49.9867 84.757C49.8786 84.757 49.7891 84.8836 49.7181 85.137C49.647 85.3903 49.6007 85.7503 49.5791 86.217H50.3943C50.3726 85.7636 50.3263 85.4103 50.2553 85.157C50.1843 84.8903 50.0948 84.757 49.9867 84.757Z" fill="white"/>
<path d="M26.914 109.497C27.1054 109.804 27.2536 110.25 27.3586 110.837C27.4636 111.424 27.5161 112.13 27.5161 112.957C27.5161 114.184 27.3988 113.137 27.1641 113.817C26.9294 114.484 26.5898 112.817 26.1451 112.817H24.3203V102.817H26.0525C26.4848 102.817 26.8105 103.15 27.0298 103.817C27.2521 104.484 27.3632 105.37 27.3632 106.477C27.3632 107.13 27.3247 107.717 27.2475 108.237C27.1734 108.757 27.0622 109.177 26.914 109.497ZM25.3948 106.117V108.197H25.9043C26.1421 108.197 26.2609 107.85 26.2609 107.157C26.2609 106.464 26.1421 106.117 25.9043 106.117H25.3948ZM26.0525 110.517C26.2934 110.517 26.4138 111.15 26.4138 110.417C26.4138 109.684 26.2934 109.317 26.0525 109.317H25.3948V110.517H26.0525Z" fill="white"/>
<path d="M27.9025 102.817H28.9956V112.157H30.4592V115.817L27.9025 114.817V102.817Z" fill="white"/>
<path d="M33.0156 113.377H31.7836L31.5659 115.817H30.4543L31.8716 102.817H32.9461L34.3633 116.817L33.2332 115.817L33.0156 113.377ZM32.7145 110.977L32.3996 107.457L32.0846 110.977H32.7145Z" fill="white"/>
<path d="M35.7466 117.137C35.478 117.137 35.2155 117.01 34.9593 116.757C34.7061 116.49 34.4976 116.137 34.334 115.697L34.686 112.257C34.8404 112.644 35.0133 112.957 35.2047 113.197C35.3962 113.424 35.5799 113.537 35.7559 113.537C35.9072 113.537 36.0153 113.477 36.0801 113.357C36.1449 113.224 36.1774 113.03 36.1774 112.777C36.1774 112.484 36.1341 112.264 36.0477 112.117C35.9643 111.97 35.8254 111.81 35.6308 111.637C35.3807 111.41 35.1723 111.17 35.0056 110.917C34.8388 110.65 34.6937 110.224 34.5702 109.637C34.4467 109.037 34.3849 108.23 34.3849 107.217C34.3849 106.337 34.4421 105.537 34.5563 104.817C34.6706 104.097 34.8404 103.53 35.0658 103.117C35.2943 102.704 35.5706 102.497 35.8948 102.497C36.1172 102.497 36.3348 102.604 36.5479 102.817C36.764 103.017 36.9539 103.317 37.1176 103.717L36.7887 107.137C36.4707 106.444 36.1696 106.097 35.8856 106.097C35.6046 106.097 35.4641 106.39 35.4641 106.977C35.4641 107.257 35.5058 107.47 35.5892 107.617C35.6725 107.75 35.8099 107.897 36.0014 108.057C36.2484 108.257 36.4568 108.49 36.6266 108.757C36.7964 109.01 36.9431 109.43 37.0666 110.017C37.1932 110.604 37.2565 111.404 37.2565 112.417C37.2565 113.297 37.1994 114.097 37.0851 114.817C36.9709 115.524 36.7995 116.09 36.571 116.517C36.3456 116.93 36.0708 117.137 35.7466 117.137Z" fill="white"/>
<path d="M38.2405 106.477H37.2911V102.817H40.2831V106.477H39.3336V116.817H38.2405V106.477Z" fill="white"/>
</g>
<g filter="url(#filter2_f)">
<path d="M56.1298 31.4412L55.8359 48.3926M58.5193 31.1479L56.7021 51.6086M60.9801 33.8476L57.7086 53.9442M62.8684 38.8782L58.8405 55.6864M64.0668 44.5937L60.2596 56.4284M53.9319 31.2749L55.0127 45.0922M64.5699 47.9407L62.0465 55.5676M66.5475 49.8959L66.857 61.1093M68.9656 47.5272L67.7477 64.425M71.2727 47.3633L69.0242 67.379M73.3721 49.0959L70.5999 69.8164M75.0691 52.5753L72.4162 70.914M76.3505 56.754L74.7956 70.3248M77.5023 62.1301L77.2638 67.925M82.9671 63.24L79.7511 73.751M84.6508 63.6094L81.0643 79.9848M86.1261 65.0777L82.8874 84.6998M87.3535 67.5956L85.0651 87.7956M87.7719 89.1153L88.464 70.5297M89.2669 73.1263L90.4445 89.3144M91.7855 83.3034L94.225 88.226" stroke="black" stroke-linecap="round" stroke-linejoin="round"/>
<path d="M56.1298 31.4412L55.8359 48.3926M58.5193 31.1479L56.7021 51.6086M60.9801 33.8476L57.7086 53.9442M62.8684 38.8782L58.8405 55.6864M64.0668 44.5937L60.2596 56.4284M53.9319 31.2749L55.0127 45.0922M64.5699 47.9407L62.0465 55.5676M66.5475 49.8959L66.857 61.1093M68.9656 47.5272L67.7477 64.425M71.2727 47.3633L69.0242 67.379M73.3721 49.0959L70.5999 69.8164M75.0691 52.5753L72.4162 70.914M76.3505 56.754L74.7956 70.3248M77.5023 62.1301L77.2638 67.925M82.9671 63.24L79.7511 73.751M84.6508 63.6094L81.0643 79.9848M86.1261 65.0777L82.8874 84.6998M87.3535 67.5956L85.0651 87.7956M87.7719 89.1153L88.464 70.5297M89.2669 73.1263L90.4445 89.3144M91.7855 83.3034L94.225 88.226" stroke="url(#paint1_linear)" stroke-linecap="round" stroke-linejoin="round"/>
</g>
<g filter="url(#filter3_f)">
<path d="M46.326 37.8517C46.326 37.8517 54.5754 27.1931 59.5614 31.9509C65.6192 37.7315 64.3275 62.1855 70.2097 69.4643C76.0531 76.6952 80.7137 56.4064 86.2968 65.3544C90.8272 72.6154 94.0907 97.5295 94.0907 97.5295M52.6534 29.8215C52.6534 29.8215 54.5455 47.4075 57.4979 53.582C62.3485 63.7264 66.8434 42.5439 72.4392 48.0406C78.9538 54.4399 77.9876 79.8431 84.3946 87.1872C90.2841 93.938 100.47 84.1157 100.47 84.1157" stroke="black" stroke-width="4" stroke-linecap="round" stroke-linejoin="round"/>
<path d="M46.326 37.8517C46.326 37.8517 54.5754 27.1931 59.5614 31.9509C65.6192 37.7315 64.3275 62.1855 70.2097 69.4643C76.0531 76.6952 80.7137 56.4064 86.2968 65.3544C90.8272 72.6154 94.0907 97.5295 94.0907 97.5295M52.6534 29.8215C52.6534 29.8215 54.5455 47.4075 57.4979 53.582C62.3485 63.7264 66.8434 42.5439 72.4392 48.0406C78.9538 54.4399 77.9876 79.8431 84.3946 87.1872C90.2841 93.938 100.47 84.1157 100.47 84.1157" stroke="url(#paint2_linear)" stroke-width="4" stroke-linecap="round" stroke-linejoin="round"/>
</g>
<path opacity="0.75" fill-rule="evenodd" clip-rule="evenodd" d="M134.592 94.9409C142.379 94.9409 148.692 88.6281 148.692 80.8409C148.692 73.0537 142.379 66.741 134.592 66.741C126.804 66.741 120.492 73.0537 120.492 80.8409C120.492 88.6281 126.804 94.9409 134.592 94.9409ZM134.591 91.5833C140.524 91.5833 145.334 86.7736 145.334 80.8404C145.334 74.9073 140.524 70.0976 134.591 70.0976C128.658 70.0976 123.848 74.9073 123.848 80.8404C123.848 86.7736 128.658 91.5833 134.591 91.5833Z" fill="white"/>
<path opacity="0.75" fill-rule="evenodd" clip-rule="evenodd" d="M177.438 32.751C186.51 32.751 193.864 26.4788 193.864 18.7416C193.864 11.0044 186.51 4.73218 177.438 4.73218C168.366 4.73218 161.012 11.0044 161.012 18.7416C161.012 26.4788 168.366 32.751 177.438 32.751ZM177.438 29.415C184.35 29.415 189.953 24.6362 189.953 18.7412C189.953 12.8462 184.35 8.06734 177.438 8.06734C170.526 8.06734 164.923 12.8462 164.923 18.7412C164.923 24.6362 170.526 29.415 177.438 29.415Z" fill="white"/>
<path opacity="0.5" fill-rule="evenodd" clip-rule="evenodd" d="M73.5231 122.792C75.8355 122.792 77.7102 120.26 77.7102 117.137C77.7102 114.014 75.8355 111.482 73.5231 111.482C71.2106 111.482 69.3359 114.014 69.3359 117.137C69.3359 120.26 71.2106 122.792 73.5231 122.792ZM73.523 121.446C75.2849 121.446 76.7132 119.517 76.7132 117.137C76.7132 114.757 75.2849 112.828 73.523 112.828C71.7611 112.828 70.3328 114.757 70.3328 117.137C70.3328 119.517 71.7611 121.446 73.523 121.446Z" fill="white"/>
<path opacity="0.5" fill-rule="evenodd" clip-rule="evenodd" d="M125.849 134.496C132.121 134.496 137.205 129.412 137.205 123.14C137.205 116.868 132.121 111.783 125.849 111.783C119.577 111.783 114.493 116.868 114.493 123.14C114.493 129.412 119.577 134.496 125.849 134.496ZM125.849 131.792C130.628 131.792 134.502 127.918 134.502 123.14C134.502 118.361 130.628 114.487 125.849 114.487C121.071 114.487 117.197 118.361 117.197 123.14C117.197 127.918 121.071 131.792 125.849 131.792Z" fill="white"/>
<path opacity="0.75" fill-rule="evenodd" clip-rule="evenodd" d="M330.321 61.8714C347.264 61.8714 360.999 48.1365 360.999 31.1937C360.999 14.2508 347.264 0.515869 330.321 0.515869C313.378 0.515869 299.643 14.2508 299.643 31.1937C299.643 48.1365 313.378 61.8714 330.321 61.8714ZM330.322 54.5676C343.23 54.5676 353.695 44.1029 353.695 31.194C353.695 18.2851 343.23 7.82041 330.322 7.82041C317.413 7.82041 306.948 18.2851 306.948 31.194C306.948 44.1029 317.413 54.5676 330.322 54.5676Z" fill="white"/>
<path opacity="0.75" fill-rule="evenodd" clip-rule="evenodd" d="M253.354 44.2011C265.413 44.2011 275.189 34.4254 275.189 22.3664C275.189 10.3075 265.413 0.531738 253.354 0.531738C241.295 0.531738 231.52 10.3075 231.52 22.3664C231.52 34.4254 241.295 44.2011 253.354 44.2011ZM253.355 39.0026C262.543 39.0026 269.991 31.5545 269.991 22.3667C269.991 13.1789 262.543 5.73069 253.355 5.73069C244.167 5.73069 236.719 13.1789 236.719 22.3667C236.719 31.5545 244.167 39.0026 253.355 39.0026Z" fill="white"/>
<path fill-rule="evenodd" clip-rule="evenodd" d="M219.21 63.7309C221.524 63.7309 223.399 60.8426 223.399 57.2798C223.399 53.7169 221.524 50.8286 219.21 50.8286C216.897 50.8286 215.021 53.7169 215.021 57.2798C215.021 60.8426 216.897 63.7309 219.21 63.7309ZM219.21 62.1948C220.973 62.1948 222.402 59.9942 222.402 57.2797C222.402 54.5651 220.973 52.3645 219.21 52.3645C217.448 52.3645 216.019 54.5651 216.019 57.2797C216.019 59.9942 217.448 62.1948 219.21 62.1948Z" fill="white" fill-opacity="0.5"/>
<path fill-rule="evenodd" clip-rule="evenodd" d="M192.09 81.9016C195.624 81.9016 198.489 79.0367 198.489 75.5027C198.489 71.9686 195.624 69.1038 192.09 69.1038C188.556 69.1038 185.691 71.9686 185.691 75.5027C185.691 79.0367 188.556 81.9016 192.09 81.9016ZM192.09 80.3779C194.783 80.3779 196.966 78.1951 196.966 75.5026C196.966 72.81 194.783 70.6272 192.09 70.6272C189.398 70.6272 187.215 72.81 187.215 75.5026C187.215 78.1951 189.398 80.3779 192.09 80.3779Z" fill="white" fill-opacity="0.5"/>
<g opacity="0.65">
<line x1="144.238" y1="49.406" x2="152.921" y2="55.2501" stroke="white" stroke-width="3" stroke-linecap="round"/>
<path d="M151.502 47.9861L145.881 56.3366" stroke="white" stroke-width="3" stroke-linecap="round"/>
</g>
<g opacity="0.65">
<line x1="207.099" y1="-9.39887" x2="213.826" y2="10.944" stroke="white" stroke-width="3" stroke-linecap="round"/>
<path d="M220.635 -2.59253L203.3 3.14057" stroke="white" stroke-width="3" stroke-linecap="round"/>
</g>
<g opacity="0.65">
<line x1="157.508" y1="87.0149" x2="166.191" y2="92.859" stroke="white" stroke-width="3" stroke-linecap="round"/>
<path d="M164.772 85.595L159.151 93.9455" stroke="white" stroke-width="3" stroke-linecap="round"/>
</g>
<g opacity="0.65">
<line x1="108.463" y1="66.3483" x2="117.145" y2="72.1925" stroke="white" stroke-width="3" stroke-linecap="round"/>
<path d="M115.727 64.9285L110.106 73.279" stroke="white" stroke-width="3" stroke-linecap="round"/>
</g>
<path opacity="0.35" d="M97.3896 111.812L99.2746 117.075M100.964 113.501L95.6101 115.419" stroke="white" stroke-linecap="round"/>
<path opacity="0.5" d="M315.595 25.9229L311.642 29.876M315.595 29.876L311.574 25.855" stroke="white" stroke-linecap="round"/>
<path opacity="0.5" d="M279.888 57.5805L274.539 59.2056M278.026 61.0675L276.373 55.6265" stroke="white" stroke-linecap="round"/>
<path opacity="0.5" d="M125.849 48.8861L121.896 52.8391M125.849 52.8391L121.828 48.8181" stroke="white" stroke-linecap="round"/>
<path opacity="0.5" d="M191.489 37.9513L193.896 44.8227M195.739 39.3948L189.54 43.448" stroke="white" stroke-linecap="round"/>
<defs>
<filter id="filter0_f" x="20.3203" y="55.0576" width="37.7622" height="66.0794" filterUnits="userSpaceOnUse" color-interpolation-filters="sRGB">
<feFlood flood-opacity="0" result="BackgroundImageFix"/>
<feBlend mode="normal" in="SourceGraphic" in2="BackgroundImageFix" result="shape"/>
<feGaussianBlur stdDeviation="2" result="effect1_foregroundBlur"/>
</filter>
<filter id="filter1_d" x="33.8467" y="55.0576" width="24.2358" height="66.0794" filterUnits="userSpaceOnUse" color-interpolation-filters="sRGB">
<feFlood flood-opacity="0" result="BackgroundImageFix"/>
<feColorMatrix in="SourceAlpha" type="matrix" values="0 0 0 0 0 0 0 0 0 0 0 0 0 0 0 0 0 0 127 0"/>
<feOffset/>
<feGaussianBlur stdDeviation="2"/>
<feColorMatrix type="matrix" values="0 0 0 0 0 0 0 0 0 0 0 0 0 0 0 0 0 0 0.25 0"/>
<feBlend mode="normal" in2="BackgroundImageFix" result="effect1_dropShadow"/>
<feBlend mode="normal" in="SourceGraphic" in2="effect1_dropShadow" result="shape"/>
</filter>
<filter id="filter2_f" x="48.6123" y="25.5171" width="50.9319" height="69.4284" filterUnits="userSpaceOnUse" color-interpolation-filters="sRGB">
<feFlood flood-opacity="0" result="BackgroundImageFix"/>
<feBlend mode="normal" in="SourceGraphic" in2="BackgroundImageFix" result="shape"/>
<feGaussianBlur stdDeviation="2.5" result="effect1_foregroundBlur"/>
</filter>
<filter id="filter3_f" x="39.4966" y="22.6636" width="67.8028" height="82.0237" filterUnits="userSpaceOnUse" color-interpolation-filters="sRGB">
<feFlood flood-opacity="0" result="BackgroundImageFix"/>
<feBlend mode="normal" in="SourceGraphic" in2="BackgroundImageFix" result="shape"/>
<feGaussianBlur stdDeviation="2.5" result="effect1_foregroundBlur"/>
</filter>
<linearGradient id="paint0_linear" x1="407.622" y1="-22.7319" x2="39.9498" y2="196.29" gradientUnits="userSpaceOnUse">
<stop stop-color="#242424"/>
<stop offset="0.921875" stop-color="#3E70DF"/>
</linearGradient>
<linearGradient id="paint1_linear" x1="85.6361" y1="83.3556" x2="67.1569" y2="49.8025" gradientUnits="userSpaceOnUse">
<stop stop-color="#FF6B5C"/>
<stop offset="1" stop-color="#FEBA61"/>
</linearGradient>
<linearGradient id="paint2_linear" x1="90.2107" y1="79.0269" x2="61.8376" y2="76.0498" gradientUnits="userSpaceOnUse">
<stop stop-color="#FF6B5C"/>
<stop offset="1" stop-color="#FEBA61"/>
</linearGradient>
</defs>
</svg>
