<svg width="100" height="63" viewBox="0 0 100 63" fill="none" xmlns="http://www.w3.org/2000/svg">
<path d="M20.1753 11.9707L19.672 21.4697M24.2672 11.8064L21.1553 23.2719M28.4812 13.3191L22.8789 24.5807M31.7147 16.1382L24.8172 25.557M33.7669 19.341L27.2473 25.9727M16.4116 11.8775L18.2623 19.6203M34.6285 21.2165L30.3073 25.4904M38.015 22.3122L38.545 28.5958M42.1558 20.9848L40.0703 30.4538M46.1066 20.893L42.2563 32.1091M49.7017 21.8638L44.9545 33.475M52.6078 23.8136L48.0648 34.09M54.802 26.1552L52.1393 33.7598M56.7745 29.1678L56.3661 32.4151M66.1327 29.7897L60.6254 35.6798M69.0158 29.9968L62.8741 39.173M71.5422 30.8196L65.9961 41.8152M73.6442 32.2305L69.7253 43.55M74.3605 44.2895L75.5458 33.8747M76.9207 35.3297L78.9373 44.401M81.2337 41.0327L85.4111 43.7912" stroke="black" stroke-linecap="round" stroke-linejoin="round"/>
<path d="M20.1753 11.9707L19.672 21.4697M24.2672 11.8064L21.1553 23.2719M28.4812 13.3191L22.8789 24.5807M31.7147 16.1382L24.8172 25.557M33.7669 19.341L27.2473 25.9727M16.4116 11.8775L18.2623 19.6203M34.6285 21.2165L30.3073 25.4904M38.015 22.3122L38.545 28.5958M42.1558 20.9848L40.0703 30.4538M46.1066 20.893L42.2563 32.1091M49.7017 21.8638L44.9545 33.475M52.6078 23.8136L48.0648 34.09M54.802 26.1552L52.1393 33.7598M56.7745 29.1678L56.3661 32.4151M66.1327 29.7897L60.6254 35.6798M69.0158 29.9968L62.8741 39.173M71.5422 30.8196L65.9961 41.8152M73.6442 32.2305L69.7253 43.55M74.3605 44.2895L75.5458 33.8747M76.9207 35.3297L78.9373 44.401M81.2337 41.0327L85.4111 43.7912" stroke="url(#paint0_linear)" stroke-linecap="round" stroke-linejoin="round"/>
<path d="M20.1753 11.9707L19.672 21.4697M24.2672 11.8064L21.1553 23.2719M28.4812 13.3191L22.8789 24.5807M31.7147 16.1382L24.8172 25.557M33.7669 19.341L27.2473 25.9727M16.4116 11.8775L18.2623 19.6203M34.6285 21.2165L30.3073 25.4904M38.015 22.3122L38.545 28.5958M42.1558 20.9848L40.0703 30.4538M46.1066 20.893L42.2563 32.1091M49.7017 21.8638L44.9545 33.475M52.6078 23.8136L48.0648 34.09M54.802 26.1552L52.1393 33.7598M56.7745 29.1678L56.3661 32.4151M66.1327 29.7897L60.6254 35.6798M69.0158 29.9968L62.8741 39.173M71.5422 30.8196L65.9961 41.8152M73.6442 32.2305L69.7253 43.55M74.3605 44.2895L75.5458 33.8747M76.9207 35.3297L78.9373 44.401M81.2337 41.0327L85.4111 43.7912" stroke="url(#paint1_linear)" stroke-linecap="round" stroke-linejoin="round"/>
<path d="M3.38672 15.5629C3.38672 15.5629 17.5133 9.59012 26.0516 12.2563C36.4251 15.4955 34.2132 29.1988 44.2862 33.2776C54.2927 37.3296 62.2737 25.9604 71.8344 30.9746C79.5926 35.0434 85.1811 49.0045 85.1811 49.0045M14.2221 11.063C14.2221 11.063 17.4621 20.9176 22.5178 24.3776C30.8243 30.0623 38.5216 18.1922 48.1041 21.2724C59.2599 24.8584 57.6055 39.0936 68.577 43.2089C78.6624 46.9919 96.1054 41.4878 96.1054 41.4878" stroke="black" stroke-width="4" stroke-linecap="round" stroke-linejoin="round"/>
<path d="M3.38672 15.5629C3.38672 15.5629 17.5133 9.59012 26.0516 12.2563C36.4251 15.4955 34.2132 29.1988 44.2862 33.2776C54.2927 37.3296 62.2737 25.9604 71.8344 30.9746C79.5926 35.0434 85.1811 49.0045 85.1811 49.0045M14.2221 11.063C14.2221 11.063 17.4621 20.9176 22.5178 24.3776C30.8243 30.0623 38.5216 18.1922 48.1041 21.2724C59.2599 24.8584 57.6055 39.0936 68.577 43.2089C78.6624 46.9919 96.1054 41.4878 96.1054 41.4878" stroke="url(#paint2_linear)" stroke-width="4" stroke-linecap="round" stroke-linejoin="round"/>
<defs>
<linearGradient id="paint0_linear" x1="70.7031" y1="41.0619" x2="66.4256" y2="17.3276" gradientUnits="userSpaceOnUse">
<stop stop-color="#FF6B5C"/>
<stop offset="1" stop-color="#FEBA61"/>
</linearGradient>
<linearGradient id="paint1_linear" x1="52.8295" y1="23.1426" x2="47.9719" y2="35.0238" gradientUnits="userSpaceOnUse">
<stop stop-color="white"/>
<stop offset="1" stop-color="white" stop-opacity="0"/>
</linearGradient>
<linearGradient id="paint2_linear" x1="78.5368" y1="38.6362" x2="33.9943" y2="24.3534" gradientUnits="userSpaceOnUse">
<stop stop-color="#FF6B5C"/>
<stop offset="1" stop-color="#FEBA61"/>
</linearGradient>
</defs>
</svg>
