<svg width="419" height="396" viewBox="0 0 419 396" fill="none" xmlns="http://www.w3.org/2000/svg">
<g style="mix-blend-mode:hard-light" opacity="0.15">
<path d="M170.937 75.0897C156.16 65.2905 144.657 33.6669 144.657 33.6669L50.739 242.152L258.146 352.196L353.566 147.193L345.57 131.203C345.57 131.203 318.45 133.959 303.602 128.582C282.549 120.957 274.006 95.7545 274.006 95.7545C274.006 95.7545 248.49 108.041 232.496 99.5568C215.646 90.619 208.58 71.2347 208.58 71.2347C208.58 71.2347 185.714 84.8889 170.937 75.0897Z" fill="url(#paint0_linear)"/>
<path d="M170.937 75.0897C156.16 65.2905 144.657 33.6669 144.657 33.6669L50.739 242.152L258.146 352.196L353.566 147.193L345.57 131.203C345.57 131.203 318.45 133.959 303.602 128.582C282.549 120.957 274.006 95.7545 274.006 95.7545C274.006 95.7545 248.49 108.041 232.496 99.5568C215.646 90.619 208.58 71.2347 208.58 71.2347C208.58 71.2347 185.714 84.8889 170.937 75.0897Z" fill="url(#paint1_linear)"/>
</g>
<g style="mix-blend-mode:hard-light" opacity="0.15">
<path d="M188.065 41.4039C173.288 31.6046 147.24 38.8069 147.24 38.8069L112.829 47.7225L27.191 230.831L271.664 360.955L384.299 123.891C384.299 123.891 361.3 129.729 346.335 131.031C340.479 120.946 324.861 97.7292 314.128 92.317C295.097 82.72 274.007 95.7544 274.007 95.7544C274.007 95.7544 264.57 74.4501 248.575 65.9657C231.726 57.0279 208.58 71.2346 208.58 71.2346C208.58 71.2346 202.842 51.2031 188.065 41.4039Z" fill="url(#paint2_linear)"/>
<path d="M188.065 41.4039C173.288 31.6046 147.24 38.8069 147.24 38.8069L112.829 47.7225L27.191 230.831L271.664 360.955L384.299 123.891C384.299 123.891 361.3 129.729 346.335 131.031C340.479 120.946 324.861 97.7292 314.128 92.317C295.097 82.72 274.007 95.7544 274.007 95.7544C274.007 95.7544 264.57 74.4501 248.575 65.9657C231.726 57.0279 208.58 71.2346 208.58 71.2346C208.58 71.2346 202.842 51.2031 188.065 41.4039Z" fill="url(#paint3_linear)"/>
</g>
<path d="M163.505 37.5084L162.041 65.1464M175.411 37.0303L166.357 70.3898M187.672 41.4319L171.372 74.1977M197.08 49.6339L177.011 77.0383M203.051 58.9526L184.082 78.248M152.555 37.2374L157.939 59.7653M205.557 64.4095L192.985 76.8446M215.411 67.5974L216.953 85.8798M227.458 63.7354L221.391 91.2857M238.954 63.4682L227.751 96.1021M249.414 66.293L235.602 100.076M257.869 71.9659L244.651 101.866M264.253 78.7789L256.506 100.905M269.992 87.5442L268.804 96.9923M297.22 89.3537L281.197 106.491M305.609 89.9561L287.739 116.655M312.959 92.35L296.823 124.342M319.075 96.4552L307.673 129.39M321.159 131.541L324.608 101.239M328.608 105.473L334.476 131.866M341.157 122.065L353.312 130.091" stroke="black" stroke-linecap="round" stroke-linejoin="round"/>
<path d="M163.505 37.5084L162.041 65.1464M175.411 37.0303L166.357 70.3898M187.672 41.4319L171.372 74.1977M197.08 49.6339L177.011 77.0383M203.051 58.9526L184.082 78.248M152.555 37.2374L157.939 59.7653M205.557 64.4095L192.985 76.8446M215.411 67.5974L216.953 85.8798M227.458 63.7354L221.391 91.2857M238.954 63.4682L227.751 96.1021M249.414 66.293L235.602 100.076M257.869 71.9659L244.651 101.866M264.253 78.7789L256.506 100.905M269.992 87.5442L268.804 96.9923M297.22 89.3537L281.197 106.491M305.609 89.9561L287.739 116.655M312.959 92.35L296.823 124.342M319.075 96.4552L307.673 129.39M321.159 131.541L324.608 101.239M328.608 105.473L334.476 131.866M341.157 122.065L353.312 130.091" stroke="url(#paint4_linear)" stroke-linecap="round" stroke-linejoin="round"/>
<path d="M163.505 37.5084L162.041 65.1464M175.411 37.0303L166.357 70.3898M187.672 41.4319L171.372 74.1977M197.08 49.6339L177.011 77.0383M203.051 58.9526L184.082 78.248M152.555 37.2374L157.939 59.7653M205.557 64.4095L192.985 76.8446M215.411 67.5974L216.953 85.8798M227.458 63.7354L221.391 91.2857M238.954 63.4682L227.751 96.1021M249.414 66.293L235.602 100.076M257.869 71.9659L244.651 101.866M264.253 78.7789L256.506 100.905M269.992 87.5442L268.804 96.9923M297.22 89.3537L281.197 106.491M305.609 89.9561L287.739 116.655M312.959 92.35L296.823 124.342M319.075 96.4552L307.673 129.39M321.159 131.541L324.608 101.239M328.608 105.473L334.476 131.866M341.157 122.065L353.312 130.091" stroke="url(#paint5_linear)" stroke-linecap="round" stroke-linejoin="round"/>
<path d="M114.659 47.9601C114.659 47.9601 155.76 30.5821 180.603 38.3394C210.785 47.764 204.349 87.6343 233.657 99.5019C262.772 111.291 285.993 78.212 313.81 92.801C336.382 104.639 352.643 145.26 352.643 145.26M146.184 34.8675C146.184 34.8675 155.611 63.54 170.321 73.607C194.489 90.1466 216.885 55.6103 244.766 64.5722C277.224 75.0057 272.41 116.424 304.332 128.397C333.676 139.404 384.427 123.39 384.427 123.39" stroke="black" stroke-width="4" stroke-linecap="round" stroke-linejoin="round"/>
<path d="M114.659 47.9601C114.659 47.9601 155.76 30.5821 180.603 38.3394C210.785 47.764 204.349 87.6343 233.657 99.5019C262.772 111.291 285.993 78.212 313.81 92.801C336.382 104.639 352.643 145.26 352.643 145.26M146.184 34.8675C146.184 34.8675 155.611 63.54 170.321 73.607C194.489 90.1466 216.885 55.6103 244.766 64.5722C277.224 75.0057 272.41 116.424 304.332 128.397C333.676 139.404 384.427 123.39 384.427 123.39" stroke="url(#paint6_linear)" stroke-width="4" stroke-linecap="round" stroke-linejoin="round"/>
<defs>
<linearGradient id="paint0_linear" x1="367.807" y1="149.188" x2="111.246" y2="23.2783" gradientUnits="userSpaceOnUse">
<stop offset="0.015625" stop-color="#C4C4C4" stop-opacity="0"/>
<stop offset="0.213542" stop-color="#C4C4C4" stop-opacity="0.897597"/>
<stop offset="0.458333" stop-color="#C4C4C4"/>
<stop offset="0.75" stop-color="#C4C4C4" stop-opacity="0.817242"/>
<stop offset="0.923278" stop-color="#C4C4C4" stop-opacity="0"/>
</linearGradient>
<linearGradient id="paint1_linear" x1="367.807" y1="149.188" x2="111.246" y2="23.2783" gradientUnits="userSpaceOnUse">
<stop offset="0.015625" stop-color="#C4C4C4" stop-opacity="0"/>
<stop offset="0.213542" stop-color="#C4C4C4" stop-opacity="0.897597"/>
<stop offset="0.458333" stop-color="#C4C4C4"/>
<stop offset="0.75" stop-color="#C4C4C4" stop-opacity="0.817242"/>
<stop offset="0.923278" stop-color="#C4C4C4" stop-opacity="0"/>
</linearGradient>
<linearGradient id="paint2_linear" x1="367.807" y1="149.189" x2="111.247" y2="23.279" gradientUnits="userSpaceOnUse">
<stop offset="0.015625" stop-color="#C4C4C4" stop-opacity="0"/>
<stop offset="0.213542" stop-color="#C4C4C4" stop-opacity="0.897597"/>
<stop offset="0.458333" stop-color="#C4C4C4"/>
<stop offset="0.863963" stop-color="#C4C4C4" stop-opacity="0.817242"/>
<stop offset="0.973801" stop-color="#C4C4C4" stop-opacity="0"/>
</linearGradient>
<linearGradient id="paint3_linear" x1="391.351" y1="156.653" x2="111.349" y2="22.9694" gradientUnits="userSpaceOnUse">
<stop offset="0.015625" stop-color="#C4C4C4" stop-opacity="0"/>
<stop offset="0.213542" stop-color="#C4C4C4" stop-opacity="0.897597"/>
<stop offset="0.458333" stop-color="#C4C4C4"/>
<stop offset="0.818031" stop-color="#C4C4C4" stop-opacity="0.817242"/>
<stop offset="0.96152" stop-color="#C4C4C4" stop-opacity="0"/>
</linearGradient>
<linearGradient id="paint4_linear" x1="310.518" y1="122.151" x2="298.073" y2="53.0947" gradientUnits="userSpaceOnUse">
<stop stop-color="#FF6B5C"/>
<stop offset="1" stop-color="#FEBA61"/>
</linearGradient>
<linearGradient id="paint5_linear" x1="258.514" y1="70.0137" x2="244.381" y2="104.582" gradientUnits="userSpaceOnUse">
<stop stop-color="white"/>
<stop offset="1" stop-color="white" stop-opacity="0"/>
</linearGradient>
<linearGradient id="paint6_linear" x1="333.311" y1="115.093" x2="203.713" y2="73.5364" gradientUnits="userSpaceOnUse">
<stop stop-color="#FF6B5C"/>
<stop offset="1" stop-color="#FEBA61"/>
</linearGradient>
</defs>
</svg>
