<svg width="420" height="397" viewBox="0 0 420 397" fill="none" xmlns="http://www.w3.org/2000/svg">
<g style="mix-blend-mode:hard-light" opacity="0.15">
<path d="M171.844 75.3888C157.068 65.5895 145.565 33.966 145.565 33.966L51.6468 242.452L259.054 352.495L354.474 147.492L346.478 131.502C346.478 131.502 319.357 134.258 304.51 128.881C283.457 121.256 274.914 96.0536 274.914 96.0536C274.914 96.0536 249.398 108.34 233.404 99.8558C216.554 90.9181 209.488 71.5337 209.488 71.5337C209.488 71.5337 186.621 85.188 171.844 75.3888Z" fill="url(#paint0_linear)"/>
<path d="M171.844 75.3888C157.068 65.5895 145.565 33.966 145.565 33.966L51.6468 242.452L259.054 352.495L354.474 147.492L346.478 131.502C346.478 131.502 319.357 134.258 304.51 128.881C283.457 121.256 274.914 96.0536 274.914 96.0536C274.914 96.0536 249.398 108.34 233.404 99.8558C216.554 90.9181 209.488 71.5337 209.488 71.5337C209.488 71.5337 186.621 85.188 171.844 75.3888Z" fill="url(#paint1_linear)"/>
</g>
<g style="mix-blend-mode:hard-light" opacity="0.15">
<path d="M188.973 41.7029C174.196 31.9037 148.147 39.106 148.147 39.106L113.737 48.0215L28.0987 231.13L272.572 361.254L385.207 124.19C385.207 124.19 362.208 130.028 347.243 131.33C341.387 121.245 325.769 98.0283 315.036 92.6161C296.004 83.019 274.914 96.0535 274.914 96.0535C274.914 96.0535 265.478 74.7492 249.483 66.2648C232.634 57.327 209.488 71.5337 209.488 71.5337C209.488 71.5337 203.75 51.5022 188.973 41.7029Z" fill="url(#paint2_linear)"/>
<path d="M188.973 41.7029C174.196 31.9037 148.147 39.106 148.147 39.106L113.737 48.0215L28.0987 231.13L272.572 361.254L385.207 124.19C385.207 124.19 362.208 130.028 347.243 131.33C341.387 121.245 325.769 98.0283 315.036 92.6161C296.004 83.019 274.914 96.0535 274.914 96.0535C274.914 96.0535 265.478 74.7492 249.483 66.2648C232.634 57.327 209.488 71.5337 209.488 71.5337C209.488 71.5337 203.75 51.5022 188.973 41.7029Z" fill="url(#paint3_linear)"/>
</g>
<path d="M164.413 37.8075L162.949 65.4454M176.319 37.3294L167.264 70.6889M188.579 41.7309L172.279 74.4968M197.987 49.933L177.919 77.3374M203.958 59.2516L184.989 78.547M153.462 37.5365L158.847 60.0644M206.465 64.7086L193.892 77.1436M216.318 67.8965L217.861 86.1789M228.366 64.0345L222.298 91.5848M239.861 63.7673L228.659 96.4012M250.321 66.5921L236.509 100.375M258.777 72.265L245.559 102.165M265.161 79.078L257.414 101.204M270.9 87.8433L269.712 97.2913M298.128 89.6528L282.104 106.79M306.517 90.2551L288.647 116.954M313.867 92.6491L297.73 124.641M319.983 96.7543L308.581 129.689M322.067 131.84L325.516 101.538M329.516 105.772L335.384 132.165M342.065 122.365L354.219 130.39" stroke="black" stroke-linecap="round" stroke-linejoin="round"/>
<path d="M164.413 37.8075L162.949 65.4454M176.319 37.3294L167.264 70.6889M188.579 41.7309L172.279 74.4968M197.987 49.933L177.919 77.3374M203.958 59.2516L184.989 78.547M153.462 37.5365L158.847 60.0644M206.465 64.7086L193.892 77.1436M216.318 67.8965L217.861 86.1789M228.366 64.0345L222.298 91.5848M239.861 63.7673L228.659 96.4012M250.321 66.5921L236.509 100.375M258.777 72.265L245.559 102.165M265.161 79.078L257.414 101.204M270.9 87.8433L269.712 97.2913M298.128 89.6528L282.104 106.79M306.517 90.2551L288.647 116.954M313.867 92.6491L297.73 124.641M319.983 96.7543L308.581 129.689M322.067 131.84L325.516 101.538M329.516 105.772L335.384 132.165M342.065 122.365L354.219 130.39" stroke="url(#paint4_linear)" stroke-linecap="round" stroke-linejoin="round"/>
<path d="M164.413 37.8075L162.949 65.4454M176.319 37.3294L167.264 70.6889M188.579 41.7309L172.279 74.4968M197.987 49.933L177.919 77.3374M203.958 59.2516L184.989 78.547M153.462 37.5365L158.847 60.0644M206.465 64.7086L193.892 77.1436M216.318 67.8965L217.861 86.1789M228.366 64.0345L222.298 91.5848M239.861 63.7673L228.659 96.4012M250.321 66.5921L236.509 100.375M258.777 72.265L245.559 102.165M265.161 79.078L257.414 101.204M270.9 87.8433L269.712 97.2913M298.128 89.6528L282.104 106.79M306.517 90.2551L288.647 116.954M313.867 92.6491L297.73 124.641M319.983 96.7543L308.581 129.689M322.067 131.84L325.516 101.538M329.516 105.772L335.384 132.165M342.065 122.365L354.219 130.39" stroke="url(#paint5_linear)" stroke-linecap="round" stroke-linejoin="round"/>
<path d="M115.566 48.2591C115.566 48.2591 156.668 30.8812 181.511 38.6385C211.693 48.0631 205.257 87.9333 234.565 99.801C263.679 111.59 286.9 78.5111 314.718 93.1001C337.29 104.939 353.55 145.559 353.55 145.559M147.092 35.1665C147.092 35.1665 156.519 63.8391 171.229 73.9061C195.397 90.4457 217.793 55.9093 245.673 64.8713C278.132 75.3048 273.318 116.723 305.24 128.697C334.584 139.703 385.335 123.689 385.335 123.689" stroke="black" stroke-width="4" stroke-linecap="round" stroke-linejoin="round"/>
<path d="M115.566 48.2591C115.566 48.2591 156.668 30.8812 181.511 38.6385C211.693 48.0631 205.257 87.9333 234.565 99.801C263.679 111.59 286.9 78.5111 314.718 93.1001C337.29 104.939 353.55 145.559 353.55 145.559M147.092 35.1665C147.092 35.1665 156.519 63.8391 171.229 73.9061C195.397 90.4457 217.793 55.9093 245.673 64.8713C278.132 75.3048 273.318 116.723 305.24 128.697C334.584 139.703 385.335 123.689 385.335 123.689" stroke="url(#paint6_linear)" stroke-width="4" stroke-linecap="round" stroke-linejoin="round"/>
<defs>
<linearGradient id="paint0_linear" x1="368.714" y1="149.488" x2="112.154" y2="23.5773" gradientUnits="userSpaceOnUse">
<stop offset="0.015625" stop-color="#C4C4C4" stop-opacity="0"/>
<stop offset="0.213542" stop-color="#C4C4C4" stop-opacity="0.897597"/>
<stop offset="0.458333" stop-color="#C4C4C4"/>
<stop offset="0.75" stop-color="#C4C4C4" stop-opacity="0.817242"/>
<stop offset="0.923278" stop-color="#C4C4C4" stop-opacity="0"/>
</linearGradient>
<linearGradient id="paint1_linear" x1="368.714" y1="149.488" x2="112.154" y2="23.5773" gradientUnits="userSpaceOnUse">
<stop offset="0.015625" stop-color="#C4C4C4" stop-opacity="0"/>
<stop offset="0.213542" stop-color="#C4C4C4" stop-opacity="0.897597"/>
<stop offset="0.458333" stop-color="#C4C4C4"/>
<stop offset="0.75" stop-color="#C4C4C4" stop-opacity="0.817242"/>
<stop offset="0.923278" stop-color="#C4C4C4" stop-opacity="0"/>
</linearGradient>
<linearGradient id="paint2_linear" x1="368.715" y1="149.488" x2="112.155" y2="23.5781" gradientUnits="userSpaceOnUse">
<stop offset="0.015625" stop-color="#C4C4C4" stop-opacity="0"/>
<stop offset="0.213542" stop-color="#C4C4C4" stop-opacity="0.897597"/>
<stop offset="0.458333" stop-color="#C4C4C4"/>
<stop offset="0.863963" stop-color="#C4C4C4" stop-opacity="0.817242"/>
<stop offset="0.973801" stop-color="#C4C4C4" stop-opacity="0"/>
</linearGradient>
<linearGradient id="paint3_linear" x1="392.259" y1="156.952" x2="112.257" y2="23.2685" gradientUnits="userSpaceOnUse">
<stop offset="0.015625" stop-color="#C4C4C4" stop-opacity="0"/>
<stop offset="0.213542" stop-color="#C4C4C4" stop-opacity="0.897597"/>
<stop offset="0.458333" stop-color="#C4C4C4"/>
<stop offset="0.818031" stop-color="#C4C4C4" stop-opacity="0.817242"/>
<stop offset="0.96152" stop-color="#C4C4C4" stop-opacity="0"/>
</linearGradient>
<linearGradient id="paint4_linear" x1="311.426" y1="122.45" x2="298.98" y2="53.3938" gradientUnits="userSpaceOnUse">
<stop stop-color="#FF6B5C"/>
<stop offset="1" stop-color="#FEBA61"/>
</linearGradient>
<linearGradient id="paint5_linear" x1="259.422" y1="70.3128" x2="245.289" y2="104.881" gradientUnits="userSpaceOnUse">
<stop stop-color="white"/>
<stop offset="1" stop-color="white" stop-opacity="0"/>
</linearGradient>
<linearGradient id="paint6_linear" x1="334.218" y1="115.392" x2="204.62" y2="73.8355" gradientUnits="userSpaceOnUse">
<stop stop-color="#FF6B5C"/>
<stop offset="1" stop-color="#FEBA61"/>
</linearGradient>
</defs>
</svg>
