<svg width="404" height="380" viewBox="0 0 404 380" fill="none" xmlns="http://www.w3.org/2000/svg">
<g style="mix-blend-mode:hard-light" opacity="0.15">
<path d="M171.491 58.9786C156.715 49.1794 145.212 17.5558 145.212 17.5558L51.2937 226.041L258.701 336.085L354.12 131.082L346.125 115.091C346.125 115.091 319.004 117.848 304.157 112.471C283.104 104.846 274.561 79.6434 274.561 79.6434C274.561 79.6434 249.045 91.9301 233.05 83.4457C216.201 74.5079 209.135 55.1236 209.135 55.1236C209.135 55.1236 186.268 68.7778 171.491 58.9786Z" fill="url(#paint0_linear)"/>
<path d="M171.491 58.9786C156.715 49.1794 145.212 17.5558 145.212 17.5558L51.2937 226.041L258.701 336.085L354.12 131.082L346.125 115.091C346.125 115.091 319.004 117.848 304.157 112.471C283.104 104.846 274.561 79.6434 274.561 79.6434C274.561 79.6434 249.045 91.9301 233.05 83.4457C216.201 74.5079 209.135 55.1236 209.135 55.1236C209.135 55.1236 186.268 68.7778 171.491 58.9786Z" fill="url(#paint1_linear)"/>
</g>
<g style="mix-blend-mode:hard-light" opacity="0.15">
<path d="M188.62 25.2928C173.843 15.4936 147.794 22.6958 147.794 22.6958L113.384 31.6114L27.7457 214.72L272.219 344.844L384.854 107.78C384.854 107.78 361.855 113.618 346.89 114.919C341.034 104.834 325.415 81.6181 314.683 76.2059C295.651 66.6089 274.561 79.6433 274.561 79.6433C274.561 79.6433 265.125 58.339 249.13 49.8546C232.281 40.9169 209.135 55.1235 209.135 55.1235C209.135 55.1235 203.397 35.092 188.62 25.2928Z" fill="url(#paint2_linear)"/>
<path d="M188.62 25.2928C173.843 15.4936 147.794 22.6958 147.794 22.6958L113.384 31.6114L27.7457 214.72L272.219 344.844L384.854 107.78C384.854 107.78 361.855 113.618 346.89 114.919C341.034 104.834 325.415 81.6181 314.683 76.2059C295.651 66.6089 274.561 79.6433 274.561 79.6433C274.561 79.6433 265.125 58.339 249.13 49.8546C232.281 40.9169 209.135 55.1235 209.135 55.1235C209.135 55.1235 203.397 35.092 188.62 25.2928Z" fill="url(#paint3_linear)"/>
</g>
<path d="M164.06 21.3973L162.596 49.0353M175.966 20.9192L166.911 54.2787M188.226 25.3208L171.926 58.0866M197.634 33.5228L177.566 60.9272M203.605 42.8415L184.636 62.1369M153.109 21.1263L158.494 43.6542M206.112 48.2984L193.539 60.7335M215.965 51.4863L217.508 69.7687M228.013 47.6243L221.945 75.1747M239.508 47.3571L228.306 79.991M249.968 50.1819L236.156 83.9649M258.424 55.8548L245.206 85.7544M264.808 62.6679L257.061 84.7938M270.547 71.4331L269.358 80.8812M297.775 73.2427L281.751 90.3801M306.163 73.845L288.294 100.544M313.514 76.2389L297.377 108.231M319.63 80.3441L308.228 113.279M321.714 115.43L325.163 85.1279M329.163 89.3615L335.031 115.755M341.712 105.954L353.866 113.98" stroke="black" stroke-linecap="round" stroke-linejoin="round"/>
<path d="M164.06 21.3973L162.596 49.0353M175.966 20.9192L166.911 54.2787M188.226 25.3208L171.926 58.0866M197.634 33.5228L177.566 60.9272M203.605 42.8415L184.636 62.1369M153.109 21.1263L158.494 43.6542M206.112 48.2984L193.539 60.7335M215.965 51.4863L217.508 69.7687M228.013 47.6243L221.945 75.1747M239.508 47.3571L228.306 79.991M249.968 50.1819L236.156 83.9649M258.424 55.8548L245.206 85.7544M264.808 62.6679L257.061 84.7938M270.547 71.4331L269.358 80.8812M297.775 73.2427L281.751 90.3801M306.163 73.845L288.294 100.544M313.514 76.2389L297.377 108.231M319.63 80.3441L308.228 113.279M321.714 115.43L325.163 85.1279M329.163 89.3615L335.031 115.755M341.712 105.954L353.866 113.98" stroke="url(#paint4_linear)" stroke-linecap="round" stroke-linejoin="round"/>
<path d="M164.06 21.3973L162.596 49.0353M175.966 20.9192L166.911 54.2787M188.226 25.3208L171.926 58.0866M197.634 33.5228L177.566 60.9272M203.605 42.8415L184.636 62.1369M153.109 21.1263L158.494 43.6542M206.112 48.2984L193.539 60.7335M215.965 51.4863L217.508 69.7687M228.013 47.6243L221.945 75.1747M239.508 47.3571L228.306 79.991M249.968 50.1819L236.156 83.9649M258.424 55.8548L245.206 85.7544M264.808 62.6679L257.061 84.7938M270.547 71.4331L269.358 80.8812M297.775 73.2427L281.751 90.3801M306.163 73.845L288.294 100.544M313.514 76.2389L297.377 108.231M319.63 80.3441L308.228 113.279M321.714 115.43L325.163 85.1279M329.163 89.3615L335.031 115.755M341.712 105.954L353.866 113.98" stroke="url(#paint5_linear)" stroke-linecap="round" stroke-linejoin="round"/>
<path d="M115.213 31.849C115.213 31.849 156.315 14.471 181.158 22.2283C211.34 31.653 204.904 71.5232 234.212 83.3908C263.326 95.1801 286.547 62.1009 314.364 76.6899C336.937 88.5284 353.197 129.149 353.197 129.149M146.739 18.7564C146.739 18.7564 156.166 47.4289 170.876 57.4959C195.044 74.0355 217.44 39.4992 245.32 48.4612C277.779 58.8946 272.965 100.312 304.887 112.286C334.231 123.293 384.982 107.279 384.982 107.279" stroke="black" stroke-width="4" stroke-linecap="round" stroke-linejoin="round"/>
<path d="M115.213 31.849C115.213 31.849 156.315 14.471 181.158 22.2283C211.34 31.653 204.904 71.5232 234.212 83.3908C263.326 95.1801 286.547 62.1009 314.364 76.6899C336.937 88.5284 353.197 129.149 353.197 129.149M146.739 18.7564C146.739 18.7564 156.166 47.4289 170.876 57.4959C195.044 74.0355 217.44 39.4992 245.32 48.4612C277.779 58.8946 272.965 100.312 304.887 112.286C334.231 123.293 384.982 107.279 384.982 107.279" stroke="url(#paint6_linear)" stroke-width="4" stroke-linecap="round" stroke-linejoin="round"/>
<defs>
<linearGradient id="paint0_linear" x1="368.361" y1="133.077" x2="111.801" y2="7.16718" gradientUnits="userSpaceOnUse">
<stop offset="0.015625" stop-color="#C4C4C4" stop-opacity="0"/>
<stop offset="0.213542" stop-color="#C4C4C4" stop-opacity="0.897597"/>
<stop offset="0.458333" stop-color="#C4C4C4"/>
<stop offset="0.75" stop-color="#C4C4C4" stop-opacity="0.817242"/>
<stop offset="0.923278" stop-color="#C4C4C4" stop-opacity="0"/>
</linearGradient>
<linearGradient id="paint1_linear" x1="368.361" y1="133.077" x2="111.801" y2="7.16718" gradientUnits="userSpaceOnUse">
<stop offset="0.015625" stop-color="#C4C4C4" stop-opacity="0"/>
<stop offset="0.213542" stop-color="#C4C4C4" stop-opacity="0.897597"/>
<stop offset="0.458333" stop-color="#C4C4C4"/>
<stop offset="0.75" stop-color="#C4C4C4" stop-opacity="0.817242"/>
<stop offset="0.923278" stop-color="#C4C4C4" stop-opacity="0"/>
</linearGradient>
<linearGradient id="paint2_linear" x1="368.362" y1="133.078" x2="111.801" y2="7.16792" gradientUnits="userSpaceOnUse">
<stop offset="0.015625" stop-color="#C4C4C4" stop-opacity="0"/>
<stop offset="0.213542" stop-color="#C4C4C4" stop-opacity="0.897597"/>
<stop offset="0.458333" stop-color="#C4C4C4"/>
<stop offset="0.863963" stop-color="#C4C4C4" stop-opacity="0.817242"/>
<stop offset="0.973801" stop-color="#C4C4C4" stop-opacity="0"/>
</linearGradient>
<linearGradient id="paint3_linear" x1="391.906" y1="140.542" x2="111.904" y2="6.85833" gradientUnits="userSpaceOnUse">
<stop offset="0.015625" stop-color="#C4C4C4" stop-opacity="0"/>
<stop offset="0.213542" stop-color="#C4C4C4" stop-opacity="0.897597"/>
<stop offset="0.458333" stop-color="#C4C4C4"/>
<stop offset="0.818031" stop-color="#C4C4C4" stop-opacity="0.817242"/>
<stop offset="0.96152" stop-color="#C4C4C4" stop-opacity="0"/>
</linearGradient>
<linearGradient id="paint4_linear" x1="311.073" y1="106.039" x2="298.627" y2="36.9836" gradientUnits="userSpaceOnUse">
<stop stop-color="#FF6B5C"/>
<stop offset="1" stop-color="#FEBA61"/>
</linearGradient>
<linearGradient id="paint5_linear" x1="259.069" y1="53.9026" x2="244.935" y2="88.4713" gradientUnits="userSpaceOnUse">
<stop stop-color="white"/>
<stop offset="1" stop-color="white" stop-opacity="0"/>
</linearGradient>
<linearGradient id="paint6_linear" x1="333.865" y1="98.9818" x2="204.267" y2="57.4253" gradientUnits="userSpaceOnUse">
<stop stop-color="#FF6B5C"/>
<stop offset="1" stop-color="#FEBA61"/>
</linearGradient>
</defs>
</svg>
