<svg width="59" height="59" viewBox="0 0 59 59" fill="none" xmlns="http://www.w3.org/2000/svg">
<path opacity="0.75" d="M57.5862 29.4347C57.5862 45.1967 44.8086 57.9744 29.0465 57.9744C13.2845 57.9744 0.506836 45.1967 0.506836 29.4347C0.506836 13.6727 13.2845 0.89502 29.0465 0.89502C44.8086 0.89502 57.5862 13.6727 57.5862 29.4347ZM29.0461 52.0593C41.5418 52.0593 51.6716 41.9295 51.6716 29.4338C51.6716 16.9381 41.5418 6.80828 29.0461 6.80828C16.5504 6.80828 6.42058 16.9381 6.42058 29.4338C6.42058 41.9295 16.5504 52.0593 29.0461 52.0593Z" fill="white" stroke="white"/>
<mask id="mask0" mask-type="alpha" maskUnits="userSpaceOnUse" x="0" y="0" width="59" height="59">
<path d="M57.5862 29.4347C57.5862 45.1967 44.8086 57.9744 29.0465 57.9744C13.2845 57.9744 0.506836 45.1967 0.506836 29.4347C0.506836 13.6727 13.2845 0.89502 29.0465 0.89502C44.8086 0.89502 57.5862 13.6727 57.5862 29.4347ZM29.0461 52.0593C41.5418 52.0593 51.6716 41.9295 51.6716 29.4338C51.6716 16.9381 41.5418 6.80828 29.0461 6.80828C16.5504 6.80828 6.42058 16.9381 6.42058 29.4338C6.42058 41.9295 16.5504 52.0593 29.0461 52.0593Z" fill="#595959" stroke="#595959"/>
</mask>
<g mask="url(#mask0)">
<circle cx="43.4229" cy="49.3419" r="14.4512" fill="#0050FF" stroke="#F0F0F0"/>
</g>
</svg>
