<svg width="59" height="59" viewBox="0 0 59 59" fill="none" xmlns="http://www.w3.org/2000/svg">
<path opacity="0.75" d="M58.179 29.4347C58.179 45.1967 45.4013 57.9744 29.6393 57.9744C13.8773 57.9744 1.09961 45.1967 1.09961 29.4347C1.09961 13.6727 13.8773 0.89502 29.6393 0.89502C45.4013 0.89502 58.179 13.6727 58.179 29.4347ZM29.6389 52.0593C42.1346 52.0593 52.2644 41.9295 52.2644 29.4338C52.2644 16.9381 42.1346 6.80828 29.6389 6.80828C17.1431 6.80828 7.01335 16.9381 7.01335 29.4338C7.01335 41.9295 17.1431 52.0593 29.6389 52.0593Z" fill="black" stroke="black"/>
<mask id="mask0" mask-type="alpha" maskUnits="userSpaceOnUse" x="0" y="0" width="59" height="59">
<path d="M58.179 29.4347C58.179 45.1967 45.4013 57.9744 29.6393 57.9744C13.8773 57.9744 1.09961 45.1967 1.09961 29.4347C1.09961 13.6727 13.8773 0.89502 29.6393 0.89502C45.4013 0.89502 58.179 13.6727 58.179 29.4347ZM29.6389 52.0593C42.1346 52.0593 52.2644 41.9295 52.2644 29.4338C52.2644 16.9381 42.1346 6.80828 29.6389 6.80828C17.1431 6.80828 7.01335 16.9381 7.01335 29.4338C7.01335 41.9295 17.1431 52.0593 29.6389 52.0593Z" fill="#595959" stroke="#595959"/>
</mask>
<g mask="url(#mask0)">
<circle cx="44.0157" cy="49.3419" r="14.9512" fill="#0050FF"/>
</g>
</svg>
