<svg fill="none" xmlns="http://www.w3.org/2000/svg">
<path d="M0 -74.7075H1023.37V311.586C1023.49 320.356 1023.37 325.925 1023.37 325.925V311.586C1022.86 274.879 1018.1 182.084 982.391 206.761C944.891 232.674 935.656 186.275 888.75 175.89C854.85 168.385 856.981 161.312 828.207 146.581C789.537 126.783 685.178 146.04 673.596 134.028C650.725 110.308 530.225 115.052 530.225 115.052H45.7073C5.65775e-05 115.052 7.07219e-05 158.021 7.07219e-05 158.021L0 -74.7075Z" fill="url(#paint0_linear)"/>
<mask id="mask0" mask-type="alpha" maskUnits="userSpaceOnUse" x="0" y="-75" width="1024" height="401">
<path d="M0 -74.7075H1023.37V311.586C1023.49 320.356 1023.37 325.925 1023.37 325.925V311.586C1022.86 274.879 1018.1 182.084 982.391 206.761C944.891 232.674 935.656 186.275 888.75 175.89C854.85 168.385 856.981 161.312 828.207 146.581C789.537 126.783 685.178 146.04 673.596 134.028C650.725 110.308 530.225 115.052 530.225 115.052H45.7073C5.34058e-05 115.052 7.07219e-05 158.021 7.07219e-05 158.021L0 -74.7075Z" fill="url(#paint1_linear)"/>
</mask>
<g mask="url(#mask0)">
<g style="mix-blend-mode:multiply" opacity="0.15">
<path d="M619.95 54.1454C607.653 45.7315 598.081 18.5786 598.081 18.5786L461.861 154.626L716.341 271.587L771.929 116.056L765.275 102.325C765.275 102.325 742.706 104.693 730.351 100.075C712.831 93.5285 705.722 71.8888 705.722 71.8888C705.722 71.8888 684.488 82.4384 671.178 75.1535C657.156 67.4793 651.275 50.8354 651.275 50.8354C651.275 50.8354 632.247 62.5593 619.95 54.1454Z" fill="url(#paint2_linear)"/>
<path d="M619.95 54.1454C607.653 45.7315 598.081 18.5786 598.081 18.5786L461.861 154.626L716.341 271.587L771.929 116.056L765.275 102.325C765.275 102.325 742.706 104.693 730.351 100.075C712.831 93.5285 705.722 71.8888 705.722 71.8888C705.722 71.8888 684.488 82.4384 671.178 75.1535C657.156 67.4793 651.275 50.8354 651.275 50.8354C651.275 50.8354 632.247 62.5593 619.95 54.1454Z" fill="url(#paint3_linear)"/>
</g>
<g style="mix-blend-mode:multiply" opacity="0.1">
<path d="M634.203 25.2219C621.906 16.808 600.229 22.9921 600.229 22.9921L571.594 30.6472L441.304 161.714L722.721 314.118L797.504 96.0477C797.504 96.0477 778.365 101.061 765.912 102.178C761.039 93.5186 748.041 73.5844 739.11 68.9374C723.272 60.6971 705.722 71.8888 705.722 71.8888C705.722 71.8888 697.869 53.5963 684.558 46.3114C670.537 38.6372 651.275 50.8354 651.275 50.8354C651.275 50.8354 646.5 33.6358 634.203 25.2219Z" fill="url(#paint4_linear)"/>
<path d="M634.203 25.2219C621.906 16.808 600.229 22.9921 600.229 22.9921L571.594 30.6472L441.304 161.714L722.721 314.118L797.504 96.0477C797.504 96.0477 778.365 101.061 765.912 102.178C761.039 93.5186 748.041 73.5844 739.11 68.9374C723.272 60.6971 705.722 71.8888 705.722 71.8888C705.722 71.8888 697.869 53.5963 684.558 46.3114C670.537 38.6372 651.275 50.8354 651.275 50.8354C651.275 50.8354 646.5 33.6358 634.203 25.2219Z" fill="url(#paint5_linear)"/>
</g>
<g style="mix-blend-mode:multiply" opacity="0.15">
<path d="M44.882 44.5464L161.529 52.6323L-19.4903 128.42L-132.854 95.8758L44.882 44.5464Z" fill="url(#paint6_linear)"/>
<path d="M48.3107 64.9585L112.315 79.0612L-50.9503 141.438L-131.769 106.182L48.3107 64.9585Z" fill="url(#paint7_linear)"/>
<path d="M119.688 33.2744C119.688 33.2744 102.194 53.4129 116.476 70.5979C132.515 89.8974 154.238 72.0486 154.238 72.0486L7.78061 185.051L-139.295 70.5979L119.688 33.2744Z" fill="url(#paint8_linear)"/>
</g>
</g>
<path d="M612.793 21.2194L611.574 44.9501M622.7 20.8089L615.165 49.4523M632.903 24.5882L619.339 52.7219M640.732 31.6307L624.032 55.1609M645.701 39.632L629.916 56.1995M603.68 20.9867L608.161 40.3298M647.787 44.3174L637.325 54.9945M655.987 47.0547L657.27 62.7524M666.013 43.7387L660.963 67.3941M675.579 43.5092L666.256 71.5296M684.283 45.9346L672.789 74.9417M691.319 50.8056L680.32 76.4782M696.632 56.6554L690.185 75.6534M701.408 64.1815L700.419 72.2939M724.067 65.7352L710.732 80.4499M731.047 66.2524L716.177 89.1767M737.164 68.3079L723.736 95.7772M742.254 71.8328L732.765 100.111M743.988 101.959L746.858 75.9402M750.187 79.5753L755.07 102.237M760.63 93.8225L770.744 100.714" stroke="black" stroke-linecap="round" stroke-linejoin="round"/>
<path d="M612.793 21.2194L611.574 44.9501M622.7 20.8089L615.165 49.4523M632.903 24.5882L619.339 52.7219M640.732 31.6307L624.032 55.1609M645.701 39.632L629.916 56.1995M603.68 20.9867L608.161 40.3298M647.787 44.3174L637.325 54.9945M655.987 47.0547L657.27 62.7524M666.013 43.7387L660.963 67.3941M675.579 43.5092L666.256 71.5296M684.283 45.9346L672.789 74.9417M691.319 50.8056L680.32 76.4782M696.632 56.6554L690.185 75.6534M701.408 64.1815L700.419 72.2939M724.067 65.7352L710.732 80.4499M731.047 66.2524L716.177 89.1767M737.164 68.3079L723.736 95.7772M742.254 71.8328L732.765 100.111M743.988 101.959L746.858 75.9402M750.187 79.5753L755.07 102.237M760.63 93.8225L770.744 100.714" stroke="url(#paint9_linear)" stroke-linecap="round" stroke-linejoin="round"/>
<path d="M612.793 21.2194L611.574 44.9501M622.7 20.8089L615.165 49.4523M632.903 24.5882L619.339 52.7219M640.732 31.6307L624.032 55.1609M645.701 39.632L629.916 56.1995M603.68 20.9867L608.161 40.3298M647.787 44.3174L637.325 54.9945M655.987 47.0547L657.27 62.7524M666.013 43.7387L660.963 67.3941M675.579 43.5092L666.256 71.5296M684.283 45.9346L672.789 74.9417M691.319 50.8056L680.32 76.4782M696.632 56.6554L690.185 75.6534M701.408 64.1815L700.419 72.2939M724.067 65.7352L710.732 80.4499M731.047 66.2524L716.177 89.1767M737.164 68.3079L723.736 95.7772M742.254 71.8328L732.765 100.111M743.988 101.959L746.858 75.9402M750.187 79.5753L755.07 102.237M760.63 93.8225L770.744 100.714" stroke="url(#paint10_linear)" stroke-linecap="round" stroke-linejoin="round"/>
<path d="M572.143 30.1933C572.143 30.1933 606.347 15.2721 627.021 21.9327C652.137 30.025 646.782 64.2587 671.171 74.4485C695.399 84.5712 714.723 56.1685 737.872 68.695C756.656 78.8598 770.188 113.738 770.188 113.738M598.378 18.9516C598.378 18.9516 606.223 43.5707 618.465 52.2145C638.576 66.4159 657.214 36.762 680.415 44.457C707.426 53.4155 703.42 88.978 729.985 99.2591C754.404 108.71 796.638 94.9592 796.638 94.9592" stroke="black" stroke-width="2" stroke-linecap="round" stroke-linejoin="round"/>
<path d="M572.143 30.1933C572.143 30.1933 606.347 15.2721 627.021 21.9327C652.137 30.025 646.782 64.2587 671.171 74.4485C695.399 84.5712 714.723 56.1685 737.872 68.695C756.656 78.8598 770.188 113.738 770.188 113.738M598.378 18.9516C598.378 18.9516 606.223 43.5707 618.465 52.2145C638.576 66.4159 657.214 36.762 680.415 44.457C707.426 53.4155 703.42 88.978 729.985 99.2591C754.404 108.71 796.638 94.9592 796.638 94.9592" stroke="url(#paint11_linear)" stroke-width="2" stroke-linecap="round" stroke-linejoin="round"/>
<path opacity="0.75" d="M161.717 52.1298C161.717 67.5279 149.234 80.0105 133.836 80.0105C118.438 80.0105 105.955 67.5279 105.955 52.1298C105.955 36.7317 118.438 24.249 133.836 24.249C149.234 24.249 161.717 36.7317 161.717 52.1298ZM133.835 74.2524C146.054 74.2524 155.959 64.3473 155.959 52.1289C155.959 39.9104 146.054 30.0054 133.835 30.0054C121.617 30.0054 111.712 39.9104 111.712 52.1289C111.712 64.3473 121.617 74.2524 133.835 74.2524Z" fill="black" stroke="black"/>
<mask id="mask1" mask-type="alpha" maskUnits="userSpaceOnUse" x="105" y="23" width="58" height="58">
<path d="M161.717 52.1298C161.717 67.5279 149.234 80.0105 133.836 80.0105C118.438 80.0105 105.955 67.5279 105.955 52.1298C105.955 36.7317 118.438 24.249 133.836 24.249C149.234 24.249 161.717 36.7317 161.717 52.1298ZM133.835 74.2524C146.054 74.2524 155.959 64.3473 155.959 52.1289C155.959 39.9104 146.054 30.0054 133.835 30.0054C121.617 30.0054 111.712 39.9104 111.712 52.1289C111.712 64.3473 121.617 74.2524 133.835 74.2524Z" fill="#595959" stroke="#595959"/>
</mask>
<g mask="url(#mask1)">
<circle cx="147.886" cy="71.5854" r="14.612" fill="#5A85E3"/>
</g>
<path d="M60.5208 39.7908V53.7908H56.6408L51.3208 47.4308V53.7908H46.7208V39.7908H50.6008L55.9208 46.1508V39.7908H60.5208ZM74.615 42.8508V53.7908H70.315V52.7508C69.915 53.1641 69.4484 53.4774 68.915 53.6908C68.3817 53.8908 67.815 53.9908 67.215 53.9908C65.8284 53.9908 64.715 53.5708 63.875 52.7308C63.035 51.8774 62.615 50.5974 62.615 48.8908V42.8508H67.135V48.1108C67.135 48.8574 67.255 49.3908 67.495 49.7108C67.735 50.0308 68.0884 50.1908 68.555 50.1908C68.995 50.1908 69.3617 50.0174 69.655 49.6708C69.9484 49.3108 70.095 48.7508 70.095 47.9908V42.8508H74.615ZM82.4999 53.9908C81.2599 53.9908 80.1465 53.7508 79.1599 53.2708C78.1865 52.7908 77.4199 52.1174 76.8599 51.2508C76.3132 50.3841 76.0399 49.4041 76.0399 48.3108C76.0399 47.2174 76.3132 46.2441 76.8599 45.3908C77.4199 44.5241 78.1865 43.8508 79.1599 43.3708C80.1465 42.8908 81.2599 42.6508 82.4999 42.6508C83.8332 42.6508 84.9732 42.9374 85.9199 43.5108C86.8665 44.0841 87.5199 44.8774 87.8799 45.8908L84.3799 47.6108C83.9532 46.6508 83.3199 46.1708 82.4799 46.1708C81.9465 46.1708 81.4999 46.3574 81.1399 46.7308C80.7932 47.1041 80.6199 47.6308 80.6199 48.3108C80.6199 49.0041 80.7932 49.5374 81.1399 49.9108C81.4999 50.2841 81.9465 50.4708 82.4799 50.4708C83.3199 50.4708 83.9532 49.9908 84.3799 49.0308L87.8799 50.7508C87.5199 51.7641 86.8665 52.5574 85.9199 53.1308C84.9732 53.7041 83.8332 53.9908 82.4999 53.9908ZM88.9246 38.9508H93.4446V53.7908H88.9246V38.9508ZM107.088 48.3108C107.088 48.3774 107.068 48.7308 107.028 49.3708H99.428C99.588 49.7841 99.8547 50.1041 100.228 50.3308C100.601 50.5441 101.068 50.6508 101.628 50.6508C102.108 50.6508 102.508 50.5908 102.828 50.4708C103.161 50.3508 103.521 50.1441 103.908 49.8508L106.268 52.2308C105.201 53.4041 103.608 53.9908 101.488 53.9908C100.168 53.9908 99.008 53.7508 98.008 53.2708C97.008 52.7774 96.2347 52.0974 95.688 51.2308C95.1413 50.3641 94.868 49.3908 94.868 48.3108C94.868 47.2174 95.1347 46.2441 95.668 45.3908C96.2147 44.5241 96.9547 43.8508 97.888 43.3708C98.8347 42.8908 99.8947 42.6508 101.068 42.6508C102.175 42.6508 103.181 42.8708 104.088 43.3108C105.008 43.7508 105.735 44.3974 106.268 45.2508C106.815 46.1041 107.088 47.1241 107.088 48.3108ZM101.108 45.7308C100.641 45.7308 100.255 45.8574 99.948 46.1108C99.6413 46.3641 99.4413 46.7241 99.348 47.1908H102.868C102.775 46.7374 102.575 46.3841 102.268 46.1308C101.961 45.8641 101.575 45.7308 101.108 45.7308ZM114.294 53.9908C113.081 53.9908 111.988 53.7508 111.014 53.2708C110.054 52.7774 109.301 52.1041 108.754 51.2508C108.208 50.3841 107.934 49.4041 107.934 48.3108C107.934 47.2174 108.208 46.2441 108.754 45.3908C109.301 44.5241 110.054 43.8508 111.014 43.3708C111.988 42.8908 113.081 42.6508 114.294 42.6508C115.521 42.6508 116.614 42.8908 117.574 43.3708C118.548 43.8508 119.301 44.5241 119.834 45.3908C120.381 46.2441 120.654 47.2174 120.654 48.3108C120.654 49.4041 120.381 50.3841 119.834 51.2508C119.301 52.1041 118.548 52.7774 117.574 53.2708C116.614 53.7508 115.521 53.9908 114.294 53.9908ZM114.294 50.4708C114.814 50.4708 115.241 50.2841 115.574 49.9108C115.908 49.5241 116.074 48.9908 116.074 48.3108C116.074 47.6308 115.908 47.1041 115.574 46.7308C115.241 46.3574 114.814 46.1708 114.294 46.1708C113.774 46.1708 113.348 46.3574 113.014 46.7308C112.681 47.1041 112.514 47.6308 112.514 48.3108C112.514 48.9908 112.681 49.5241 113.014 49.9108C113.348 50.2841 113.774 50.4708 114.294 50.4708ZM130.129 53.4108C129.449 53.7974 128.522 53.9908 127.349 53.9908C125.816 53.9908 124.636 53.6241 123.809 52.8908C122.982 52.1441 122.569 51.0308 122.569 49.5508V46.7508H121.069V43.4508H122.569V40.3908H127.089V43.4508H129.329V46.7508H127.089V49.5108C127.089 49.8441 127.176 50.1041 127.349 50.2908C127.522 50.4774 127.749 50.5708 128.029 50.5708C128.416 50.5708 128.756 50.4708 129.049 50.2708L130.129 53.4108ZM131.268 42.8508H135.788V53.7908H131.268V42.8508ZM133.528 41.9708C132.715 41.9708 132.055 41.7574 131.548 41.3308C131.055 40.8908 130.808 40.3374 130.808 39.6708C130.808 39.0041 131.055 38.4574 131.548 38.0308C132.055 37.5908 132.715 37.3708 133.528 37.3708C134.355 37.3708 135.015 37.5774 135.508 37.9908C136.002 38.4041 136.248 38.9374 136.248 39.5908C136.248 40.2841 136.002 40.8574 135.508 41.3108C135.015 41.7508 134.355 41.9708 133.528 41.9708ZM149.892 38.9508V53.7908H145.592V52.8908C144.938 53.6241 143.938 53.9908 142.592 53.9908C141.632 53.9908 140.745 53.7641 139.932 53.3108C139.132 52.8441 138.492 52.1774 138.012 51.3108C137.545 50.4441 137.312 49.4441 137.312 48.3108C137.312 47.1774 137.545 46.1841 138.012 45.3308C138.492 44.4641 139.132 43.8041 139.932 43.3508C140.745 42.8841 141.632 42.6508 142.592 42.6508C143.805 42.6508 144.732 42.9641 145.372 43.5908V38.9508H149.892ZM143.672 50.4708C144.192 50.4708 144.618 50.2841 144.952 49.9108C145.285 49.5241 145.452 48.9908 145.452 48.3108C145.452 47.6308 145.285 47.1041 144.952 46.7308C144.618 46.3574 144.192 46.1708 143.672 46.1708C143.152 46.1708 142.725 46.3574 142.392 46.7308C142.058 47.1041 141.892 47.6308 141.892 48.3108C141.892 48.9908 142.058 49.5241 142.392 49.9108C142.725 50.2841 143.152 50.4708 143.672 50.4708ZM163.533 48.3108C163.533 48.3774 163.513 48.7308 163.473 49.3708H155.873C156.033 49.7841 156.3 50.1041 156.673 50.3308C157.047 50.5441 157.513 50.6508 158.073 50.6508C158.553 50.6508 158.953 50.5908 159.273 50.4708C159.607 50.3508 159.967 50.1441 160.353 49.8508L162.713 52.2308C161.647 53.4041 160.053 53.9908 157.933 53.9908C156.613 53.9908 155.453 53.7508 154.453 53.2708C153.453 52.7774 152.68 52.0974 152.133 51.2308C151.587 50.3641 151.313 49.3908 151.313 48.3108C151.313 47.2174 151.58 46.2441 152.113 45.3908C152.66 44.5241 153.4 43.8508 154.333 43.3708C155.28 42.8908 156.34 42.6508 157.513 42.6508C158.62 42.6508 159.627 42.8708 160.533 43.3108C161.453 43.7508 162.18 44.3974 162.713 45.2508C163.26 46.1041 163.533 47.1241 163.533 48.3108ZM157.553 45.7308C157.087 45.7308 156.7 45.8574 156.393 46.1108C156.087 46.3641 155.887 46.7241 155.793 47.1908H159.313C159.22 46.7374 159.02 46.3841 158.713 46.1308C158.407 45.8641 158.02 45.7308 157.553 45.7308ZM57.9208 70.4708C58.7475 70.7774 59.3875 71.2241 59.8408 71.8108C60.2941 72.3974 60.5208 73.1041 60.5208 73.9308C60.5208 75.1574 60.0141 76.1108 59.0008 76.7908C57.9875 77.4574 56.5208 77.7908 54.6008 77.7908H46.7208V63.7908H54.2008C56.0675 63.7908 57.4741 64.1241 58.4208 64.7908C59.3808 65.4574 59.8608 66.3441 59.8608 67.4508C59.8608 68.1041 59.6941 68.6908 59.3608 69.2108C59.0408 69.7308 58.5608 70.1508 57.9208 70.4708ZM51.3608 67.0908V69.1708H53.5608C54.5875 69.1708 55.1008 68.8241 55.1008 68.1308C55.1008 67.4374 54.5875 67.0908 53.5608 67.0908H51.3608ZM54.2008 74.4908C55.2408 74.4908 55.7608 74.1241 55.7608 73.3908C55.7608 72.6574 55.2408 72.2908 54.2008 72.2908H51.3608V74.4908H54.2008ZM62.1896 63.7908H66.9096V74.1308H73.2296V77.7908H62.1896V63.7908ZM84.2686 75.3508H78.9486L78.0086 77.7908H73.2086L79.3286 63.7908H83.9686L90.0886 77.7908H85.2086L84.2686 75.3508ZM82.9686 71.9508L81.6086 68.4308L80.2486 71.9508H82.9686ZM96.0619 78.1108C94.9019 78.1108 93.7686 77.9841 92.6619 77.7308C91.5686 77.4641 90.6686 77.1108 89.9619 76.6708L91.4819 73.2308C92.1486 73.6174 92.8952 73.9308 93.7219 74.1708C94.5486 74.3974 95.3419 74.5108 96.1019 74.5108C96.7552 74.5108 97.2219 74.4508 97.5019 74.3308C97.7819 74.1974 97.9219 74.0041 97.9219 73.7508C97.9219 73.4574 97.7352 73.2374 97.3619 73.0908C97.0019 72.9441 96.4019 72.7841 95.5619 72.6108C94.4819 72.3841 93.5819 72.1441 92.8619 71.8908C92.1419 71.6241 91.5152 71.1974 90.9819 70.6108C90.4486 70.0108 90.1819 69.2041 90.1819 68.1908C90.1819 67.3108 90.4286 66.5108 90.9219 65.7908C91.4152 65.0708 92.1486 64.5041 93.1219 64.0908C94.1086 63.6774 95.3019 63.4708 96.7019 63.4708C97.6619 63.4708 98.6019 63.5774 99.5219 63.7908C100.455 63.9908 101.275 64.2908 101.982 64.6908L100.562 68.1108C99.1886 67.4174 97.8886 67.0708 96.6619 67.0708C95.4486 67.0708 94.8419 67.3641 94.8419 67.9508C94.8419 68.2308 95.0219 68.4441 95.3819 68.5908C95.7419 68.7241 96.3352 68.8708 97.1619 69.0308C98.2286 69.2308 99.1286 69.4641 99.8619 69.7308C100.595 69.9841 101.229 70.4041 101.762 70.9908C102.309 71.5774 102.582 72.3774 102.582 73.3908C102.582 74.2708 102.335 75.0708 101.842 75.7908C101.349 76.4974 100.609 77.0641 99.6219 77.4908C98.6486 77.9041 97.4619 78.1108 96.0619 78.1108ZM106.831 67.4508H102.731V63.7908H115.651V67.4508H111.551V77.7908H106.831V67.4508Z" fill="white"/>
<path opacity="0.75" fill-rule="evenodd" clip-rule="evenodd" d="M897.857 73.479C909.162 73.479 918.326 64.3149 918.326 53.0105C918.326 41.706 909.162 32.542 897.857 32.542C886.553 32.542 877.389 41.706 877.389 53.0105C877.389 64.3149 886.553 73.479 897.857 73.479ZM897.857 68.6055C906.47 68.6055 913.452 61.6234 913.452 53.0105C913.452 44.3976 906.47 37.4154 897.857 37.4154C889.244 37.4154 882.262 44.3976 882.262 53.0105C882.262 61.6234 889.244 68.6055 897.857 68.6055Z" fill="white"/>
<path opacity="0.5" fill-rule="evenodd" clip-rule="evenodd" d="M952.73 89.9641C961.835 89.9641 969.216 82.5832 969.216 73.4784C969.216 64.3736 961.835 56.9927 952.73 56.9927C943.626 56.9927 936.245 64.3736 936.245 73.4784C936.245 82.5832 943.626 89.9641 952.73 89.9641ZM952.731 86.0393C959.668 86.0393 965.292 80.4158 965.292 73.4788C965.292 66.5418 959.668 60.9182 952.731 60.9182C945.794 60.9182 940.17 66.5418 940.17 73.4788C940.17 80.4158 945.794 86.0393 952.731 86.0393Z" fill="white"/>
<path opacity="0.75" fill-rule="evenodd" clip-rule="evenodd" d="M963.643 34.7695C978.774 34.7695 991.041 22.5029 991.041 7.3713C991.041 -7.76028 978.774 -20.0269 963.643 -20.0269C948.511 -20.0269 936.245 -7.76028 936.245 7.3713C936.245 22.5029 948.511 34.7695 963.643 34.7695ZM963.644 28.246C975.173 28.246 984.519 18.9 984.519 7.37115C984.519 -4.1577 975.173 -13.5037 963.644 -13.5037C952.115 -13.5037 942.769 -4.1577 942.769 7.37115C942.769 18.9 952.115 28.246 963.644 28.246Z" fill="white"/>
<path fill-rule="evenodd" clip-rule="evenodd" d="M842.984 89.9639C848.114 89.9639 852.273 85.805 852.273 80.6748C852.273 75.5446 848.114 71.3857 842.984 71.3857C837.854 71.3857 833.695 75.5446 833.695 80.6748C833.695 85.805 837.854 89.9639 842.984 89.9639ZM842.984 87.7525C846.893 87.7525 850.061 84.5838 850.061 80.6751C850.061 76.7663 846.893 73.5977 842.984 73.5977C839.075 73.5977 835.906 76.7663 835.906 80.6751C835.906 84.5838 839.075 87.7525 842.984 87.7525Z" fill="white" fill-opacity="0.5"/>
<g opacity="0.65">
<line x1="842.415" y1="43.0224" x2="856.143" y2="52.2629" stroke="white" stroke-width="3" stroke-linecap="round"/>
<path d="M853.899 40.7756L845.74 52.8979" stroke="white" stroke-width="3" stroke-linecap="round"/>
</g>
<path opacity="0.35" d="M875.071 95.0824L877.807 102.723M880.259 97.5343L872.488 100.318" stroke="white" stroke-linecap="round"/>
<path opacity="0.5" d="M925.13 16.856L919.392 22.5944M925.13 22.5945L919.293 16.7573" stroke="white" stroke-linecap="round"/>
<defs>
<linearGradient id="paint0_linear" x1="124.822" y1="-85.2496" x2="465.073" y2="404.17" gradientUnits="userSpaceOnUse">
<stop stop-color="#242424"/>
<stop offset="0.921875" stop-color="#3E70DF"/>
</linearGradient>
<linearGradient id="paint1_linear" x1="124.822" y1="-85.2496" x2="465.073" y2="404.17" gradientUnits="userSpaceOnUse">
<stop stop-color="#242424"/>
<stop offset="0.921875" stop-color="#3E70DF"/>
</linearGradient>
<linearGradient id="paint2_linear" x1="783.78" y1="117.768" x2="567.733" y2="15.0071" gradientUnits="userSpaceOnUse">
<stop offset="0.015625" stop-color="#C4C4C4" stop-opacity="0"/>
<stop offset="0.213542" stop-color="#C4C4C4" stop-opacity="0.897597"/>
<stop offset="0.458333" stop-color="#C4C4C4"/>
<stop offset="0.75" stop-color="#C4C4C4" stop-opacity="0.817242"/>
<stop offset="0.923278" stop-color="#C4C4C4" stop-opacity="0"/>
</linearGradient>
<linearGradient id="paint3_linear" x1="807.075" y1="120.6" x2="549.005" y2="-9.04155" gradientUnits="userSpaceOnUse">
<stop offset="0.015625" stop-color="#C4C4C4" stop-opacity="0"/>
<stop offset="0.213542" stop-color="#C4C4C4" stop-opacity="0.897597"/>
<stop offset="0.458333" stop-color="#C4C4C4"/>
<stop offset="0.75" stop-color="#C4C4C4" stop-opacity="0.817242"/>
<stop offset="0.923278" stop-color="#C4C4C4" stop-opacity="0"/>
</linearGradient>
<linearGradient id="paint4_linear" x1="783.78" y1="117.769" x2="567.733" y2="15.008" gradientUnits="userSpaceOnUse">
<stop offset="0.015625" stop-opacity="0"/>
<stop offset="0.213542" stop-opacity="0.897597"/>
<stop offset="0.458333"/>
<stop offset="0.863963" stop-opacity="0.817242"/>
<stop offset="0.973801" stop-opacity="0"/>
</linearGradient>
<linearGradient id="paint5_linear" x1="824.087" y1="122.727" x2="544.022" y2="-13.8747" gradientUnits="userSpaceOnUse">
<stop offset="0.015625" stop-opacity="0"/>
<stop offset="0.213542" stop-opacity="0.897597"/>
<stop offset="0.458333"/>
<stop offset="0.818031" stop-opacity="0.817242"/>
<stop offset="0.96152" stop-opacity="0"/>
</linearGradient>
<linearGradient id="paint6_linear" x1="183.818" y1="100.39" x2="58.2042" y2="12.0251" gradientUnits="userSpaceOnUse">
<stop offset="0.015625" stop-opacity="0"/>
<stop offset="0.213542" stop-opacity="0.897597"/>
<stop offset="0.458333"/>
<stop offset="0.818031" stop-opacity="0.817242"/>
<stop offset="0.96152" stop-opacity="0"/>
</linearGradient>
<linearGradient id="paint7_linear" x1="137.033" y1="94.1532" x2="69.66" y2="55.1159" gradientUnits="userSpaceOnUse">
<stop offset="0.015625" stop-opacity="0"/>
<stop offset="0.213542" stop-opacity="0.897597"/>
<stop offset="0.458333"/>
<stop offset="0.818031" stop-opacity="0.817242"/>
<stop offset="0.96152" stop-opacity="0"/>
</linearGradient>
<linearGradient id="paint8_linear" x1="165.818" y1="96.2918" x2="93.3742" y2="6.82124" gradientUnits="userSpaceOnUse">
<stop offset="0.015625" stop-opacity="0"/>
<stop offset="0.213542" stop-opacity="0.897597"/>
<stop offset="0.458333"/>
<stop offset="0.755914" stop-opacity="0.817242"/>
<stop offset="0.96152" stop-opacity="0"/>
</linearGradient>
<linearGradient id="paint9_linear" x1="735.133" y1="93.8955" x2="724.129" y2="34.7225" gradientUnits="userSpaceOnUse">
<stop stop-color="#FF6B5C"/>
<stop offset="1" stop-color="#FEBA61"/>
</linearGradient>
<linearGradient id="paint10_linear" x1="691.856" y1="49.1293" x2="679.45" y2="78.5389" gradientUnits="userSpaceOnUse">
<stop stop-color="white"/>
<stop offset="1" stop-color="white" stop-opacity="0"/>
</linearGradient>
<linearGradient id="paint11_linear" x1="754.1" y1="87.8354" x2="645.638" y2="54.128" gradientUnits="userSpaceOnUse">
<stop stop-color="#FF6B5C"/>
<stop offset="1" stop-color="#FEBA61"/>
</linearGradient>
</defs>
</svg>
