<svg fill="none" xmlns="http://www.w3.org/2000/svg">
<g style="mix-blend-mode:multiply" opacity="0.15">
<path d="M196.63 105.155C184.333 96.7413 174.76 69.5884 174.76 69.5884L38.5411 205.635L293.021 322.597L348.609 167.065L341.955 153.335C341.955 153.335 319.386 155.702 307.031 151.085C289.511 144.538 282.402 122.899 282.402 122.899C282.402 122.899 261.168 133.448 247.857 126.163C233.836 118.489 227.955 101.845 227.955 101.845C227.955 101.845 208.926 113.569 196.63 105.155Z" fill="url(#paint0_linear)"/>
<path d="M196.63 105.155C184.333 96.7413 174.76 69.5884 174.76 69.5884L38.5411 205.635L293.021 322.597L348.609 167.065L341.955 153.335C341.955 153.335 319.386 155.702 307.031 151.085C289.511 144.538 282.402 122.899 282.402 122.899C282.402 122.899 261.168 133.448 247.857 126.163C233.836 118.489 227.955 101.845 227.955 101.845C227.955 101.845 208.926 113.569 196.63 105.155Z" fill="url(#paint1_linear)"/>
</g>
<g style="mix-blend-mode:multiply" opacity="0.1">
<path d="M210.883 76.2317C198.586 67.8178 176.909 74.0019 176.909 74.0019L148.274 81.657L17.9841 212.724L299.4 365.128L374.184 147.057C374.184 147.057 355.045 152.07 342.591 153.188C337.718 144.528 324.721 124.594 315.789 119.947C299.952 111.707 282.401 122.899 282.401 122.899C282.401 122.899 274.548 104.606 261.238 97.3212C247.217 89.6469 227.955 101.845 227.955 101.845C227.955 101.845 223.18 84.6456 210.883 76.2317Z" fill="url(#paint2_linear)"/>
<path d="M210.883 76.2317C198.586 67.8178 176.909 74.0019 176.909 74.0019L148.274 81.657L17.9841 212.724L299.4 365.128L374.184 147.057C374.184 147.057 355.045 152.07 342.591 153.188C337.718 144.528 324.721 124.594 315.789 119.947C299.952 111.707 282.401 122.899 282.401 122.899C282.401 122.899 274.548 104.606 261.238 97.3212C247.217 89.6469 227.955 101.845 227.955 101.845C227.955 101.845 223.18 84.6456 210.883 76.2317Z" fill="url(#paint3_linear)"/>
</g>
<path d="M189.914 72.5629L188.695 96.2936M199.821 72.1524L192.287 100.796M210.025 75.9317L196.46 104.065M217.854 82.9742L201.153 106.504M222.823 90.9755L207.037 107.543M180.801 72.3302L185.282 91.6733M224.909 95.6609L214.446 106.338M233.108 98.3982L234.392 114.096M243.134 95.0822L238.085 118.738M252.7 94.8527L243.377 122.873M261.405 97.2781L249.911 126.285M268.441 102.149L257.441 127.822M273.754 107.999L267.307 126.997M278.529 115.525L277.541 123.637M301.188 117.079L287.854 131.793M308.169 117.596L293.298 140.52M314.286 119.651L300.857 147.121M319.375 123.176L309.887 151.455M321.11 153.302L323.979 127.284M327.308 130.919L332.191 153.581M337.751 145.166L347.866 152.057" stroke="black" stroke-linecap="round" stroke-linejoin="round"/>
<path d="M189.914 72.5629L188.695 96.2936M199.821 72.1524L192.287 100.796M210.025 75.9317L196.46 104.065M217.854 82.9742L201.153 106.504M222.823 90.9755L207.037 107.543M180.801 72.3302L185.282 91.6733M224.909 95.6609L214.446 106.338M233.108 98.3982L234.392 114.096M243.134 95.0822L238.085 118.738M252.7 94.8527L243.377 122.873M261.405 97.2781L249.911 126.285M268.441 102.149L257.441 127.822M273.754 107.999L267.307 126.997M278.529 115.525L277.541 123.637M301.188 117.079L287.854 131.793M308.169 117.596L293.298 140.52M314.286 119.651L300.857 147.121M319.375 123.176L309.887 151.455M321.11 153.302L323.979 127.284M327.308 130.919L332.191 153.581M337.751 145.166L347.866 152.057" stroke="url(#paint4_linear)" stroke-linecap="round" stroke-linejoin="round"/>
<path d="M189.914 72.5629L188.695 96.2936M199.821 72.1524L192.287 100.796M210.025 75.9317L196.46 104.065M217.854 82.9742L201.153 106.504M222.823 90.9755L207.037 107.543M180.801 72.3302L185.282 91.6733M224.909 95.6609L214.446 106.338M233.108 98.3982L234.392 114.096M243.134 95.0822L238.085 118.738M252.7 94.8527L243.377 122.873M261.405 97.2781L249.911 126.285M268.441 102.149L257.441 127.822M273.754 107.999L267.307 126.997M278.529 115.525L277.541 123.637M301.188 117.079L287.854 131.793M308.169 117.596L293.298 140.52M314.286 119.651L300.857 147.121M319.375 123.176L309.887 151.455M321.11 153.302L323.979 127.284M327.308 130.919L332.191 153.581M337.751 145.166L347.866 152.057" stroke="url(#paint5_linear)" stroke-linecap="round" stroke-linejoin="round"/>
<path d="M149.265 81.5371C149.265 81.5371 183.469 66.6159 204.142 73.2765C229.259 81.3688 223.903 115.602 248.293 125.792C272.521 135.915 291.845 107.512 314.993 120.039C333.778 130.204 347.309 165.081 347.309 165.081M175.5 70.2954C175.5 70.2954 183.345 94.9144 195.586 103.558C215.698 117.76 234.335 88.1057 257.537 95.8007C284.548 104.759 280.542 140.322 307.107 150.603C331.526 160.053 373.759 146.303 373.759 146.303" stroke="black" stroke-width="2" stroke-linecap="round" stroke-linejoin="round"/>
<path d="M149.265 81.5371C149.265 81.5371 183.469 66.6159 204.142 73.2765C229.259 81.3688 223.903 115.602 248.293 125.792C272.521 135.915 291.845 107.512 314.993 120.039C333.778 130.204 347.309 165.081 347.309 165.081M175.5 70.2954C175.5 70.2954 183.345 94.9144 195.586 103.558C215.698 117.76 234.335 88.1057 257.537 95.8007C284.548 104.759 280.542 140.322 307.107 150.603C331.526 160.053 373.759 146.303 373.759 146.303" stroke="url(#paint6_linear)" stroke-width="2" stroke-linecap="round" stroke-linejoin="round"/>
<path opacity="0.75" fill-rule="evenodd" clip-rule="evenodd" d="M390.921 74.7441C402.226 74.7441 411.39 65.58 411.39 54.2756C411.39 42.9712 402.226 33.8071 390.921 33.8071C379.617 33.8071 370.453 42.9712 370.453 54.2756C370.453 65.58 379.617 74.7441 390.921 74.7441ZM390.921 69.8707C399.534 69.8707 406.516 62.8885 406.516 54.2756C406.516 45.6627 399.534 38.6805 390.921 38.6805C382.308 38.6805 375.326 45.6627 375.326 54.2756C375.326 62.8885 382.308 69.8707 390.921 69.8707Z" fill="white"/>
<path opacity="0.5" fill-rule="evenodd" clip-rule="evenodd" d="M445.794 91.2292C454.899 91.2292 462.28 83.8483 462.28 74.7435C462.28 65.6387 454.899 58.2578 445.794 58.2578C436.689 58.2578 429.309 65.6387 429.309 74.7435C429.309 83.8483 436.689 91.2292 445.794 91.2292ZM445.795 87.3045C452.732 87.3045 458.356 81.6809 458.356 74.7439C458.356 67.8069 452.732 62.1834 445.795 62.1834C438.858 62.1834 433.234 67.8069 433.234 74.7439C433.234 81.6809 438.858 87.3045 445.795 87.3045Z" fill="white"/>
<path opacity="0.75" fill-rule="evenodd" clip-rule="evenodd" d="M456.707 36.0346C471.838 36.0346 484.105 23.768 484.105 8.63644C484.105 -6.49515 471.838 -18.7617 456.707 -18.7617C441.575 -18.7617 429.309 -6.49515 429.309 8.63644C429.309 23.768 441.575 36.0346 456.707 36.0346ZM456.708 29.5111C468.237 29.5111 477.583 20.1651 477.583 8.63628C477.583 -2.89256 468.237 -12.2385 456.708 -12.2385C445.179 -12.2385 435.833 -2.89256 435.833 8.63628C435.833 20.1651 445.179 29.5111 456.708 29.5111Z" fill="white"/>
<path fill-rule="evenodd" clip-rule="evenodd" d="M336.048 91.229C341.178 91.229 345.337 87.0702 345.337 81.94C345.337 76.8097 341.178 72.6509 336.048 72.6509C330.918 72.6509 326.759 76.8097 326.759 81.94C326.759 87.0702 330.918 91.229 336.048 91.229ZM336.048 89.0176C339.956 89.0176 343.125 85.849 343.125 81.9402C343.125 78.0315 339.956 74.8628 336.048 74.8628C332.139 74.8628 328.97 78.0315 328.97 81.9402C328.97 85.849 332.139 89.0176 336.048 89.0176Z" fill="white" fill-opacity="0.5"/>
<g opacity="0.65">
<line x1="335.479" y1="44.2876" x2="349.207" y2="53.528" stroke="white" stroke-width="3" stroke-linecap="round"/>
<path d="M346.963 42.0408L338.804 54.163" stroke="white" stroke-width="3" stroke-linecap="round"/>
</g>
<path opacity="0.35" d="M368.135 96.3476L370.871 103.988M373.323 98.7994L365.551 101.583" stroke="white" stroke-linecap="round"/>
<path opacity="0.5" d="M418.194 18.1211L412.455 23.8596M418.194 23.8596L412.356 18.0225" stroke="white" stroke-linecap="round"/>
<defs>
<linearGradient id="paint0_linear" x1="360.46" y1="168.778" x2="144.413" y2="66.0169" gradientUnits="userSpaceOnUse">
<stop offset="0.015625" stop-color="#C4C4C4" stop-opacity="0"/>
<stop offset="0.213542" stop-color="#C4C4C4" stop-opacity="0.897597"/>
<stop offset="0.458333" stop-color="#C4C4C4"/>
<stop offset="0.75" stop-color="#C4C4C4" stop-opacity="0.817242"/>
<stop offset="0.923278" stop-color="#C4C4C4" stop-opacity="0"/>
</linearGradient>
<linearGradient id="paint1_linear" x1="383.755" y1="171.61" x2="125.685" y2="41.9682" gradientUnits="userSpaceOnUse">
<stop offset="0.015625" stop-color="#C4C4C4" stop-opacity="0"/>
<stop offset="0.213542" stop-color="#C4C4C4" stop-opacity="0.897597"/>
<stop offset="0.458333" stop-color="#C4C4C4"/>
<stop offset="0.75" stop-color="#C4C4C4" stop-opacity="0.817242"/>
<stop offset="0.923278" stop-color="#C4C4C4" stop-opacity="0"/>
</linearGradient>
<linearGradient id="paint2_linear" x1="360.46" y1="168.779" x2="144.413" y2="66.0177" gradientUnits="userSpaceOnUse">
<stop offset="0.015625" stop-opacity="0"/>
<stop offset="0.213542" stop-opacity="0.897597"/>
<stop offset="0.458333"/>
<stop offset="0.863963" stop-opacity="0.817242"/>
<stop offset="0.973801" stop-opacity="0"/>
</linearGradient>
<linearGradient id="paint3_linear" x1="400.767" y1="173.737" x2="120.702" y2="37.1351" gradientUnits="userSpaceOnUse">
<stop offset="0.015625" stop-opacity="0"/>
<stop offset="0.213542" stop-opacity="0.897597"/>
<stop offset="0.458333"/>
<stop offset="0.818031" stop-opacity="0.817242"/>
<stop offset="0.96152" stop-opacity="0"/>
</linearGradient>
<linearGradient id="paint4_linear" x1="312.254" y1="145.239" x2="301.251" y2="86.066" gradientUnits="userSpaceOnUse">
<stop stop-color="#FF6B5C"/>
<stop offset="1" stop-color="#FEBA61"/>
</linearGradient>
<linearGradient id="paint5_linear" x1="268.978" y1="100.473" x2="256.571" y2="129.882" gradientUnits="userSpaceOnUse">
<stop stop-color="white"/>
<stop offset="1" stop-color="white" stop-opacity="0"/>
</linearGradient>
<linearGradient id="paint6_linear" x1="331.222" y1="139.179" x2="222.76" y2="105.472" gradientUnits="userSpaceOnUse">
<stop stop-color="#FF6B5C"/>
<stop offset="1" stop-color="#FEBA61"/>
</linearGradient>
</defs>
</svg>
