<svg fill="none" xmlns="http://www.w3.org/2000/svg">
<path d="M0 -74.4409H767.528V272.721C767.619 280.602 767.528 285.607 767.528 285.607V272.721C767.147 239.732 763.577 156.338 736.794 178.514C708.668 201.802 701.742 160.104 666.562 150.771C641.137 144.026 642.736 137.67 621.156 124.431C592.153 106.638 513.884 123.945 505.197 113.149C488.044 91.832 397.669 96.0954 397.669 96.0954H34.2805C4.24332e-05 96.0954 5.30414e-05 134.711 5.30414e-05 134.711L0 -74.4409Z" fill="url(#paint0_linear)"/>
<mask id="mask0" mask-type="alpha" maskUnits="userSpaceOnUse" x="0" y="-75" width="768" height="361">
<path d="M0 -74.4409H767.528V272.721C767.619 280.602 767.528 285.607 767.528 285.607V272.721C767.147 239.732 763.577 156.338 736.794 178.514C708.668 201.802 701.742 160.104 666.562 150.771C641.137 144.026 642.736 137.67 621.156 124.431C592.153 106.638 513.884 123.945 505.197 113.149C488.044 91.832 397.669 96.0954 397.669 96.0954H34.2805C4.24332e-05 96.0954 5.30414e-05 134.711 5.30414e-05 134.711L0 -74.4409Z" fill="url(#paint1_linear)"/>
</mask>
<g mask="url(#mask0)">
<g style="mix-blend-mode:multiply" opacity="0.15">
<path d="M530.819 63.482C521.596 57.1716 514.417 36.8069 514.417 36.8069L412.253 138.842L603.113 226.563L644.803 109.915L639.813 99.617C639.813 99.617 622.887 101.392 613.62 97.9295C600.48 93.0193 595.148 76.7895 595.148 76.7895C595.148 76.7895 579.223 84.7017 569.24 79.238C558.724 73.4824 554.313 60.9995 554.313 60.9995C554.313 60.9995 540.042 69.7924 530.819 63.482Z" fill="url(#paint2_linear)"/>
<path d="M530.819 63.482C521.596 57.1716 514.417 36.8069 514.417 36.8069L412.253 138.842L603.113 226.563L644.803 109.915L639.813 99.617C639.813 99.617 622.887 101.392 613.62 97.9295C600.48 93.0193 595.148 76.7895 595.148 76.7895C595.148 76.7895 579.223 84.7017 569.24 79.238C558.724 73.4824 554.313 60.9995 554.313 60.9995C554.313 60.9995 540.042 69.7924 530.819 63.482Z" fill="url(#paint3_linear)"/>
</g>
<g style="mix-blend-mode:multiply" opacity="0.1">
<path d="M541.509 41.7894C532.287 35.479 516.029 40.1171 516.029 40.1171L494.552 45.8584L396.835 144.159L607.897 258.462L663.985 94.9088C663.985 94.9088 649.631 98.6684 640.291 99.5064C636.636 93.0119 626.888 78.0613 620.189 74.576C608.311 68.3958 595.148 76.7896 595.148 76.7896C595.148 76.7896 589.258 63.0702 579.276 57.6065C568.759 51.8509 554.313 60.9995 554.313 60.9995C554.313 60.9995 550.732 48.0998 541.509 41.7894Z" fill="url(#paint4_linear)"/>
<path d="M541.509 41.7894C532.287 35.479 516.029 40.1171 516.029 40.1171L494.552 45.8584L396.835 144.159L607.897 258.462L663.985 94.9088C663.985 94.9088 649.631 98.6684 640.291 99.5064C636.636 93.0119 626.888 78.0613 620.189 74.576C608.311 68.3958 595.148 76.7896 595.148 76.7896C595.148 76.7896 589.258 63.0702 579.276 57.6065C568.759 51.8509 554.313 60.9995 554.313 60.9995C554.313 60.9995 550.732 48.0998 541.509 41.7894Z" fill="url(#paint5_linear)"/>
</g>
<g style="mix-blend-mode:multiply" opacity="0.15">
<path d="M31.9529 43.5151L148.212 55.9626L10.1556 141.869L-87.6667 79.1352L31.9529 43.5151Z" fill="url(#paint6_linear)"/>
<path d="M32.4846 66.9074L96.8134 81.0022L-18.5531 141.869L-96.1726 110.502L32.4846 66.9074Z" fill="url(#paint7_linear)"/>
<path d="M98.4085 32.8823C98.4085 32.8823 86.9065 57.8312 95.2181 69.5656C104.552 82.7439 136.155 75.4136 136.155 75.4136L44.181 140.274L-41.4136 62.1224L98.4085 32.8823Z" fill="url(#paint8_linear)"/>
</g>
</g>
<path d="M525.451 38.7877L524.537 56.5858M532.882 38.4799L527.231 59.9624M540.534 41.3143L530.361 62.4146M546.406 46.5962L533.881 64.2438M550.133 52.5971L538.294 65.0228M518.617 38.6132L521.977 53.1205M551.697 56.1112L543.85 64.1191M557.847 58.1642L558.81 69.9375M565.366 55.6772L561.579 73.4187M572.541 55.5051L565.549 76.5203M579.069 57.3241L570.449 79.0794M584.346 60.9773L576.097 80.2318M588.331 65.3647L583.496 79.6132M591.913 71.0093L591.171 77.0936M608.907 72.1746L598.906 83.2106M614.142 72.5625L602.99 89.7557M618.73 74.1041L608.659 94.7061M622.547 76.7477L615.431 97.9566M623.848 99.3421L626 79.8283M628.497 82.5547L632.159 99.5512M636.329 93.24L643.915 98.4085" stroke="black" stroke-linecap="round" stroke-linejoin="round"/>
<path d="M525.451 38.7877L524.537 56.5858M532.882 38.4799L527.231 59.9624M540.534 41.3143L530.361 62.4146M546.406 46.5962L533.881 64.2438M550.133 52.5971L538.294 65.0228M518.617 38.6132L521.977 53.1205M551.697 56.1112L543.85 64.1191M557.847 58.1642L558.81 69.9375M565.366 55.6772L561.579 73.4187M572.541 55.5051L565.549 76.5203M579.069 57.3241L570.449 79.0794M584.346 60.9773L576.097 80.2318M588.331 65.3647L583.496 79.6132M591.913 71.0093L591.171 77.0936M608.907 72.1746L598.906 83.2106M614.142 72.5625L602.99 89.7557M618.73 74.1041L608.659 94.7061M622.547 76.7477L615.431 97.9566M623.848 99.3421L626 79.8283M628.497 82.5547L632.159 99.5512M636.329 93.24L643.915 98.4085" stroke="url(#paint9_linear)" stroke-linecap="round" stroke-linejoin="round"/>
<path d="M525.451 38.7877L524.537 56.5858M532.882 38.4799L527.231 59.9624M540.534 41.3143L530.361 62.4146M546.406 46.5962L533.881 64.2438M550.133 52.5971L538.294 65.0228M518.617 38.6132L521.977 53.1205M551.697 56.1112L543.85 64.1191M557.847 58.1642L558.81 69.9375M565.366 55.6772L561.579 73.4187M572.541 55.5051L565.549 76.5203M579.069 57.3241L570.449 79.0794M584.346 60.9773L576.097 80.2318M588.331 65.3647L583.496 79.6132M591.913 71.0093L591.171 77.0936M608.907 72.1746L598.906 83.2106M614.142 72.5625L602.99 89.7557M618.73 74.1041L608.659 94.7061M622.547 76.7477L615.431 97.9566M623.848 99.3421L626 79.8283M628.497 82.5547L632.159 99.5512M636.329 93.24L643.915 98.4085" stroke="url(#paint10_linear)" stroke-linecap="round" stroke-linejoin="round"/>
<path d="M494.965 45.5183C494.965 45.5183 520.617 34.3274 536.122 39.3229C554.96 45.392 550.943 71.0673 569.235 78.7097C587.406 86.3017 601.899 64.9997 619.261 74.3945C633.349 82.0181 643.498 108.176 643.498 108.176M514.641 37.087C514.641 37.087 520.524 55.5513 529.705 62.0342C544.789 72.6852 558.767 50.4448 576.168 56.216C596.427 62.9349 593.422 89.6068 613.346 97.3176C631.66 104.406 663.335 94.0927 663.335 94.0927" stroke="black" stroke-width="2" stroke-linecap="round" stroke-linejoin="round"/>
<path d="M494.965 45.5183C494.965 45.5183 520.617 34.3274 536.122 39.3229C554.96 45.392 550.943 71.0673 569.235 78.7097C587.406 86.3017 601.899 64.9997 619.261 74.3945C633.349 82.0181 643.498 108.176 643.498 108.176M514.641 37.087C514.641 37.087 520.524 55.5513 529.705 62.0342C544.789 72.6852 558.767 50.4448 576.168 56.216C596.427 62.9349 593.422 89.6068 613.346 97.3176C631.66 104.406 663.335 94.0927 663.335 94.0927" stroke="url(#paint11_linear)" stroke-width="2" stroke-linecap="round" stroke-linejoin="round"/>
<path opacity="0.75" d="M147.712 49.6984C147.712 65.4604 134.935 78.2381 119.172 78.2381C103.41 78.2381 90.6328 65.4604 90.6328 49.6984C90.6328 33.9363 103.41 21.1587 119.172 21.1587C134.935 21.1587 147.712 33.9363 147.712 49.6984ZM119.172 72.323C131.668 72.323 141.798 62.1932 141.798 49.6975C141.798 37.2017 131.668 27.0719 119.172 27.0719C106.676 27.0719 96.5466 37.2017 96.5466 49.6975C96.5466 62.1932 106.676 72.323 119.172 72.323Z" fill="black" stroke="black"/>
<mask id="mask1" mask-type="alpha" maskUnits="userSpaceOnUse" x="90" y="20" width="59" height="59">
<path d="M147.712 49.6984C147.712 65.4604 134.935 78.2381 119.172 78.2381C103.41 78.2381 90.6328 65.4604 90.6328 49.6984C90.6328 33.9363 103.41 21.1587 119.172 21.1587C134.935 21.1587 147.712 33.9363 147.712 49.6984ZM119.172 72.323C131.668 72.323 141.798 62.1932 141.798 49.6975C141.798 37.2017 131.668 27.0719 119.172 27.0719C106.676 27.0719 96.5466 37.2017 96.5466 49.6975C96.5466 62.1932 106.676 72.323 119.172 72.323Z" fill="#595959" stroke="#595959"/>
</mask>
<g mask="url(#mask1)">
<circle cx="133.549" cy="69.6058" r="14.9512" fill="#5A85E3"/>
</g>
<path d="M46.6671 39.6985V53.6985H42.7871L37.4671 47.3385V53.6985H32.8671V39.6985H36.7471L42.0671 46.0585V39.6985H46.6671ZM60.7613 42.7585V53.6985H56.4613V52.6585C56.0613 53.0718 55.5946 53.3852 55.0613 53.5985C54.5279 53.7985 53.9613 53.8985 53.3613 53.8985C51.9746 53.8985 50.8613 53.4785 50.0213 52.6385C49.1813 51.7852 48.7613 50.5052 48.7613 48.7985V42.7585H53.2813V48.0185C53.2813 48.7652 53.4013 49.2985 53.6413 49.6185C53.8813 49.9385 54.2346 50.0985 54.7013 50.0985C55.1413 50.0985 55.5079 49.9252 55.8013 49.5785C56.0946 49.2185 56.2413 48.6585 56.2413 47.8985V42.7585H60.7613ZM68.6461 53.8985C67.4061 53.8985 66.2928 53.6585 65.3061 53.1785C64.3328 52.6985 63.5661 52.0252 63.0061 51.1585C62.4594 50.2918 62.1861 49.3118 62.1861 48.2185C62.1861 47.1252 62.4594 46.1518 63.0061 45.2985C63.5661 44.4318 64.3328 43.7585 65.3061 43.2785C66.2928 42.7985 67.4061 42.5585 68.6461 42.5585C69.9794 42.5585 71.1194 42.8452 72.0661 43.4185C73.0128 43.9918 73.6661 44.7852 74.0261 45.7985L70.5261 47.5185C70.0994 46.5585 69.4661 46.0785 68.6261 46.0785C68.0928 46.0785 67.6461 46.2652 67.2861 46.6385C66.9394 47.0118 66.7661 47.5385 66.7661 48.2185C66.7661 48.9118 66.9394 49.4452 67.2861 49.8185C67.6461 50.1918 68.0928 50.3785 68.6261 50.3785C69.4661 50.3785 70.0994 49.8985 70.5261 48.9385L74.0261 50.6585C73.6661 51.6718 73.0128 52.4652 72.0661 53.0385C71.1194 53.6118 69.9794 53.8985 68.6461 53.8985ZM75.0708 38.8585H79.5908V53.6985H75.0708V38.8585ZM93.2342 48.2185C93.2342 48.2852 93.2142 48.6385 93.1742 49.2785H85.5742C85.7342 49.6918 86.0009 50.0118 86.3742 50.2385C86.7476 50.4518 87.2142 50.5585 87.7742 50.5585C88.2542 50.5585 88.6542 50.4985 88.9742 50.3785C89.3076 50.2585 89.6676 50.0518 90.0542 49.7585L92.4142 52.1385C91.3476 53.3118 89.7542 53.8985 87.6342 53.8985C86.3142 53.8985 85.1542 53.6585 84.1542 53.1785C83.1542 52.6852 82.3809 52.0052 81.8342 51.1385C81.2876 50.2718 81.0142 49.2985 81.0142 48.2185C81.0142 47.1252 81.2809 46.1518 81.8142 45.2985C82.3609 44.4318 83.1009 43.7585 84.0342 43.2785C84.9809 42.7985 86.0409 42.5585 87.2142 42.5585C88.3209 42.5585 89.3276 42.7785 90.2342 43.2185C91.1542 43.6585 91.8809 44.3052 92.4142 45.1585C92.9609 46.0118 93.2342 47.0318 93.2342 48.2185ZM87.2542 45.6385C86.7876 45.6385 86.4009 45.7652 86.0942 46.0185C85.7876 46.2718 85.5876 46.6318 85.4942 47.0985H89.0142C88.9209 46.6452 88.7209 46.2918 88.4142 46.0385C88.1076 45.7718 87.7209 45.6385 87.2542 45.6385ZM100.441 53.8985C99.2273 53.8985 98.134 53.6585 97.1606 53.1785C96.2006 52.6852 95.4473 52.0118 94.9006 51.1585C94.354 50.2918 94.0806 49.3118 94.0806 48.2185C94.0806 47.1252 94.354 46.1518 94.9006 45.2985C95.4473 44.4318 96.2006 43.7585 97.1606 43.2785C98.134 42.7985 99.2273 42.5585 100.441 42.5585C101.667 42.5585 102.761 42.7985 103.721 43.2785C104.694 43.7585 105.447 44.4318 105.981 45.2985C106.527 46.1518 106.801 47.1252 106.801 48.2185C106.801 49.3118 106.527 50.2918 105.981 51.1585C105.447 52.0118 104.694 52.6852 103.721 53.1785C102.761 53.6585 101.667 53.8985 100.441 53.8985ZM100.441 50.3785C100.961 50.3785 101.387 50.1918 101.721 49.8185C102.054 49.4318 102.221 48.8985 102.221 48.2185C102.221 47.5385 102.054 47.0118 101.721 46.6385C101.387 46.2652 100.961 46.0785 100.441 46.0785C99.9206 46.0785 99.494 46.2652 99.1606 46.6385C98.8273 47.0118 98.6606 47.5385 98.6606 48.2185C98.6606 48.8985 98.8273 49.4318 99.1606 49.8185C99.494 50.1918 99.9206 50.3785 100.441 50.3785ZM116.275 53.3185C115.595 53.7052 114.669 53.8985 113.495 53.8985C111.962 53.8985 110.782 53.5318 109.955 52.7985C109.129 52.0518 108.715 50.9385 108.715 49.4585V46.6585H107.215V43.3585H108.715V40.2985H113.235V43.3585H115.475V46.6585H113.235V49.4185C113.235 49.7518 113.322 50.0118 113.495 50.1985C113.669 50.3852 113.895 50.4785 114.175 50.4785C114.562 50.4785 114.902 50.3785 115.195 50.1785L116.275 53.3185ZM117.415 42.7585H121.935V53.6985H117.415V42.7585ZM119.675 41.8785C118.861 41.8785 118.201 41.6652 117.695 41.2385C117.201 40.7985 116.955 40.2452 116.955 39.5785C116.955 38.9118 117.201 38.3652 117.695 37.9385C118.201 37.4985 118.861 37.2785 119.675 37.2785C120.501 37.2785 121.161 37.4852 121.655 37.8985C122.148 38.3118 122.395 38.8452 122.395 39.4985C122.395 40.1918 122.148 40.7652 121.655 41.2185C121.161 41.6585 120.501 41.8785 119.675 41.8785ZM136.038 38.8585V53.6985H131.738V52.7985C131.085 53.5318 130.085 53.8985 128.738 53.8985C127.778 53.8985 126.891 53.6718 126.078 53.2185C125.278 52.7518 124.638 52.0852 124.158 51.2185C123.691 50.3518 123.458 49.3518 123.458 48.2185C123.458 47.0852 123.691 46.0918 124.158 45.2385C124.638 44.3718 125.278 43.7118 126.078 43.2585C126.891 42.7918 127.778 42.5585 128.738 42.5585C129.951 42.5585 130.878 42.8718 131.518 43.4985V38.8585H136.038ZM129.818 50.3785C130.338 50.3785 130.765 50.1918 131.098 49.8185C131.431 49.4318 131.598 48.8985 131.598 48.2185C131.598 47.5385 131.431 47.0118 131.098 46.6385C130.765 46.2652 130.338 46.0785 129.818 46.0785C129.298 46.0785 128.871 46.2652 128.538 46.6385C128.205 47.0118 128.038 47.5385 128.038 48.2185C128.038 48.8985 128.205 49.4318 128.538 49.8185C128.871 50.1918 129.298 50.3785 129.818 50.3785ZM149.68 48.2185C149.68 48.2852 149.66 48.6385 149.62 49.2785H142.02C142.18 49.6918 142.446 50.0118 142.82 50.2385C143.193 50.4518 143.66 50.5585 144.22 50.5585C144.7 50.5585 145.1 50.4985 145.42 50.3785C145.753 50.2585 146.113 50.0518 146.5 49.7585L148.86 52.1385C147.793 53.3118 146.2 53.8985 144.08 53.8985C142.76 53.8985 141.6 53.6585 140.6 53.1785C139.6 52.6852 138.826 52.0052 138.28 51.1385C137.733 50.2718 137.46 49.2985 137.46 48.2185C137.46 47.1252 137.726 46.1518 138.26 45.2985C138.806 44.4318 139.546 43.7585 140.48 43.2785C141.426 42.7985 142.486 42.5585 143.66 42.5585C144.766 42.5585 145.773 42.7785 146.68 43.2185C147.6 43.6585 148.326 44.3052 148.86 45.1585C149.406 46.0118 149.68 47.0318 149.68 48.2185ZM143.7 45.6385C143.233 45.6385 142.846 45.7652 142.54 46.0185C142.233 46.2718 142.033 46.6318 141.94 47.0985H145.46C145.366 46.6452 145.166 46.2918 144.86 46.0385C144.553 45.7718 144.166 45.6385 143.7 45.6385ZM44.0671 70.3785C44.8937 70.6852 45.5337 71.1318 45.9871 71.7185C46.4404 72.3052 46.6671 73.0118 46.6671 73.8385C46.6671 75.0652 46.1604 76.0185 45.1471 76.6985C44.1337 77.3652 42.6671 77.6985 40.7471 77.6985H32.8671V63.6985H40.3471C42.2137 63.6985 43.6204 64.0318 44.5671 64.6985C45.5271 65.3652 46.0071 66.2518 46.0071 67.3585C46.0071 68.0118 45.8404 68.5985 45.5071 69.1185C45.1871 69.6385 44.7071 70.0585 44.0671 70.3785ZM37.5071 66.9985V69.0785H39.7071C40.7337 69.0785 41.2471 68.7318 41.2471 68.0385C41.2471 67.3452 40.7337 66.9985 39.7071 66.9985H37.5071ZM40.3471 74.3985C41.3871 74.3985 41.9071 74.0318 41.9071 73.2985C41.9071 72.5652 41.3871 72.1985 40.3471 72.1985H37.5071V74.3985H40.3471ZM48.3358 63.6985H53.0558V74.0385H59.3758V77.6985H48.3358V63.6985ZM70.4149 75.2585H65.0949L64.1549 77.6985H59.3549L65.4749 63.6985H70.1149L76.2349 77.6985H71.3549L70.4149 75.2585ZM69.1149 71.8585L67.7549 68.3385L66.3949 71.8585H69.1149ZM82.2081 78.0185C81.0481 78.0185 79.9148 77.8918 78.8081 77.6385C77.7148 77.3718 76.8148 77.0185 76.1081 76.5785L77.6281 73.1385C78.2948 73.5252 79.0415 73.8385 79.8681 74.0785C80.6948 74.3052 81.4881 74.4185 82.2481 74.4185C82.9015 74.4185 83.3681 74.3585 83.6481 74.2385C83.9281 74.1052 84.0681 73.9118 84.0681 73.6585C84.0681 73.3652 83.8815 73.1452 83.5081 72.9985C83.1481 72.8518 82.5481 72.6918 81.7081 72.5185C80.6281 72.2918 79.7281 72.0518 79.0081 71.7985C78.2881 71.5318 77.6615 71.1052 77.1281 70.5185C76.5948 69.9185 76.3281 69.1118 76.3281 68.0985C76.3281 67.2185 76.5748 66.4185 77.0681 65.6985C77.5615 64.9785 78.2948 64.4118 79.2681 63.9985C80.2548 63.5852 81.4481 63.3785 82.8481 63.3785C83.8081 63.3785 84.7481 63.4852 85.6681 63.6985C86.6015 63.8985 87.4215 64.1985 88.1281 64.5985L86.7081 68.0185C85.3348 67.3252 84.0348 66.9785 82.8081 66.9785C81.5948 66.9785 80.9881 67.2718 80.9881 67.8585C80.9881 68.1385 81.1681 68.3518 81.5281 68.4985C81.8881 68.6318 82.4815 68.7785 83.3081 68.9385C84.3748 69.1385 85.2748 69.3718 86.0081 69.6385C86.7415 69.8918 87.3748 70.3118 87.9081 70.8985C88.4548 71.4852 88.7281 72.2852 88.7281 73.2985C88.7281 74.1785 88.4815 74.9785 87.9881 75.6985C87.4948 76.4052 86.7548 76.9718 85.7681 77.3985C84.7948 77.8118 83.6081 78.0185 82.2081 78.0185ZM92.9774 67.3585H88.8774V63.6985H101.797V67.3585H97.6974V77.6985H92.9774V67.3585Z" fill="white"/>
<path opacity="0.75" fill-rule="evenodd" clip-rule="evenodd" d="M679.378 41.0579C686.176 41.0579 691.687 35.5468 691.687 28.7484C691.687 21.9501 686.176 16.439 679.378 16.439C672.579 16.439 667.068 21.9501 667.068 28.7484C667.068 35.5468 672.579 41.0579 679.378 41.0579ZM679.378 38.1269C684.557 38.1269 688.756 33.9279 688.756 28.7482C688.756 23.5685 684.557 19.3695 679.378 19.3695C674.198 19.3695 669.999 23.5685 669.999 28.7482C669.999 33.9279 674.198 38.1269 679.378 38.1269Z" fill="white"/>
<path opacity="0.5" fill-rule="evenodd" clip-rule="evenodd" d="M712.378 50.9719C717.853 50.9719 722.292 46.5331 722.292 41.0576C722.292 35.5821 717.853 31.1433 712.378 31.1433C706.902 31.1433 702.463 35.5821 702.463 41.0576C702.463 46.5331 706.902 50.9719 712.378 50.9719ZM712.378 48.6118C716.55 48.6118 719.932 45.2298 719.932 41.058C719.932 36.8862 716.55 33.5043 712.378 33.5043C708.206 33.5043 704.824 36.8862 704.824 41.058C704.824 45.2298 708.206 48.6118 712.378 48.6118Z" fill="white"/>
<path opacity="0.75" fill-rule="evenodd" clip-rule="evenodd" d="M718.94 17.7785C728.04 17.7785 735.417 10.4015 735.417 1.30159C735.417 -7.79834 728.04 -15.1753 718.94 -15.1753C709.84 -15.1753 702.463 -7.79834 702.463 1.30159C702.463 10.4015 709.84 17.7785 718.94 17.7785ZM718.941 13.8554C725.874 13.8554 731.495 8.23483 731.495 1.30153C731.495 -5.63176 725.874 -11.2523 718.941 -11.2523C712.008 -11.2523 706.387 -5.63176 706.387 1.30153C706.387 8.23483 712.008 13.8554 718.941 13.8554Z" fill="white"/>
<path fill-rule="evenodd" clip-rule="evenodd" d="M646.378 50.9717C649.463 50.9717 651.964 48.4706 651.964 45.3854C651.964 42.3002 649.463 39.7991 646.378 39.7991C643.293 39.7991 640.792 42.3002 640.792 45.3854C640.792 48.4706 643.293 50.9717 646.378 50.9717ZM646.378 49.6419C648.728 49.6419 650.634 47.7364 650.634 45.3857C650.634 43.035 648.728 41.1294 646.378 41.1294C644.027 41.1294 642.121 43.035 642.121 45.3857C642.121 47.7364 644.027 49.6419 646.378 49.6419Z" fill="white" fill-opacity="0.5"/>
<g opacity="0.65">
<line x1="646.866" y1="22.5791" x2="654.13" y2="27.4684" stroke="white" stroke-width="3" stroke-linecap="round"/>
<path d="M652.942 21.3906L648.035 28.6808" stroke="white" stroke-width="3" stroke-linecap="round"/>
</g>
<path opacity="0.35" d="M665.674 54.0498L667.32 58.6444M668.795 55.5243L664.121 57.1984" stroke="white" stroke-linecap="round"/>
<path opacity="0.5" d="M695.779 7.00562L692.328 10.4567M695.779 10.4567L692.269 6.94629" stroke="white" stroke-linecap="round"/>
<defs>
<linearGradient id="paint0_linear" x1="93.6162" y1="-83.915" x2="414.462" y2="301.23" gradientUnits="userSpaceOnUse">
<stop stop-color="#242424"/>
<stop offset="0.921875" stop-color="#3E70DF"/>
</linearGradient>
<linearGradient id="paint1_linear" x1="93.6162" y1="-83.915" x2="414.462" y2="301.23" gradientUnits="userSpaceOnUse">
<stop stop-color="#242424"/>
<stop offset="0.921875" stop-color="#3E70DF"/>
</linearGradient>
<linearGradient id="paint2_linear" x1="653.692" y1="111.199" x2="491.657" y2="34.1283" gradientUnits="userSpaceOnUse">
<stop offset="0.015625" stop-color="#C4C4C4" stop-opacity="0"/>
<stop offset="0.213542" stop-color="#C4C4C4" stop-opacity="0.897597"/>
<stop offset="0.458333" stop-color="#C4C4C4"/>
<stop offset="0.75" stop-color="#C4C4C4" stop-opacity="0.817242"/>
<stop offset="0.923278" stop-color="#C4C4C4" stop-opacity="0"/>
</linearGradient>
<linearGradient id="paint3_linear" x1="671.163" y1="113.323" x2="477.61" y2="16.0918" gradientUnits="userSpaceOnUse">
<stop offset="0.015625" stop-color="#C4C4C4" stop-opacity="0"/>
<stop offset="0.213542" stop-color="#C4C4C4" stop-opacity="0.897597"/>
<stop offset="0.458333" stop-color="#C4C4C4"/>
<stop offset="0.75" stop-color="#C4C4C4" stop-opacity="0.817242"/>
<stop offset="0.923278" stop-color="#C4C4C4" stop-opacity="0"/>
</linearGradient>
<linearGradient id="paint4_linear" x1="653.692" y1="111.2" x2="491.657" y2="34.129" gradientUnits="userSpaceOnUse">
<stop offset="0.015625" stop-opacity="0"/>
<stop offset="0.213542" stop-opacity="0.897597"/>
<stop offset="0.458333"/>
<stop offset="0.863963" stop-opacity="0.817242"/>
<stop offset="0.973801" stop-opacity="0"/>
</linearGradient>
<linearGradient id="paint5_linear" x1="683.922" y1="114.918" x2="473.873" y2="12.467" gradientUnits="userSpaceOnUse">
<stop offset="0.015625" stop-opacity="0"/>
<stop offset="0.213542" stop-opacity="0.897597"/>
<stop offset="0.458333"/>
<stop offset="0.818031" stop-opacity="0.817242"/>
<stop offset="0.96152" stop-opacity="0"/>
</linearGradient>
<linearGradient id="paint6_linear" x1="136.155" y1="86.0465" x2="40.9908" y2="20.1229" gradientUnits="userSpaceOnUse">
<stop offset="0.015625" stop-opacity="0"/>
<stop offset="0.213542" stop-opacity="0.897597"/>
<stop offset="0.458333"/>
<stop offset="0.818031" stop-opacity="0.817242"/>
<stop offset="0.96152" stop-opacity="0"/>
</linearGradient>
<linearGradient id="paint7_linear" x1="101.066" y1="81.0022" x2="50.0282" y2="52.0214" gradientUnits="userSpaceOnUse">
<stop offset="0.015625" stop-opacity="0"/>
<stop offset="0.213542" stop-opacity="0.897597"/>
<stop offset="0.458333"/>
<stop offset="0.818031" stop-opacity="0.817242"/>
<stop offset="0.96152" stop-opacity="0"/>
</linearGradient>
<linearGradient id="paint8_linear" x1="136.155" y1="79.6668" x2="85.6486" y2="26.5026" gradientUnits="userSpaceOnUse">
<stop offset="0.015625" stop-opacity="0"/>
<stop offset="0.213542" stop-opacity="0.897597"/>
<stop offset="0.458333"/>
<stop offset="0.755914" stop-opacity="0.817242"/>
<stop offset="0.96152" stop-opacity="0"/>
</linearGradient>
<linearGradient id="paint9_linear" x1="617.206" y1="93.2948" x2="608.954" y2="48.915" gradientUnits="userSpaceOnUse">
<stop stop-color="#FF6B5C"/>
<stop offset="1" stop-color="#FEBA61"/>
</linearGradient>
<linearGradient id="paint10_linear" x1="584.749" y1="59.7202" x2="575.444" y2="81.7774" gradientUnits="userSpaceOnUse">
<stop stop-color="white"/>
<stop offset="1" stop-color="white" stop-opacity="0"/>
</linearGradient>
<linearGradient id="paint11_linear" x1="631.432" y1="88.7498" x2="550.086" y2="63.4693" gradientUnits="userSpaceOnUse">
<stop stop-color="#FF6B5C"/>
<stop offset="1" stop-color="#FEBA61"/>
</linearGradient>
</defs>
</svg>
