<svg fill="none" xmlns="http://www.w3.org/2000/svg">
<g opacity="0.25" filter="url(#filter0_f)">
<path d="M46.3343 21.8936L162.982 29.9795L-12.2358 125.056L-183.825 45.9513L46.3343 21.8936Z" fill="url(#paint0_angular)"/>
</g>
<g opacity="0.25" filter="url(#filter1_f)">
<path d="M47.7631 40.3057L111.767 54.4083L-51.4979 116.785L-132.317 81.5288L47.7631 40.3057Z" fill="url(#paint1_angular)"/>
</g>
<g opacity="0.25" filter="url(#filter2_f)">
<path d="M120.141 10.6216C120.141 10.6216 102.647 30.76 116.928 47.945C132.968 67.2446 154.691 49.3957 154.691 49.3957L8.233 162.398L-138.843 47.945L120.141 10.6216Z" fill="url(#paint2_angular)"/>
</g>
<path opacity="0.75" d="M162.482 28.9606C162.482 44.3587 149.999 56.8413 134.601 56.8413C119.203 56.8413 106.72 44.3587 106.72 28.9606C106.72 13.5625 119.203 1.07983 134.601 1.07983C149.999 1.07983 162.482 13.5625 162.482 28.9606ZM134.601 51.0832C146.819 51.0832 156.724 41.1782 156.724 28.9597C156.724 16.7412 146.819 6.83623 134.601 6.83623C122.382 6.83623 112.477 16.7412 112.477 28.9597C112.477 41.1782 122.382 51.0832 134.601 51.0832Z" fill="black" stroke="black"/>
<mask id="mask0" mask-type="alpha" maskUnits="userSpaceOnUse" x="106" y="0" width="57" height="58">
<path d="M162.482 28.9606C162.482 44.3587 149.999 56.8413 134.601 56.8413C119.203 56.8413 106.72 44.3587 106.72 28.9606C106.72 13.5625 119.203 1.07983 134.601 1.07983C149.999 1.07983 162.482 13.5625 162.482 28.9606ZM134.601 51.0832C146.819 51.0832 156.724 41.1782 156.724 28.9597C156.724 16.7412 146.819 6.83623 134.601 6.83623C122.382 6.83623 112.477 16.7412 112.477 28.9597C112.477 41.1782 122.382 51.0832 134.601 51.0832Z" fill="#595959" stroke="#595959"/>
</mask>
<g mask="url(#mask0)">
<circle cx="148.651" cy="48.4162" r="14.612" fill="#5A85E3"/>
</g>
<path d="M61.2859 16.6216V30.6216H57.4059L52.0859 24.2616V30.6216H47.4859V16.6216H51.3659L56.6859 22.9816V16.6216H61.2859ZM75.3802 19.6816V30.6216H71.0802V29.5816C70.6802 29.9949 70.2135 30.3082 69.6802 30.5216C69.1468 30.7216 68.5802 30.8216 67.9802 30.8216C66.5935 30.8216 65.4802 30.4016 64.6402 29.5616C63.8002 28.7082 63.3802 27.4282 63.3802 25.7216V19.6816H67.9002V24.9416C67.9002 25.6882 68.0202 26.2216 68.2602 26.5416C68.5002 26.8616 68.8535 27.0216 69.3202 27.0216C69.7602 27.0216 70.1268 26.8482 70.4202 26.5016C70.7135 26.1416 70.8602 25.5816 70.8602 24.8216V19.6816H75.3802ZM83.265 30.8216C82.025 30.8216 80.9117 30.5816 79.925 30.1016C78.9517 29.6216 78.185 28.9482 77.625 28.0816C77.0783 27.2149 76.805 26.2349 76.805 25.1416C76.805 24.0482 77.0783 23.0749 77.625 22.2216C78.185 21.3549 78.9517 20.6816 79.925 20.2016C80.9117 19.7216 82.025 19.4816 83.265 19.4816C84.5983 19.4816 85.7383 19.7682 86.685 20.3416C87.6317 20.9149 88.285 21.7082 88.645 22.7216L85.145 24.4416C84.7183 23.4816 84.085 23.0016 83.245 23.0016C82.7117 23.0016 82.265 23.1882 81.905 23.5616C81.5583 23.9349 81.385 24.4616 81.385 25.1416C81.385 25.8349 81.5583 26.3682 81.905 26.7416C82.265 27.1149 82.7117 27.3016 83.245 27.3016C84.085 27.3016 84.7183 26.8216 85.145 25.8616L88.645 27.5816C88.285 28.5949 87.6317 29.3882 86.685 29.9616C85.7383 30.5349 84.5983 30.8216 83.265 30.8216ZM89.6897 15.7816H94.2097V30.6216H89.6897V15.7816ZM107.853 25.1416C107.853 25.2082 107.833 25.5616 107.793 26.2016H100.193C100.353 26.6149 100.62 26.9349 100.993 27.1616C101.366 27.3749 101.833 27.4816 102.393 27.4816C102.873 27.4816 103.273 27.4216 103.593 27.3016C103.926 27.1816 104.286 26.9749 104.673 26.6816L107.033 29.0616C105.966 30.2349 104.373 30.8216 102.253 30.8216C100.933 30.8216 99.7731 30.5816 98.7731 30.1016C97.7731 29.6082 96.9998 28.9282 96.4531 28.0616C95.9065 27.1949 95.6331 26.2216 95.6331 25.1416C95.6331 24.0482 95.8998 23.0749 96.4331 22.2216C96.9798 21.3549 97.7198 20.6816 98.6531 20.2016C99.5998 19.7216 100.66 19.4816 101.833 19.4816C102.94 19.4816 103.946 19.7016 104.853 20.1416C105.773 20.5816 106.5 21.2282 107.033 22.0816C107.58 22.9349 107.853 23.9549 107.853 25.1416ZM101.873 22.5616C101.406 22.5616 101.02 22.6882 100.713 22.9416C100.406 23.1949 100.206 23.5549 100.113 24.0216H103.633C103.54 23.5682 103.34 23.2149 103.033 22.9616C102.726 22.6949 102.34 22.5616 101.873 22.5616ZM115.06 30.8216C113.846 30.8216 112.753 30.5816 111.78 30.1016C110.82 29.6082 110.066 28.9349 109.52 28.0816C108.973 27.2149 108.7 26.2349 108.7 25.1416C108.7 24.0482 108.973 23.0749 109.52 22.2216C110.066 21.3549 110.82 20.6816 111.78 20.2016C112.753 19.7216 113.846 19.4816 115.06 19.4816C116.286 19.4816 117.38 19.7216 118.34 20.2016C119.313 20.6816 120.066 21.3549 120.6 22.2216C121.146 23.0749 121.42 24.0482 121.42 25.1416C121.42 26.2349 121.146 27.2149 120.6 28.0816C120.066 28.9349 119.313 29.6082 118.34 30.1016C117.38 30.5816 116.286 30.8216 115.06 30.8216ZM115.06 27.3016C115.58 27.3016 116.006 27.1149 116.34 26.7416C116.673 26.3549 116.84 25.8216 116.84 25.1416C116.84 24.4616 116.673 23.9349 116.34 23.5616C116.006 23.1882 115.58 23.0016 115.06 23.0016C114.54 23.0016 114.113 23.1882 113.78 23.5616C113.446 23.9349 113.28 24.4616 113.28 25.1416C113.28 25.8216 113.446 26.3549 113.78 26.7416C114.113 27.1149 114.54 27.3016 115.06 27.3016ZM130.894 30.2416C130.214 30.6282 129.288 30.8216 128.114 30.8216C126.581 30.8216 125.401 30.4549 124.574 29.7216C123.748 28.9749 123.334 27.8616 123.334 26.3816V23.5816H121.834V20.2816H123.334V17.2216H127.854V20.2816H130.094V23.5816H127.854V26.3416C127.854 26.6749 127.941 26.9349 128.114 27.1216C128.288 27.3082 128.514 27.4016 128.794 27.4016C129.181 27.4016 129.521 27.3016 129.814 27.1016L130.894 30.2416ZM132.033 19.6816H136.553V30.6216H132.033V19.6816ZM134.293 18.8016C133.48 18.8016 132.82 18.5882 132.313 18.1616C131.82 17.7216 131.573 17.1682 131.573 16.5016C131.573 15.8349 131.82 15.2882 132.313 14.8616C132.82 14.4216 133.48 14.2016 134.293 14.2016C135.12 14.2016 135.78 14.4082 136.273 14.8216C136.767 15.2349 137.013 15.7682 137.013 16.4216C137.013 17.1149 136.767 17.6882 136.273 18.1416C135.78 18.5816 135.12 18.8016 134.293 18.8016ZM150.657 15.7816V30.6216H146.357V29.7216C145.704 30.4549 144.704 30.8216 143.357 30.8216C142.397 30.8216 141.51 30.5949 140.697 30.1416C139.897 29.6749 139.257 29.0082 138.777 28.1416C138.31 27.2749 138.077 26.2749 138.077 25.1416C138.077 24.0082 138.31 23.0149 138.777 22.1616C139.257 21.2949 139.897 20.6349 140.697 20.1816C141.51 19.7149 142.397 19.4816 143.357 19.4816C144.57 19.4816 145.497 19.7949 146.137 20.4216V15.7816H150.657ZM144.437 27.3016C144.957 27.3016 145.384 27.1149 145.717 26.7416C146.05 26.3549 146.217 25.8216 146.217 25.1416C146.217 24.4616 146.05 23.9349 145.717 23.5616C145.384 23.1882 144.957 23.0016 144.437 23.0016C143.917 23.0016 143.49 23.1882 143.157 23.5616C142.824 23.9349 142.657 24.4616 142.657 25.1416C142.657 25.8216 142.824 26.3549 143.157 26.7416C143.49 27.1149 143.917 27.3016 144.437 27.3016ZM164.298 25.1416C164.298 25.2082 164.278 25.5616 164.238 26.2016H156.638C156.798 26.6149 157.065 26.9349 157.438 27.1616C157.812 27.3749 158.278 27.4816 158.838 27.4816C159.318 27.4816 159.718 27.4216 160.038 27.3016C160.372 27.1816 160.732 26.9749 161.118 26.6816L163.478 29.0616C162.412 30.2349 160.818 30.8216 158.698 30.8216C157.378 30.8216 156.218 30.5816 155.218 30.1016C154.218 29.6082 153.445 28.9282 152.898 28.0616C152.352 27.1949 152.078 26.2216 152.078 25.1416C152.078 24.0482 152.345 23.0749 152.878 22.2216C153.425 21.3549 154.165 20.6816 155.098 20.2016C156.045 19.7216 157.105 19.4816 158.278 19.4816C159.385 19.4816 160.392 19.7016 161.298 20.1416C162.218 20.5816 162.945 21.2282 163.478 22.0816C164.025 22.9349 164.298 23.9549 164.298 25.1416ZM158.318 22.5616C157.852 22.5616 157.465 22.6882 157.158 22.9416C156.852 23.1949 156.652 23.5549 156.558 24.0216H160.078C159.985 23.5682 159.785 23.2149 159.478 22.9616C159.172 22.6949 158.785 22.5616 158.318 22.5616ZM58.6859 47.3016C59.5126 47.6082 60.1526 48.0549 60.6059 48.6416C61.0593 49.2282 61.2859 49.9349 61.2859 50.7616C61.2859 51.9882 60.7793 52.9416 59.7659 53.6216C58.7526 54.2882 57.2859 54.6216 55.3659 54.6216H47.4859V40.6216H54.9659C56.8326 40.6216 58.2393 40.9549 59.1859 41.6216C60.1459 42.2882 60.6259 43.1749 60.6259 44.2816C60.6259 44.9349 60.4593 45.5216 60.1259 46.0416C59.8059 46.5616 59.3259 46.9816 58.6859 47.3016ZM52.1259 43.9216V46.0016H54.3259C55.3526 46.0016 55.8659 45.6549 55.8659 44.9616C55.8659 44.2682 55.3526 43.9216 54.3259 43.9216H52.1259ZM54.9659 51.3216C56.0059 51.3216 56.5259 50.9549 56.5259 50.2216C56.5259 49.4882 56.0059 49.1216 54.9659 49.1216H52.1259V51.3216H54.9659ZM62.9547 40.6216H67.6747V50.9616H73.9947V54.6216H62.9547V40.6216ZM85.0338 52.1816H79.7138L78.7738 54.6216H73.9738L80.0938 40.6216H84.7338L90.8538 54.6216H85.9738L85.0338 52.1816ZM83.7338 48.7816L82.3738 45.2616L81.0138 48.7816H83.7338ZM96.827 54.9416C95.667 54.9416 94.5337 54.8149 93.427 54.5616C92.3337 54.2949 91.4337 53.9416 90.727 53.5016L92.247 50.0616C92.9137 50.4482 93.6604 50.7616 94.487 51.0016C95.3137 51.2282 96.107 51.3416 96.867 51.3416C97.5204 51.3416 97.987 51.2816 98.267 51.1616C98.547 51.0282 98.687 50.8349 98.687 50.5816C98.687 50.2882 98.5004 50.0682 98.127 49.9216C97.767 49.7749 97.167 49.6149 96.327 49.4416C95.247 49.2149 94.347 48.9749 93.627 48.7216C92.907 48.4549 92.2804 48.0282 91.747 47.4416C91.2137 46.8416 90.947 46.0349 90.947 45.0216C90.947 44.1416 91.1937 43.3416 91.687 42.6216C92.1804 41.9016 92.9137 41.3349 93.887 40.9216C94.8737 40.5082 96.067 40.3016 97.467 40.3016C98.427 40.3016 99.367 40.4082 100.287 40.6216C101.22 40.8216 102.04 41.1216 102.747 41.5216L101.327 44.9416C99.9537 44.2482 98.6537 43.9016 97.427 43.9016C96.2137 43.9016 95.607 44.1949 95.607 44.7816C95.607 45.0616 95.787 45.2749 96.147 45.4216C96.507 45.5549 97.1004 45.7016 97.927 45.8616C98.9937 46.0616 99.8937 46.2949 100.627 46.5616C101.36 46.8149 101.994 47.2349 102.527 47.8216C103.074 48.4082 103.347 49.2082 103.347 50.2216C103.347 51.1016 103.1 51.9016 102.607 52.6216C102.114 53.3282 101.374 53.8949 100.387 54.3216C99.4137 54.7349 98.227 54.9416 96.827 54.9416ZM107.596 44.2816H103.496V40.6216H116.416V44.2816H112.316V54.6216H107.596V44.2816Z" fill="white"/>
<defs>
<filter id="filter0_f" x="-192.825" y="12.8936" width="364.807" height="121.162" filterUnits="userSpaceOnUse" color-interpolation-filters="sRGB">
<feFlood flood-opacity="0" result="BackgroundImageFix"/>
<feBlend mode="normal" in="SourceGraphic" in2="BackgroundImageFix" result="shape"/>
<feGaussianBlur stdDeviation="4.5" result="effect1_foregroundBlur"/>
</filter>
<filter id="filter1_f" x="-141.317" y="31.3057" width="262.084" height="94.4797" filterUnits="userSpaceOnUse" color-interpolation-filters="sRGB">
<feFlood flood-opacity="0" result="BackgroundImageFix"/>
<feBlend mode="normal" in="SourceGraphic" in2="BackgroundImageFix" result="shape"/>
<feGaussianBlur stdDeviation="4.5" result="effect1_foregroundBlur"/>
</filter>
<filter id="filter2_f" x="-147.843" y="1.62158" width="311.533" height="169.776" filterUnits="userSpaceOnUse" color-interpolation-filters="sRGB">
<feFlood flood-opacity="0" result="BackgroundImageFix"/>
<feBlend mode="normal" in="SourceGraphic" in2="BackgroundImageFix" result="shape"/>
<feGaussianBlur stdDeviation="4.5" result="effect1_foregroundBlur"/>
</filter>
<radialGradient id="paint0_angular" cx="0" cy="0" r="1" gradientUnits="userSpaceOnUse" gradientTransform="translate(184.651 17.0575) rotate(-16.3197) scale(17.5134 5.32198)">
<stop offset="0.160621" stop-opacity="0"/>
<stop offset="0.316932" stop-opacity="0"/>
<stop offset="0.452221" stop-opacity="0.897597"/>
<stop offset="0.508439" stop-opacity="0.817242"/>
<stop offset="0.573098"/>
<stop offset="0.657776" stop-opacity="0"/>
</radialGradient>
<radialGradient id="paint1_angular" cx="0" cy="0" r="1" gradientUnits="userSpaceOnUse" gradientTransform="translate(129.734 35.8959) rotate(-17.8485) scale(14.6406 4.81316)">
<stop offset="0.160621" stop-opacity="0"/>
<stop offset="0.316932" stop-opacity="0"/>
<stop offset="0.452221" stop-opacity="0.897597"/>
<stop offset="0.508439" stop-opacity="0.817242"/>
<stop offset="0.573098"/>
<stop offset="0.657776" stop-opacity="0"/>
</radialGradient>
<radialGradient id="paint2_angular" cx="0" cy="0" r="1" gradientUnits="userSpaceOnUse" gradientTransform="translate(176.297 1.87034) rotate(-27.9847) scale(18.9783 8.8615)">
<stop offset="0.160621" stop-opacity="0"/>
<stop offset="0.316932" stop-opacity="0"/>
<stop offset="0.452221" stop-opacity="0.897597"/>
<stop offset="0.508439" stop-opacity="0.817242"/>
<stop offset="0.573098"/>
<stop offset="0.657776" stop-opacity="0"/>
</radialGradient>
</defs>
</svg>
