<svg fill="none" xmlns="http://www.w3.org/2000/svg">
<path d="M0 -74.7075H1439.92V311.586C1440.09 320.356 1439.92 325.925 1439.92 325.925V311.586C1439.21 274.879 1432.51 182.084 1382.26 206.761C1329.5 232.674 1316.51 186.275 1250.51 175.89C1202.81 168.385 1205.81 161.312 1165.32 146.581C1110.91 126.783 964.073 146.04 947.776 134.028C915.596 110.308 746.048 115.052 746.048 115.052H64.312C7.96069e-05 115.052 9.95086e-05 158.021 9.95086e-05 158.021L0 -74.7075Z" fill="url(#paint0_linear)"/>
<mask id="mask0" mask-type="alpha" maskUnits="userSpaceOnUse" x="0" y="-75" width="1440" height="401">
<path d="M0 -74.7075H1439.92V311.587C1440.09 320.357 1439.92 325.925 1439.92 325.925V311.587C1439.21 274.88 1432.51 182.084 1382.26 206.761C1329.5 232.674 1316.51 186.275 1250.51 175.89C1202.81 168.385 1205.81 161.312 1165.32 146.581C1110.91 126.783 964.073 146.04 947.776 134.028C915.596 110.308 746.048 115.052 746.048 115.052H64.312C7.5144e-05 115.052 9.95086e-05 158.021 9.95086e-05 158.021L0 -74.7075Z" fill="url(#paint1_linear)"/>
</mask>
<g mask="url(#mask0)">
<g style="mix-blend-mode:multiply" opacity="0.15">
<path d="M1186.8 116.622C1174.5 108.208 1164.93 81.0554 1164.93 81.0554L1028.71 217.102L1283.19 334.064L1338.78 178.532L1332.13 164.802C1332.13 164.802 1309.56 167.169 1297.2 162.552C1279.68 156.005 1272.57 134.366 1272.57 134.366C1272.57 134.366 1251.34 144.915 1238.03 137.63C1224.01 129.956 1218.13 113.312 1218.13 113.312C1218.13 113.312 1199.1 125.036 1186.8 116.622Z" fill="url(#paint2_linear)"/>
<path d="M1186.8 116.622C1174.5 108.208 1164.93 81.0554 1164.93 81.0554L1028.71 217.102L1283.19 334.064L1338.78 178.532L1332.13 164.802C1332.13 164.802 1309.56 167.169 1297.2 162.552C1279.68 156.005 1272.57 134.366 1272.57 134.366C1272.57 134.366 1251.34 144.915 1238.03 137.63C1224.01 129.956 1218.13 113.312 1218.13 113.312C1218.13 113.312 1199.1 125.036 1186.8 116.622Z" fill="url(#paint3_linear)"/>
</g>
<g style="mix-blend-mode:multiply" opacity="0.1">
<path d="M1201.05 87.6987C1188.76 79.2848 1167.08 85.4689 1167.08 85.4689L1138.44 93.124L1008.15 224.191L1289.57 376.595L1364.35 158.525C1364.35 158.525 1345.22 163.537 1332.76 164.655C1327.89 155.995 1314.89 136.061 1305.96 131.414C1290.12 123.174 1272.57 134.366 1272.57 134.366C1272.57 134.366 1264.72 116.073 1251.41 108.788C1237.39 101.114 1218.13 113.312 1218.13 113.312C1218.13 113.312 1213.35 96.1126 1201.05 87.6987Z" fill="url(#paint4_linear)"/>
<path d="M1201.05 87.6987C1188.76 79.2848 1167.08 85.4689 1167.08 85.4689L1138.44 93.124L1008.15 224.191L1289.57 376.595L1364.35 158.525C1364.35 158.525 1345.22 163.537 1332.76 164.655C1327.89 155.995 1314.89 136.061 1305.96 131.414C1290.12 123.174 1272.57 134.366 1272.57 134.366C1272.57 134.366 1264.72 116.073 1251.41 108.788C1237.39 101.114 1218.13 113.312 1218.13 113.312C1218.13 113.312 1213.35 96.1126 1201.05 87.6987Z" fill="url(#paint5_linear)"/>
</g>
<g style="mix-blend-mode:multiply" opacity="0.15">
<path d="M44.8821 44.5464L161.53 52.6323L-19.4902 128.42L-132.854 95.8758L44.8821 44.5464Z" fill="url(#paint6_linear)"/>
<path d="M48.3108 64.9585L112.315 79.0612L-50.9502 141.438L-131.769 106.182L48.3108 64.9585Z" fill="url(#paint7_linear)"/>
<path d="M119.688 33.2744C119.688 33.2744 102.194 53.4129 116.476 70.5979C132.515 89.8974 154.238 72.0486 154.238 72.0486L7.78073 185.051L-139.295 70.5979L119.688 33.2744Z" fill="url(#paint8_linear)"/>
</g>
</g>
<path d="M1179.64 83.696L1178.42 107.427M1189.55 83.2855L1182.02 111.929M1199.75 87.0648L1186.19 115.198M1207.58 94.1072L1190.88 117.637M1212.55 102.109L1196.77 118.676M1170.53 83.4633L1175.01 102.806M1214.64 106.794L1204.17 117.471M1222.84 109.531L1224.12 125.229M1232.86 106.215L1227.81 129.871M1242.43 105.986L1233.11 134.006M1251.13 108.411L1239.64 137.418M1258.17 113.282L1247.17 138.955M1263.48 119.132L1257.04 138.13M1268.26 126.658L1267.27 134.77M1290.92 128.212L1277.58 142.926M1297.9 128.729L1283.03 151.653M1304.01 130.784L1290.59 158.254M1309.1 134.309L1299.62 162.588M1310.84 164.435L1313.71 138.417M1317.04 142.052L1321.92 164.714M1327.48 156.299L1337.59 163.19" stroke="black" stroke-linecap="round" stroke-linejoin="round"/>
<path d="M1179.64 83.696L1178.42 107.427M1189.55 83.2855L1182.02 111.929M1199.75 87.0648L1186.19 115.198M1207.58 94.1072L1190.88 117.637M1212.55 102.109L1196.77 118.676M1170.53 83.4633L1175.01 102.806M1214.64 106.794L1204.17 117.471M1222.84 109.531L1224.12 125.229M1232.86 106.215L1227.81 129.871M1242.43 105.986L1233.11 134.006M1251.13 108.411L1239.64 137.418M1258.17 113.282L1247.17 138.955M1263.48 119.132L1257.04 138.13M1268.26 126.658L1267.27 134.77M1290.92 128.212L1277.58 142.926M1297.9 128.729L1283.03 151.653M1304.01 130.784L1290.59 158.254M1309.1 134.309L1299.62 162.588M1310.84 164.435L1313.71 138.417M1317.04 142.052L1321.92 164.714M1327.48 156.299L1337.59 163.19" stroke="url(#paint9_linear)" stroke-linecap="round" stroke-linejoin="round"/>
<path d="M1179.64 83.696L1178.42 107.427M1189.55 83.2855L1182.02 111.929M1199.75 87.0648L1186.19 115.198M1207.58 94.1072L1190.88 117.637M1212.55 102.109L1196.77 118.676M1170.53 83.4633L1175.01 102.806M1214.64 106.794L1204.17 117.471M1222.84 109.531L1224.12 125.229M1232.86 106.215L1227.81 129.871M1242.43 105.986L1233.11 134.006M1251.13 108.411L1239.64 137.418M1258.17 113.282L1247.17 138.955M1263.48 119.132L1257.04 138.13M1268.26 126.658L1267.27 134.77M1290.92 128.212L1277.58 142.926M1297.9 128.729L1283.03 151.653M1304.01 130.784L1290.59 158.254M1309.1 134.309L1299.62 162.588M1310.84 164.435L1313.71 138.417M1317.04 142.052L1321.92 164.714M1327.48 156.299L1337.59 163.19" stroke="url(#paint10_linear)" stroke-linecap="round" stroke-linejoin="round"/>
<path d="M1138.99 92.6701C1138.99 92.6701 1173.2 77.7489 1193.87 84.4096C1218.99 92.5018 1213.63 126.735 1238.02 136.925C1262.25 147.048 1281.57 118.645 1304.72 131.172C1323.51 141.337 1337.04 176.214 1337.04 176.214M1165.23 81.4284C1165.23 81.4284 1173.07 106.047 1185.31 114.691C1205.43 128.893 1224.06 99.2388 1247.27 106.934C1274.28 115.892 1270.27 151.455 1296.84 161.736C1321.25 171.187 1363.49 157.436 1363.49 157.436" stroke="black" stroke-width="2" stroke-linecap="round" stroke-linejoin="round"/>
<path d="M1138.99 92.6701C1138.99 92.6701 1173.2 77.7489 1193.87 84.4096C1218.99 92.5018 1213.63 126.735 1238.02 136.925C1262.25 147.048 1281.57 118.645 1304.72 131.172C1323.51 141.337 1337.04 176.214 1337.04 176.214M1165.23 81.4284C1165.23 81.4284 1173.07 106.047 1185.31 114.691C1205.43 128.893 1224.06 99.2388 1247.27 106.934C1274.28 115.892 1270.27 151.455 1296.84 161.736C1321.25 171.187 1363.49 157.436 1363.49 157.436" stroke="url(#paint11_linear)" stroke-width="2" stroke-linecap="round" stroke-linejoin="round"/>
<path opacity="0.75" d="M161.717 52.1298C161.717 67.5279 149.234 80.0105 133.836 80.0105C118.438 80.0105 105.955 67.5279 105.955 52.1298C105.955 36.7317 118.438 24.249 133.836 24.249C149.234 24.249 161.717 36.7317 161.717 52.1298ZM133.835 74.2524C146.054 74.2524 155.959 64.3473 155.959 52.1289C155.959 39.9104 146.054 30.0054 133.835 30.0054C121.617 30.0054 111.712 39.9104 111.712 52.1289C111.712 64.3473 121.617 74.2524 133.835 74.2524Z" fill="black" stroke="black"/>
<mask id="mask1" mask-type="alpha" maskUnits="userSpaceOnUse" x="105" y="23" width="58" height="58">
<path d="M161.717 52.1298C161.717 67.5279 149.234 80.0105 133.836 80.0105C118.438 80.0105 105.955 67.5279 105.955 52.1298C105.955 36.7317 118.438 24.249 133.836 24.249C149.234 24.249 161.717 36.7317 161.717 52.1298ZM133.835 74.2524C146.054 74.2524 155.959 64.3473 155.959 52.1289C155.959 39.9104 146.054 30.0054 133.835 30.0054C121.617 30.0054 111.712 39.9104 111.712 52.1289C111.712 64.3473 121.617 74.2524 133.835 74.2524Z" fill="#595959" stroke="#595959"/>
</mask>
<g mask="url(#mask1)">
<circle cx="147.886" cy="71.5854" r="14.612" fill="#5A85E3"/>
</g>
<path d="M60.5208 39.7908V53.7908H56.6408L51.3208 47.4308V53.7908H46.7208V39.7908H50.6008L55.9208 46.1508V39.7908H60.5208ZM74.615 42.8508V53.7908H70.315V52.7508C69.915 53.1641 69.4484 53.4774 68.915 53.6908C68.3817 53.8908 67.815 53.9908 67.215 53.9908C65.8284 53.9908 64.715 53.5708 63.875 52.7308C63.035 51.8774 62.615 50.5974 62.615 48.8908V42.8508H67.135V48.1108C67.135 48.8574 67.255 49.3908 67.495 49.7108C67.735 50.0308 68.0884 50.1908 68.555 50.1908C68.995 50.1908 69.3617 50.0174 69.655 49.6708C69.9484 49.3108 70.095 48.7508 70.095 47.9908V42.8508H74.615ZM82.4999 53.9908C81.2599 53.9908 80.1465 53.7508 79.1599 53.2708C78.1865 52.7908 77.4199 52.1174 76.8599 51.2508C76.3132 50.3841 76.0399 49.4041 76.0399 48.3108C76.0399 47.2174 76.3132 46.2441 76.8599 45.3908C77.4199 44.5241 78.1865 43.8508 79.1599 43.3708C80.1465 42.8908 81.2599 42.6508 82.4999 42.6508C83.8332 42.6508 84.9732 42.9374 85.9199 43.5108C86.8665 44.0841 87.5199 44.8774 87.8799 45.8908L84.3799 47.6108C83.9532 46.6508 83.3199 46.1708 82.4799 46.1708C81.9465 46.1708 81.4999 46.3574 81.1399 46.7308C80.7932 47.1041 80.6199 47.6308 80.6199 48.3108C80.6199 49.0041 80.7932 49.5374 81.1399 49.9108C81.4999 50.2841 81.9465 50.4708 82.4799 50.4708C83.3199 50.4708 83.9532 49.9908 84.3799 49.0308L87.8799 50.7508C87.5199 51.7641 86.8665 52.5574 85.9199 53.1308C84.9732 53.7041 83.8332 53.9908 82.4999 53.9908ZM88.9246 38.9508H93.4446V53.7908H88.9246V38.9508ZM107.088 48.3108C107.088 48.3774 107.068 48.7308 107.028 49.3708H99.428C99.588 49.7841 99.8547 50.1041 100.228 50.3308C100.601 50.5441 101.068 50.6508 101.628 50.6508C102.108 50.6508 102.508 50.5908 102.828 50.4708C103.161 50.3508 103.521 50.1441 103.908 49.8508L106.268 52.2308C105.201 53.4041 103.608 53.9908 101.488 53.9908C100.168 53.9908 99.008 53.7508 98.008 53.2708C97.008 52.7774 96.2347 52.0974 95.688 51.2308C95.1413 50.3641 94.868 49.3908 94.868 48.3108C94.868 47.2174 95.1347 46.2441 95.668 45.3908C96.2147 44.5241 96.9547 43.8508 97.888 43.3708C98.8347 42.8908 99.8947 42.6508 101.068 42.6508C102.175 42.6508 103.181 42.8708 104.088 43.3108C105.008 43.7508 105.735 44.3974 106.268 45.2508C106.815 46.1041 107.088 47.1241 107.088 48.3108ZM101.108 45.7308C100.641 45.7308 100.255 45.8574 99.948 46.1108C99.6413 46.3641 99.4413 46.7241 99.348 47.1908H102.868C102.775 46.7374 102.575 46.3841 102.268 46.1308C101.961 45.8641 101.575 45.7308 101.108 45.7308ZM114.294 53.9908C113.081 53.9908 111.988 53.7508 111.014 53.2708C110.054 52.7774 109.301 52.1041 108.754 51.2508C108.208 50.3841 107.934 49.4041 107.934 48.3108C107.934 47.2174 108.208 46.2441 108.754 45.3908C109.301 44.5241 110.054 43.8508 111.014 43.3708C111.988 42.8908 113.081 42.6508 114.294 42.6508C115.521 42.6508 116.614 42.8908 117.574 43.3708C118.548 43.8508 119.301 44.5241 119.834 45.3908C120.381 46.2441 120.654 47.2174 120.654 48.3108C120.654 49.4041 120.381 50.3841 119.834 51.2508C119.301 52.1041 118.548 52.7774 117.574 53.2708C116.614 53.7508 115.521 53.9908 114.294 53.9908ZM114.294 50.4708C114.814 50.4708 115.241 50.2841 115.574 49.9108C115.908 49.5241 116.074 48.9908 116.074 48.3108C116.074 47.6308 115.908 47.1041 115.574 46.7308C115.241 46.3574 114.814 46.1708 114.294 46.1708C113.774 46.1708 113.348 46.3574 113.014 46.7308C112.681 47.1041 112.514 47.6308 112.514 48.3108C112.514 48.9908 112.681 49.5241 113.014 49.9108C113.348 50.2841 113.774 50.4708 114.294 50.4708ZM130.129 53.4108C129.449 53.7974 128.522 53.9908 127.349 53.9908C125.816 53.9908 124.636 53.6241 123.809 52.8908C122.982 52.1441 122.569 51.0308 122.569 49.5508V46.7508H121.069V43.4508H122.569V40.3908H127.089V43.4508H129.329V46.7508H127.089V49.5108C127.089 49.8441 127.176 50.1041 127.349 50.2908C127.522 50.4774 127.749 50.5708 128.029 50.5708C128.416 50.5708 128.756 50.4708 129.049 50.2708L130.129 53.4108ZM131.268 42.8508H135.788V53.7908H131.268V42.8508ZM133.528 41.9708C132.715 41.9708 132.055 41.7574 131.548 41.3308C131.055 40.8908 130.808 40.3374 130.808 39.6708C130.808 39.0041 131.055 38.4574 131.548 38.0308C132.055 37.5908 132.715 37.3708 133.528 37.3708C134.355 37.3708 135.015 37.5774 135.508 37.9908C136.002 38.4041 136.248 38.9374 136.248 39.5908C136.248 40.2841 136.002 40.8574 135.508 41.3108C135.015 41.7508 134.355 41.9708 133.528 41.9708ZM149.892 38.9508V53.7908H145.592V52.8908C144.938 53.6241 143.938 53.9908 142.592 53.9908C141.632 53.9908 140.745 53.7641 139.932 53.3108C139.132 52.8441 138.492 52.1774 138.012 51.3108C137.545 50.4441 137.312 49.4441 137.312 48.3108C137.312 47.1774 137.545 46.1841 138.012 45.3308C138.492 44.4641 139.132 43.8041 139.932 43.3508C140.745 42.8841 141.632 42.6508 142.592 42.6508C143.805 42.6508 144.732 42.9641 145.372 43.5908V38.9508H149.892ZM143.672 50.4708C144.192 50.4708 144.618 50.2841 144.952 49.9108C145.285 49.5241 145.452 48.9908 145.452 48.3108C145.452 47.6308 145.285 47.1041 144.952 46.7308C144.618 46.3574 144.192 46.1708 143.672 46.1708C143.152 46.1708 142.725 46.3574 142.392 46.7308C142.058 47.1041 141.892 47.6308 141.892 48.3108C141.892 48.9908 142.058 49.5241 142.392 49.9108C142.725 50.2841 143.152 50.4708 143.672 50.4708ZM163.533 48.3108C163.533 48.3774 163.513 48.7308 163.473 49.3708H155.873C156.033 49.7841 156.3 50.1041 156.673 50.3308C157.047 50.5441 157.513 50.6508 158.073 50.6508C158.553 50.6508 158.953 50.5908 159.273 50.4708C159.607 50.3508 159.967 50.1441 160.353 49.8508L162.713 52.2308C161.647 53.4041 160.053 53.9908 157.933 53.9908C156.613 53.9908 155.453 53.7508 154.453 53.2708C153.453 52.7774 152.68 52.0974 152.133 51.2308C151.587 50.3641 151.313 49.3908 151.313 48.3108C151.313 47.2174 151.58 46.2441 152.113 45.3908C152.66 44.5241 153.4 43.8508 154.333 43.3708C155.28 42.8908 156.34 42.6508 157.513 42.6508C158.62 42.6508 159.627 42.8708 160.533 43.3108C161.453 43.7508 162.18 44.3974 162.713 45.2508C163.26 46.1041 163.533 47.1241 163.533 48.3108ZM157.553 45.7308C157.087 45.7308 156.7 45.8574 156.393 46.1108C156.087 46.3641 155.887 46.7241 155.793 47.1908H159.313C159.22 46.7374 159.02 46.3841 158.713 46.1308C158.407 45.8641 158.02 45.7308 157.553 45.7308ZM57.9208 70.4708C58.7475 70.7774 59.3875 71.2241 59.8408 71.8108C60.2941 72.3974 60.5208 73.1041 60.5208 73.9308C60.5208 75.1574 60.0141 76.1108 59.0008 76.7908C57.9875 77.4574 56.5208 77.7908 54.6008 77.7908H46.7208V63.7908H54.2008C56.0675 63.7908 57.4741 64.1241 58.4208 64.7908C59.3808 65.4574 59.8608 66.3441 59.8608 67.4508C59.8608 68.1041 59.6941 68.6908 59.3608 69.2108C59.0408 69.7308 58.5608 70.1508 57.9208 70.4708ZM51.3608 67.0908V69.1708H53.5608C54.5875 69.1708 55.1008 68.8241 55.1008 68.1308C55.1008 67.4374 54.5875 67.0908 53.5608 67.0908H51.3608ZM54.2008 74.4908C55.2408 74.4908 55.7608 74.1241 55.7608 73.3908C55.7608 72.6574 55.2408 72.2908 54.2008 72.2908H51.3608V74.4908H54.2008ZM62.1896 63.7908H66.9096V74.1308H73.2296V77.7908H62.1896V63.7908ZM84.2686 75.3508H78.9486L78.0086 77.7908H73.2086L79.3286 63.7908H83.9686L90.0886 77.7908H85.2086L84.2686 75.3508ZM82.9686 71.9508L81.6086 68.4308L80.2486 71.9508H82.9686ZM96.0619 78.1108C94.9019 78.1108 93.7686 77.9841 92.6619 77.7308C91.5686 77.4641 90.6686 77.1108 89.9619 76.6708L91.4819 73.2308C92.1486 73.6174 92.8952 73.9308 93.7219 74.1708C94.5486 74.3974 95.3419 74.5108 96.1019 74.5108C96.7552 74.5108 97.2219 74.4508 97.5019 74.3308C97.7819 74.1974 97.9219 74.0041 97.9219 73.7508C97.9219 73.4574 97.7352 73.2374 97.3619 73.0908C97.0019 72.9441 96.4019 72.7841 95.5619 72.6108C94.4819 72.3841 93.5819 72.1441 92.8619 71.8908C92.1419 71.6241 91.5152 71.1974 90.9819 70.6108C90.4486 70.0108 90.1819 69.2041 90.1819 68.1908C90.1819 67.3108 90.4286 66.5108 90.9219 65.7908C91.4152 65.0708 92.1486 64.5041 93.1219 64.0908C94.1086 63.6774 95.3019 63.4708 96.7019 63.4708C97.6619 63.4708 98.6019 63.5774 99.5219 63.7908C100.455 63.9908 101.275 64.2908 101.982 64.6908L100.562 68.1108C99.1886 67.4174 97.8886 67.0708 96.6619 67.0708C95.4486 67.0708 94.8419 67.3641 94.8419 67.9508C94.8419 68.2308 95.0219 68.4441 95.3819 68.5908C95.7419 68.7241 96.3352 68.8708 97.1619 69.0308C98.2286 69.2308 99.1286 69.4641 99.8619 69.7308C100.595 69.9841 101.229 70.4041 101.762 70.9908C102.309 71.5774 102.582 72.3774 102.582 73.3908C102.582 74.2708 102.335 75.0708 101.842 75.7908C101.349 76.4974 100.609 77.0641 99.6219 77.4908C98.6486 77.9041 97.4619 78.1108 96.0619 78.1108ZM106.831 67.4508H102.731V63.7908H115.651V67.4508H111.551V77.7908H106.831V67.4508Z" fill="white"/>
<path opacity="0.75" fill-rule="evenodd" clip-rule="evenodd" d="M1362.56 78.0346C1373.86 78.0346 1383.02 68.8706 1383.02 57.5661C1383.02 46.2617 1373.86 37.0977 1362.56 37.0977C1351.25 37.0977 1342.09 46.2617 1342.09 57.5661C1342.09 68.8706 1351.25 78.0346 1362.56 78.0346ZM1362.56 73.1612C1371.17 73.1612 1378.15 66.179 1378.15 57.5661C1378.15 48.9532 1371.17 41.9711 1362.56 41.9711C1353.94 41.9711 1346.96 48.9532 1346.96 57.5661C1346.96 66.179 1353.94 73.1612 1362.56 73.1612Z" fill="white"/>
<path opacity="0.5" fill-rule="evenodd" clip-rule="evenodd" d="M1417.43 94.5197C1426.53 94.5197 1433.91 87.1388 1433.91 78.034C1433.91 68.9292 1426.53 61.5483 1417.43 61.5483C1408.32 61.5483 1400.94 68.9292 1400.94 78.034C1400.94 87.1388 1408.32 94.5197 1417.43 94.5197ZM1417.43 90.595C1424.37 90.595 1429.99 84.9715 1429.99 78.0344C1429.99 71.0974 1424.37 65.4739 1417.43 65.4739C1410.49 65.4739 1404.87 71.0974 1404.87 78.0344C1404.87 84.9715 1410.49 90.595 1417.43 90.595Z" fill="white"/>
<path opacity="0.75" fill-rule="evenodd" clip-rule="evenodd" d="M1428.34 39.3251C1443.47 39.3251 1455.74 27.0585 1455.74 11.927C1455.74 -3.20462 1443.47 -15.4712 1428.34 -15.4712C1413.21 -15.4712 1400.94 -3.20462 1400.94 11.927C1400.94 27.0585 1413.21 39.3251 1428.34 39.3251ZM1428.34 32.8016C1439.87 32.8016 1449.22 23.4557 1449.22 11.9268C1449.22 0.397964 1439.87 -8.94801 1428.34 -8.94801C1416.81 -8.94801 1407.47 0.397964 1407.47 11.9268C1407.47 23.4557 1416.81 32.8016 1428.34 32.8016Z" fill="white"/>
<path fill-rule="evenodd" clip-rule="evenodd" d="M1307.68 94.5196C1312.81 94.5196 1316.97 90.3607 1316.97 85.2305C1316.97 80.1003 1312.81 75.9414 1307.68 75.9414C1302.55 75.9414 1298.39 80.1003 1298.39 85.2305C1298.39 90.3607 1302.55 94.5196 1307.68 94.5196ZM1307.68 92.3082C1311.59 92.3082 1314.76 89.1395 1314.76 85.2307C1314.76 81.322 1311.59 78.1533 1307.68 78.1533C1303.77 78.1533 1300.61 81.322 1300.61 85.2307C1300.61 89.1395 1303.77 92.3082 1307.68 92.3082Z" fill="white" fill-opacity="0.5"/>
<g opacity="0.65">
<line x1="1307.11" y1="47.5781" x2="1320.84" y2="56.8185" stroke="white" stroke-width="3" stroke-linecap="round"/>
<path d="M1318.6 45.3313L1310.44 57.4535" stroke="white" stroke-width="3" stroke-linecap="round"/>
</g>
<path opacity="0.35" d="M1339.77 99.6381L1342.51 107.278M1344.96 102.09L1337.19 104.874" stroke="white" stroke-linecap="round"/>
<path opacity="0.5" d="M1389.83 21.4116L1384.09 27.1501M1389.83 27.1501L1383.99 21.313" stroke="white" stroke-linecap="round"/>
<defs>
<linearGradient id="paint0_linear" x1="175.629" y1="-85.2496" x2="463.941" y2="498.264" gradientUnits="userSpaceOnUse">
<stop stop-color="#242424"/>
<stop offset="0.921875" stop-color="#3E70DF"/>
</linearGradient>
<linearGradient id="paint1_linear" x1="175.629" y1="-85.2496" x2="463.941" y2="498.264" gradientUnits="userSpaceOnUse">
<stop stop-color="#242424"/>
<stop offset="0.921875" stop-color="#3E70DF"/>
</linearGradient>
<linearGradient id="paint2_linear" x1="1350.63" y1="180.245" x2="1134.58" y2="77.484" gradientUnits="userSpaceOnUse">
<stop offset="0.015625" stop-color="#C4C4C4" stop-opacity="0"/>
<stop offset="0.213542" stop-color="#C4C4C4" stop-opacity="0.897597"/>
<stop offset="0.458333" stop-color="#C4C4C4"/>
<stop offset="0.75" stop-color="#C4C4C4" stop-opacity="0.817242"/>
<stop offset="0.923278" stop-color="#C4C4C4" stop-opacity="0"/>
</linearGradient>
<linearGradient id="paint3_linear" x1="1373.92" y1="183.077" x2="1115.85" y2="53.4353" gradientUnits="userSpaceOnUse">
<stop offset="0.015625" stop-color="#C4C4C4" stop-opacity="0"/>
<stop offset="0.213542" stop-color="#C4C4C4" stop-opacity="0.897597"/>
<stop offset="0.458333" stop-color="#C4C4C4"/>
<stop offset="0.75" stop-color="#C4C4C4" stop-opacity="0.817242"/>
<stop offset="0.923278" stop-color="#C4C4C4" stop-opacity="0"/>
</linearGradient>
<linearGradient id="paint4_linear" x1="1350.63" y1="180.246" x2="1134.58" y2="77.4848" gradientUnits="userSpaceOnUse">
<stop offset="0.015625" stop-opacity="0"/>
<stop offset="0.213542" stop-opacity="0.897597"/>
<stop offset="0.458333"/>
<stop offset="0.863963" stop-opacity="0.817242"/>
<stop offset="0.973801" stop-opacity="0"/>
</linearGradient>
<linearGradient id="paint5_linear" x1="1390.94" y1="185.204" x2="1110.87" y2="48.6021" gradientUnits="userSpaceOnUse">
<stop offset="0.015625" stop-opacity="0"/>
<stop offset="0.213542" stop-opacity="0.897597"/>
<stop offset="0.458333"/>
<stop offset="0.818031" stop-opacity="0.817242"/>
<stop offset="0.96152" stop-opacity="0"/>
</linearGradient>
<linearGradient id="paint6_linear" x1="183.818" y1="100.39" x2="58.2043" y2="12.0251" gradientUnits="userSpaceOnUse">
<stop offset="0.015625" stop-opacity="0"/>
<stop offset="0.213542" stop-opacity="0.897597"/>
<stop offset="0.458333"/>
<stop offset="0.818031" stop-opacity="0.817242"/>
<stop offset="0.96152" stop-opacity="0"/>
</linearGradient>
<linearGradient id="paint7_linear" x1="137.033" y1="94.1532" x2="69.6601" y2="55.1159" gradientUnits="userSpaceOnUse">
<stop offset="0.015625" stop-opacity="0"/>
<stop offset="0.213542" stop-opacity="0.897597"/>
<stop offset="0.458333"/>
<stop offset="0.818031" stop-opacity="0.817242"/>
<stop offset="0.96152" stop-opacity="0"/>
</linearGradient>
<linearGradient id="paint8_linear" x1="165.818" y1="96.2918" x2="93.3743" y2="6.82124" gradientUnits="userSpaceOnUse">
<stop offset="0.015625" stop-opacity="0"/>
<stop offset="0.213542" stop-opacity="0.897597"/>
<stop offset="0.458333"/>
<stop offset="0.755914" stop-opacity="0.817242"/>
<stop offset="0.96152" stop-opacity="0"/>
</linearGradient>
<linearGradient id="paint9_linear" x1="1301.98" y1="156.372" x2="1290.98" y2="97.199" gradientUnits="userSpaceOnUse">
<stop stop-color="#FF6B5C"/>
<stop offset="1" stop-color="#FEBA61"/>
</linearGradient>
<linearGradient id="paint10_linear" x1="1258.71" y1="111.606" x2="1246.3" y2="141.015" gradientUnits="userSpaceOnUse">
<stop stop-color="white"/>
<stop offset="1" stop-color="white" stop-opacity="0"/>
</linearGradient>
<linearGradient id="paint11_linear" x1="1320.95" y1="150.312" x2="1212.49" y2="116.605" gradientUnits="userSpaceOnUse">
<stop stop-color="#FF6B5C"/>
<stop offset="1" stop-color="#FEBA61"/>
</linearGradient>
</defs>
</svg>
