<svg fill="none" xmlns="http://www.w3.org/2000/svg">
<path fill-rule="evenodd" clip-rule="evenodd" d="M0 0V1441H2560V0H2559.86V311.151C2558.59 274.443 2546.69 181.65 2457.36 206.326C2402.08 221.596 2371.36 211.757 2331.44 198.974C2303.61 190.063 2271.32 179.721 2223.12 175.455C2168.52 170.622 2151.29 165.969 2126.72 159.334C2113.13 155.666 2097.31 151.391 2071.68 146.146C2016.97 134.947 1909.67 136.245 1821.55 137.311C1753.88 138.129 1697.52 138.811 1684.94 133.593C1627.73 109.873 1326.31 114.617 1326.31 114.617H114.332C0.000144958 114.617 0.000176904 157.586 0.000176904 157.586L0 0ZM2559.86 325.49V311.151C2560.17 319.922 2559.86 325.49 2559.86 325.49Z" fill="white"/>
</svg>
