<svg fill="none" xmlns="http://www.w3.org/2000/svg">
<path d="M0 0H413.746V187.142C413.795 191.39 413.746 194.088 413.746 194.088V187.142C413.54 169.358 411.616 124.404 397.178 136.359C382.016 148.912 378.283 126.434 359.319 121.403C345.613 117.767 346.475 114.341 334.842 107.204C319.207 97.6129 277.015 106.942 272.333 101.123C263.086 89.6315 214.368 91.9297 214.368 91.9297H18.4793C2.28741e-05 91.9297 2.85926e-05 112.746 2.85926e-05 112.746L0 0Z" fill="url(#paint0_linear)"/>
<mask id="mask0" mask-type="alpha" maskUnits="userSpaceOnUse" x="0" y="0" width="414" height="195">
<path d="M0 0H413.746V187.142C413.795 191.39 413.746 194.088 413.746 194.088V187.142C413.54 169.358 411.616 124.404 397.178 136.359C382.016 148.912 378.283 126.434 359.319 121.403C345.613 117.767 346.475 114.341 334.842 107.204C319.207 97.6129 277.015 106.942 272.333 101.123C263.086 89.6315 214.368 91.9297 214.368 91.9297H18.4793C2.28741e-05 91.9297 2.85926e-05 112.746 2.85926e-05 112.746L0 0Z" fill="url(#paint1_linear)"/>
</mask>
<g mask="url(#mask0)">
<g style="mix-blend-mode:multiply" opacity="0.15">
<path d="M251.531 43.346C242.309 37.0356 235.129 16.6709 235.129 16.6709L132.965 118.706L323.825 206.427L365.516 89.7786L360.525 79.481C360.525 79.481 343.599 81.2563 334.332 77.7935C321.192 72.8833 315.86 56.6535 315.86 56.6535C315.86 56.6535 299.935 64.5657 289.952 59.1021C279.436 53.3464 275.025 40.8635 275.025 40.8635C275.025 40.8635 260.754 49.6564 251.531 43.346Z" fill="url(#paint2_linear)"/>
<path d="M251.531 43.346C242.309 37.0356 235.129 16.6709 235.129 16.6709L132.965 118.706L323.825 206.427L365.516 89.7786L360.525 79.481C360.525 79.481 343.599 81.2563 334.332 77.7935C321.192 72.8833 315.86 56.6535 315.86 56.6535C315.86 56.6535 299.935 64.5657 289.952 59.1021C279.436 53.3464 275.025 40.8635 275.025 40.8635C275.025 40.8635 260.754 49.6564 251.531 43.346Z" fill="url(#paint3_linear)"/>
</g>
<g style="mix-blend-mode:multiply" opacity="0.1">
<path d="M262.222 21.6534C252.999 15.343 236.741 19.9811 236.741 19.9811L215.265 25.7224L117.548 124.023L328.61 238.326L384.697 74.7728C384.697 74.7728 370.343 78.5324 361.003 79.3704C357.348 72.8759 347.6 57.9253 340.902 54.44C329.023 48.2598 315.86 56.6536 315.86 56.6536C315.86 56.6536 309.971 42.9342 299.988 37.4705C289.472 31.7149 275.026 40.8635 275.026 40.8635C275.026 40.8635 271.444 27.9638 262.222 21.6534Z" fill="url(#paint4_linear)"/>
<path d="M262.222 21.6534C252.999 15.343 236.741 19.9811 236.741 19.9811L215.265 25.7224L117.548 124.023L328.61 238.326L384.697 74.7728C384.697 74.7728 370.343 78.5324 361.003 79.3704C357.348 72.8759 347.6 57.9253 340.902 54.44C329.023 48.2598 315.86 56.6536 315.86 56.6536C315.86 56.6536 309.971 42.9342 299.988 37.4705C289.472 31.7149 275.026 40.8635 275.026 40.8635C275.026 40.8635 271.444 27.9638 262.222 21.6534Z" fill="url(#paint5_linear)"/>
</g>
<g style="mix-blend-mode:multiply" opacity="0.15">
<path d="M31.9532 41.2507L148.212 53.6982L10.1558 139.605L-87.6665 76.8708L31.9532 41.2507Z" fill="url(#paint6_linear)"/>
<path d="M32.4848 64.643L96.8136 78.7378L-18.5528 139.605L-96.1724 108.238L32.4848 64.643Z" fill="url(#paint7_linear)"/>
<path d="M98.409 30.6179C98.409 30.6179 86.907 55.5668 95.2186 67.3012C104.553 80.4795 136.156 73.1492 136.156 73.1492L44.1815 138.01L-41.4131 59.858L98.409 30.6179Z" fill="url(#paint8_linear)"/>
</g>
</g>
<path d="M246.894 19.1444L245.98 36.9425M254.325 18.8365L248.674 40.3191M261.977 21.671L251.804 42.7712M267.849 26.9529L255.323 44.6005M271.575 32.9538L259.736 45.3795M240.059 18.9699L243.42 33.4772M273.14 36.4679L265.293 44.4757M279.29 38.5208L280.252 50.2942M286.809 36.0338L283.022 53.7754M293.983 35.8618L286.992 56.877M300.512 37.6808L291.891 59.4361M305.789 41.334L297.539 60.5885M309.774 45.7214L304.939 59.9699M313.356 51.366L312.614 57.4503M330.349 52.5313L320.349 63.5673M335.585 52.9192L324.432 70.1124M340.173 54.4608L330.101 75.0628M343.99 57.1044L336.873 78.3132M345.291 79.6988L347.443 60.185M349.94 62.9114L353.602 79.9078M357.772 73.5967L365.358 78.7652" stroke="black" stroke-linecap="round" stroke-linejoin="round"/>
<path d="M246.894 19.1444L245.98 36.9425M254.325 18.8365L248.674 40.3191M261.977 21.671L251.804 42.7712M267.849 26.9529L255.323 44.6005M271.575 32.9538L259.736 45.3795M240.059 18.9699L243.42 33.4772M273.14 36.4679L265.293 44.4757M279.29 38.5208L280.252 50.2942M286.809 36.0338L283.022 53.7754M293.983 35.8618L286.992 56.877M300.512 37.6808L291.891 59.4361M305.789 41.334L297.539 60.5885M309.774 45.7214L304.939 59.9699M313.356 51.366L312.614 57.4503M330.349 52.5313L320.349 63.5673M335.585 52.9192L324.432 70.1124M340.173 54.4608L330.101 75.0628M343.99 57.1044L336.873 78.3132M345.291 79.6988L347.443 60.185M349.94 62.9114L353.602 79.9078M357.772 73.5967L365.358 78.7652" stroke="url(#paint9_linear)" stroke-linecap="round" stroke-linejoin="round"/>
<path d="M246.894 19.1444L245.98 36.9425M254.325 18.8365L248.674 40.3191M261.977 21.671L251.804 42.7712M267.849 26.9529L255.323 44.6005M271.575 32.9538L259.736 45.3795M240.059 18.9699L243.42 33.4772M273.14 36.4679L265.293 44.4757M279.29 38.5208L280.252 50.2942M286.809 36.0338L283.022 53.7754M293.983 35.8618L286.992 56.877M300.512 37.6808L291.891 59.4361M305.789 41.334L297.539 60.5885M309.774 45.7214L304.939 59.9699M313.356 51.366L312.614 57.4503M330.349 52.5313L320.349 63.5673M335.585 52.9192L324.432 70.1124M340.173 54.4608L330.101 75.0628M343.99 57.1044L336.873 78.3132M345.291 79.6988L347.443 60.185M349.94 62.9114L353.602 79.9078M357.772 73.5967L365.358 78.7652" stroke="url(#paint10_linear)" stroke-linecap="round" stroke-linejoin="round"/>
<path d="M216.407 25.875C216.407 25.875 242.06 14.6841 257.565 19.6795C276.403 25.7487 272.386 51.424 290.678 59.0664C308.849 66.6583 323.342 45.3563 340.703 54.7512C354.792 62.3748 364.94 88.5332 364.94 88.5332M236.083 17.4437C236.083 17.4437 241.967 35.908 251.148 42.3908C266.232 53.0419 280.21 30.8015 297.611 36.5727C317.869 43.2916 314.865 69.9634 334.788 77.6743C353.103 84.7623 384.778 74.4494 384.778 74.4494" stroke="black" stroke-width="2" stroke-linecap="round" stroke-linejoin="round"/>
<path d="M216.407 25.875C216.407 25.875 242.06 14.6841 257.565 19.6795C276.403 25.7487 272.386 51.424 290.678 59.0664C308.849 66.6583 323.342 45.3563 340.703 54.7512C354.792 62.3748 364.94 88.5332 364.94 88.5332M236.083 17.4437C236.083 17.4437 241.967 35.908 251.148 42.3908C266.232 53.0419 280.21 30.8015 297.611 36.5727C317.869 43.2916 314.865 69.9634 334.788 77.6743C353.103 84.7623 384.778 74.4494 384.778 74.4494" stroke="url(#paint11_linear)" stroke-width="2" stroke-linecap="round" stroke-linejoin="round"/>
<path opacity="0.75" d="M147.712 49.6981C147.712 65.4602 134.935 78.2378 119.172 78.2378C103.41 78.2378 90.6328 65.4602 90.6328 49.6981C90.6328 33.9361 103.41 21.1584 119.172 21.1584C134.935 21.1584 147.712 33.9361 147.712 49.6981ZM119.172 72.3227C131.668 72.3227 141.798 62.193 141.798 49.6972C141.798 37.2015 131.668 27.0717 119.172 27.0717C106.676 27.0717 96.5466 37.2015 96.5466 49.6972C96.5466 62.193 106.676 72.3227 119.172 72.3227Z" fill="black" stroke="black"/>
<mask id="mask1" mask-type="alpha" maskUnits="userSpaceOnUse" x="90" y="20" width="59" height="59">
<path d="M147.712 49.6981C147.712 65.4602 134.935 78.2378 119.172 78.2378C103.41 78.2378 90.6328 65.4602 90.6328 49.6981C90.6328 33.9361 103.41 21.1584 119.172 21.1584C134.935 21.1584 147.712 33.9361 147.712 49.6981ZM119.172 72.3227C131.668 72.3227 141.798 62.193 141.798 49.6972C141.798 37.2015 131.668 27.0717 119.172 27.0717C106.676 27.0717 96.5466 37.2015 96.5466 49.6972C96.5466 62.193 106.676 72.3227 119.172 72.3227Z" fill="#595959" stroke="#595959"/>
</mask>
<g mask="url(#mask1)">
<circle cx="133.549" cy="69.6055" r="14.9512" fill="#5A85E3"/>
</g>
<path d="M46.6671 39.6982V53.6982H42.7871L37.4671 47.3382V53.6982H32.8671V39.6982H36.7471L42.0671 46.0582V39.6982H46.6671ZM60.7613 42.7582V53.6982H56.4613V52.6582C56.0613 53.0716 55.5946 53.3849 55.0613 53.5982C54.5279 53.7982 53.9613 53.8982 53.3613 53.8982C51.9746 53.8982 50.8613 53.4782 50.0213 52.6382C49.1813 51.7849 48.7613 50.5049 48.7613 48.7982V42.7582H53.2813V48.0182C53.2813 48.7649 53.4013 49.2982 53.6413 49.6182C53.8813 49.9382 54.2346 50.0982 54.7013 50.0982C55.1413 50.0982 55.5079 49.9249 55.8013 49.5782C56.0946 49.2182 56.2413 48.6582 56.2413 47.8982V42.7582H60.7613ZM68.6461 53.8982C67.4061 53.8982 66.2928 53.6582 65.3061 53.1782C64.3328 52.6982 63.5661 52.0249 63.0061 51.1582C62.4594 50.2916 62.1861 49.3116 62.1861 48.2182C62.1861 47.1249 62.4594 46.1516 63.0061 45.2982C63.5661 44.4316 64.3328 43.7582 65.3061 43.2782C66.2928 42.7982 67.4061 42.5582 68.6461 42.5582C69.9794 42.5582 71.1194 42.8449 72.0661 43.4182C73.0128 43.9916 73.6661 44.7849 74.0261 45.7982L70.5261 47.5182C70.0994 46.5582 69.4661 46.0782 68.6261 46.0782C68.0928 46.0782 67.6461 46.2649 67.2861 46.6382C66.9394 47.0116 66.7661 47.5382 66.7661 48.2182C66.7661 48.9116 66.9394 49.4449 67.2861 49.8182C67.6461 50.1916 68.0928 50.3782 68.6261 50.3782C69.4661 50.3782 70.0994 49.8982 70.5261 48.9382L74.0261 50.6582C73.6661 51.6716 73.0128 52.4649 72.0661 53.0382C71.1194 53.6116 69.9794 53.8982 68.6461 53.8982ZM75.0708 38.8582H79.5908V53.6982H75.0708V38.8582ZM93.2342 48.2182C93.2342 48.2849 93.2142 48.6382 93.1742 49.2782H85.5742C85.7342 49.6916 86.0009 50.0116 86.3742 50.2382C86.7476 50.4516 87.2142 50.5582 87.7742 50.5582C88.2542 50.5582 88.6542 50.4982 88.9742 50.3782C89.3076 50.2582 89.6676 50.0516 90.0542 49.7582L92.4142 52.1382C91.3476 53.3116 89.7542 53.8982 87.6342 53.8982C86.3142 53.8982 85.1542 53.6582 84.1542 53.1782C83.1542 52.6849 82.3809 52.0049 81.8342 51.1382C81.2876 50.2716 81.0142 49.2982 81.0142 48.2182C81.0142 47.1249 81.2809 46.1516 81.8142 45.2982C82.3609 44.4316 83.1009 43.7582 84.0342 43.2782C84.9809 42.7982 86.0409 42.5582 87.2142 42.5582C88.3209 42.5582 89.3276 42.7782 90.2342 43.2182C91.1542 43.6582 91.8809 44.3049 92.4142 45.1582C92.9609 46.0116 93.2342 47.0316 93.2342 48.2182ZM87.2542 45.6382C86.7876 45.6382 86.4009 45.7649 86.0942 46.0182C85.7876 46.2716 85.5876 46.6316 85.4942 47.0982H89.0142C88.9209 46.6449 88.7209 46.2916 88.4142 46.0382C88.1076 45.7716 87.7209 45.6382 87.2542 45.6382ZM100.441 53.8982C99.2273 53.8982 98.134 53.6582 97.1606 53.1782C96.2006 52.6849 95.4473 52.0116 94.9006 51.1582C94.354 50.2916 94.0806 49.3116 94.0806 48.2182C94.0806 47.1249 94.354 46.1516 94.9006 45.2982C95.4473 44.4316 96.2006 43.7582 97.1606 43.2782C98.134 42.7982 99.2273 42.5582 100.441 42.5582C101.667 42.5582 102.761 42.7982 103.721 43.2782C104.694 43.7582 105.447 44.4316 105.981 45.2982C106.527 46.1516 106.801 47.1249 106.801 48.2182C106.801 49.3116 106.527 50.2916 105.981 51.1582C105.447 52.0116 104.694 52.6849 103.721 53.1782C102.761 53.6582 101.667 53.8982 100.441 53.8982ZM100.441 50.3782C100.961 50.3782 101.387 50.1916 101.721 49.8182C102.054 49.4316 102.221 48.8982 102.221 48.2182C102.221 47.5382 102.054 47.0116 101.721 46.6382C101.387 46.2649 100.961 46.0782 100.441 46.0782C99.9206 46.0782 99.494 46.2649 99.1606 46.6382C98.8273 47.0116 98.6606 47.5382 98.6606 48.2182C98.6606 48.8982 98.8273 49.4316 99.1606 49.8182C99.494 50.1916 99.9206 50.3782 100.441 50.3782ZM116.275 53.3182C115.595 53.7049 114.669 53.8982 113.495 53.8982C111.962 53.8982 110.782 53.5316 109.955 52.7982C109.129 52.0516 108.715 50.9382 108.715 49.4582V46.6582H107.215V43.3582H108.715V40.2982H113.235V43.3582H115.475V46.6582H113.235V49.4182C113.235 49.7516 113.322 50.0116 113.495 50.1982C113.669 50.3849 113.895 50.4782 114.175 50.4782C114.562 50.4782 114.902 50.3782 115.195 50.1782L116.275 53.3182ZM117.415 42.7582H121.935V53.6982H117.415V42.7582ZM119.675 41.8782C118.861 41.8782 118.201 41.6649 117.695 41.2382C117.201 40.7982 116.955 40.2449 116.955 39.5782C116.955 38.9116 117.201 38.3649 117.695 37.9382C118.201 37.4982 118.861 37.2782 119.675 37.2782C120.501 37.2782 121.161 37.4849 121.655 37.8982C122.148 38.3116 122.395 38.8449 122.395 39.4982C122.395 40.1916 122.148 40.7649 121.655 41.2182C121.161 41.6582 120.501 41.8782 119.675 41.8782ZM136.038 38.8582V53.6982H131.738V52.7982C131.085 53.5316 130.085 53.8982 128.738 53.8982C127.778 53.8982 126.891 53.6716 126.078 53.2182C125.278 52.7516 124.638 52.0849 124.158 51.2182C123.691 50.3516 123.458 49.3516 123.458 48.2182C123.458 47.0849 123.691 46.0916 124.158 45.2382C124.638 44.3716 125.278 43.7116 126.078 43.2582C126.891 42.7916 127.778 42.5582 128.738 42.5582C129.951 42.5582 130.878 42.8716 131.518 43.4982V38.8582H136.038ZM129.818 50.3782C130.338 50.3782 130.765 50.1916 131.098 49.8182C131.431 49.4316 131.598 48.8982 131.598 48.2182C131.598 47.5382 131.431 47.0116 131.098 46.6382C130.765 46.2649 130.338 46.0782 129.818 46.0782C129.298 46.0782 128.871 46.2649 128.538 46.6382C128.205 47.0116 128.038 47.5382 128.038 48.2182C128.038 48.8982 128.205 49.4316 128.538 49.8182C128.871 50.1916 129.298 50.3782 129.818 50.3782ZM149.68 48.2182C149.68 48.2849 149.66 48.6382 149.62 49.2782H142.02C142.18 49.6916 142.446 50.0116 142.82 50.2382C143.193 50.4516 143.66 50.5582 144.22 50.5582C144.7 50.5582 145.1 50.4982 145.42 50.3782C145.753 50.2582 146.113 50.0516 146.5 49.7582L148.86 52.1382C147.793 53.3116 146.2 53.8982 144.08 53.8982C142.76 53.8982 141.6 53.6582 140.6 53.1782C139.6 52.6849 138.826 52.0049 138.28 51.1382C137.733 50.2716 137.46 49.2982 137.46 48.2182C137.46 47.1249 137.726 46.1516 138.26 45.2982C138.806 44.4316 139.546 43.7582 140.48 43.2782C141.426 42.7982 142.486 42.5582 143.66 42.5582C144.766 42.5582 145.773 42.7782 146.68 43.2182C147.6 43.6582 148.326 44.3049 148.86 45.1582C149.406 46.0116 149.68 47.0316 149.68 48.2182ZM143.7 45.6382C143.233 45.6382 142.846 45.7649 142.54 46.0182C142.233 46.2716 142.033 46.6316 141.94 47.0982H145.46C145.366 46.6449 145.166 46.2916 144.86 46.0382C144.553 45.7716 144.166 45.6382 143.7 45.6382ZM44.0671 70.3782C44.8937 70.6849 45.5337 71.1316 45.9871 71.7182C46.4404 72.3049 46.6671 73.0116 46.6671 73.8382C46.6671 75.0649 46.1604 76.0182 45.1471 76.6982C44.1337 77.3649 42.6671 77.6982 40.7471 77.6982H32.8671V63.6982H40.3471C42.2137 63.6982 43.6204 64.0316 44.5671 64.6982C45.5271 65.3649 46.0071 66.2516 46.0071 67.3582C46.0071 68.0116 45.8404 68.5982 45.5071 69.1182C45.1871 69.6382 44.7071 70.0582 44.0671 70.3782ZM37.5071 66.9982V69.0782H39.7071C40.7337 69.0782 41.2471 68.7316 41.2471 68.0382C41.2471 67.3449 40.7337 66.9982 39.7071 66.9982H37.5071ZM40.3471 74.3982C41.3871 74.3982 41.9071 74.0316 41.9071 73.2982C41.9071 72.5649 41.3871 72.1982 40.3471 72.1982H37.5071V74.3982H40.3471ZM48.3358 63.6982H53.0558V74.0382H59.3758V77.6982H48.3358V63.6982ZM70.4149 75.2582H65.0949L64.1549 77.6982H59.3549L65.4749 63.6982H70.1149L76.2349 77.6982H71.3549L70.4149 75.2582ZM69.1149 71.8582L67.7549 68.3382L66.3949 71.8582H69.1149ZM82.2081 78.0182C81.0481 78.0182 79.9148 77.8916 78.8081 77.6382C77.7148 77.3716 76.8148 77.0182 76.1081 76.5782L77.6281 73.1382C78.2948 73.5249 79.0415 73.8382 79.8681 74.0782C80.6948 74.3049 81.4881 74.4182 82.2481 74.4182C82.9015 74.4182 83.3681 74.3582 83.6481 74.2382C83.9281 74.1049 84.0681 73.9116 84.0681 73.6582C84.0681 73.3649 83.8815 73.1449 83.5081 72.9982C83.1481 72.8516 82.5481 72.6916 81.7081 72.5182C80.6281 72.2916 79.7281 72.0516 79.0081 71.7982C78.2881 71.5316 77.6615 71.1049 77.1281 70.5182C76.5948 69.9182 76.3281 69.1116 76.3281 68.0982C76.3281 67.2182 76.5748 66.4182 77.0681 65.6982C77.5615 64.9782 78.2948 64.4116 79.2681 63.9982C80.2548 63.5849 81.4481 63.3782 82.8481 63.3782C83.8081 63.3782 84.7481 63.4849 85.6681 63.6982C86.6015 63.8982 87.4215 64.1982 88.1281 64.5982L86.7081 68.0182C85.3348 67.3249 84.0348 66.9782 82.8081 66.9782C81.5948 66.9782 80.9881 67.2716 80.9881 67.8582C80.9881 68.1382 81.1681 68.3516 81.5281 68.4982C81.8881 68.6316 82.4815 68.7782 83.3081 68.9382C84.3748 69.1382 85.2748 69.3716 86.0081 69.6382C86.7415 69.8916 87.3748 70.3116 87.9081 70.8982C88.4548 71.4849 88.7281 72.2849 88.7281 73.2982C88.7281 74.1782 88.4815 74.9782 87.9881 75.6982C87.4948 76.4049 86.7548 76.9716 85.7681 77.3982C84.7948 77.8116 83.6081 78.0182 82.2081 78.0182ZM92.9774 67.3582H88.8774V63.6982H101.797V67.3582H97.6974V77.6982H92.9774V67.3582Z" fill="white"/>
<path opacity="0.75" fill-rule="evenodd" clip-rule="evenodd" d="M347.05 26.5662C351.381 26.5662 354.892 23.0552 354.892 18.7242C354.892 14.3931 351.381 10.8821 347.05 10.8821C342.719 10.8821 339.208 14.3931 339.208 18.7242C339.208 23.0552 342.719 26.5662 347.05 26.5662ZM347.05 24.6988C350.35 24.6988 353.025 22.0237 353.025 18.7238C353.025 15.424 350.35 12.7489 347.05 12.7489C343.75 12.7489 341.075 15.424 341.075 18.7238C341.075 22.0237 343.75 24.6988 347.05 24.6988Z" fill="white"/>
<path opacity="0.5" fill-rule="evenodd" clip-rule="evenodd" d="M368.073 32.8821C371.561 32.8821 374.389 30.0542 374.389 26.5659C374.389 23.0776 371.561 20.2498 368.073 20.2498C364.585 20.2498 361.757 23.0776 361.757 26.5659C361.757 30.0542 364.585 32.8821 368.073 32.8821ZM368.073 31.3784C370.731 31.3784 372.886 29.2239 372.886 26.5661C372.886 23.9083 370.731 21.7538 368.073 21.7538C365.416 21.7538 363.261 23.9083 363.261 26.5661C363.261 29.2239 365.416 31.3784 368.073 31.3784Z" fill="white"/>
<path opacity="0.75" fill-rule="evenodd" clip-rule="evenodd" d="M372.254 11.7353C378.051 11.7353 382.751 7.03561 382.751 1.23826C382.751 -4.5591 378.051 -9.25879 372.254 -9.25879C366.457 -9.25879 361.757 -4.5591 361.757 1.23826C361.757 7.03561 366.457 11.7353 372.254 11.7353ZM372.254 9.23615C376.671 9.23615 380.252 5.65543 380.252 1.23839C380.252 -3.17866 376.671 -6.75938 372.254 -6.75938C367.837 -6.75938 364.257 -3.17866 364.257 1.23839C364.257 5.65543 367.837 9.23615 372.254 9.23615Z" fill="white"/>
<path fill-rule="evenodd" clip-rule="evenodd" d="M326.026 32.882C327.992 32.882 329.585 31.2886 329.585 29.3231C329.585 27.3575 327.992 25.7642 326.026 25.7642C324.061 25.7642 322.467 27.3575 322.467 29.3231C322.467 31.2886 324.061 32.882 326.026 32.882ZM326.026 32.0347C327.524 32.0347 328.738 30.8206 328.738 29.3231C328.738 27.8255 327.524 26.6115 326.026 26.6115C324.529 26.6115 323.315 27.8255 323.315 29.3231C323.315 30.8206 324.529 32.0347 326.026 32.0347Z" fill="white" fill-opacity="0.5"/>
<g opacity="0.65">
<line x1="327.093" y1="14.6457" x2="330.817" y2="17.1526" stroke="white" stroke-width="3" stroke-linecap="round"/>
<path d="M330.208 14.0366L327.082 18.681" stroke="white" stroke-width="3" stroke-linecap="round"/>
</g>
<path opacity="0.35" d="M338.32 34.8428L339.368 37.77M340.308 35.7822L337.33 36.8487" stroke="white" stroke-linecap="round"/>
<path opacity="0.5" d="M357.499 4.87202L355.3 7.0706M357.499 7.07062L355.263 4.83423" stroke="white" stroke-linecap="round"/>
<defs>
<linearGradient id="paint0_linear" x1="50.4649" y1="-5.10713" x2="223.421" y2="202.51" gradientUnits="userSpaceOnUse">
<stop stop-color="#242424"/>
<stop offset="0.921875" stop-color="#3E70DF"/>
</linearGradient>
<linearGradient id="paint1_linear" x1="50.4649" y1="-5.10713" x2="223.421" y2="202.51" gradientUnits="userSpaceOnUse">
<stop stop-color="#242424"/>
<stop offset="0.921875" stop-color="#3E70DF"/>
</linearGradient>
<linearGradient id="paint2_linear" x1="374.404" y1="91.0632" x2="212.369" y2="13.9923" gradientUnits="userSpaceOnUse">
<stop offset="0.015625" stop-color="#C4C4C4" stop-opacity="0"/>
<stop offset="0.213542" stop-color="#C4C4C4" stop-opacity="0.897597"/>
<stop offset="0.458333" stop-color="#C4C4C4"/>
<stop offset="0.75" stop-color="#C4C4C4" stop-opacity="0.817242"/>
<stop offset="0.923278" stop-color="#C4C4C4" stop-opacity="0"/>
</linearGradient>
<linearGradient id="paint3_linear" x1="391.875" y1="93.1872" x2="198.323" y2="-4.04422" gradientUnits="userSpaceOnUse">
<stop offset="0.015625" stop-color="#C4C4C4" stop-opacity="0"/>
<stop offset="0.213542" stop-color="#C4C4C4" stop-opacity="0.897597"/>
<stop offset="0.458333" stop-color="#C4C4C4"/>
<stop offset="0.75" stop-color="#C4C4C4" stop-opacity="0.817242"/>
<stop offset="0.923278" stop-color="#C4C4C4" stop-opacity="0"/>
</linearGradient>
<linearGradient id="paint4_linear" x1="374.404" y1="91.0639" x2="212.369" y2="13.993" gradientUnits="userSpaceOnUse">
<stop offset="0.015625" stop-opacity="0"/>
<stop offset="0.213542" stop-opacity="0.897597"/>
<stop offset="0.458333"/>
<stop offset="0.863963" stop-opacity="0.817242"/>
<stop offset="0.973801" stop-opacity="0"/>
</linearGradient>
<linearGradient id="paint5_linear" x1="404.635" y1="94.7821" x2="194.586" y2="-7.66901" gradientUnits="userSpaceOnUse">
<stop offset="0.015625" stop-opacity="0"/>
<stop offset="0.213542" stop-opacity="0.897597"/>
<stop offset="0.458333"/>
<stop offset="0.818031" stop-opacity="0.817242"/>
<stop offset="0.96152" stop-opacity="0"/>
</linearGradient>
<linearGradient id="paint6_linear" x1="136.155" y1="83.7821" x2="40.9911" y2="17.8585" gradientUnits="userSpaceOnUse">
<stop offset="0.015625" stop-opacity="0"/>
<stop offset="0.213542" stop-opacity="0.897597"/>
<stop offset="0.458333"/>
<stop offset="0.818031" stop-opacity="0.817242"/>
<stop offset="0.96152" stop-opacity="0"/>
</linearGradient>
<linearGradient id="paint7_linear" x1="101.066" y1="78.7378" x2="50.0285" y2="49.757" gradientUnits="userSpaceOnUse">
<stop offset="0.015625" stop-opacity="0"/>
<stop offset="0.213542" stop-opacity="0.897597"/>
<stop offset="0.458333"/>
<stop offset="0.818031" stop-opacity="0.817242"/>
<stop offset="0.96152" stop-opacity="0"/>
</linearGradient>
<linearGradient id="paint8_linear" x1="136.156" y1="77.4024" x2="85.6491" y2="24.2382" gradientUnits="userSpaceOnUse">
<stop offset="0.015625" stop-opacity="0"/>
<stop offset="0.213542" stop-opacity="0.897597"/>
<stop offset="0.458333"/>
<stop offset="0.755914" stop-opacity="0.817242"/>
<stop offset="0.96152" stop-opacity="0"/>
</linearGradient>
<linearGradient id="paint9_linear" x1="338.649" y1="73.6514" x2="330.397" y2="29.2717" gradientUnits="userSpaceOnUse">
<stop stop-color="#FF6B5C"/>
<stop offset="1" stop-color="#FEBA61"/>
</linearGradient>
<linearGradient id="paint10_linear" x1="306.192" y1="40.0769" x2="296.887" y2="62.1341" gradientUnits="userSpaceOnUse">
<stop stop-color="white"/>
<stop offset="1" stop-color="white" stop-opacity="0"/>
</linearGradient>
<linearGradient id="paint11_linear" x1="352.875" y1="69.1065" x2="271.528" y2="43.826" gradientUnits="userSpaceOnUse">
<stop stop-color="#FF6B5C"/>
<stop offset="1" stop-color="#FEBA61"/>
</linearGradient>
</defs>
</svg>
