<svg fill="none" xmlns="http://www.w3.org/2000/svg">
<g style="mix-blend-mode:multiply" opacity="0.15">
<path d="M507.854 105.784C495.557 97.3701 485.985 70.2172 485.985 70.2172L164.867 441.008L457.653 604.025L659.833 167.694L653.18 153.964C653.18 153.964 630.611 156.331 618.255 151.714C600.735 145.167 593.626 123.527 593.626 123.527C593.626 123.527 572.392 134.077 559.082 126.792C545.06 119.118 539.18 102.474 539.18 102.474C539.18 102.474 520.151 114.198 507.854 105.784Z" fill="url(#paint0_linear)"/>
<path d="M507.854 105.784C495.557 97.3701 485.985 70.2172 485.985 70.2172L164.867 441.008L457.653 604.025L659.833 167.694L653.18 153.964C653.18 153.964 630.611 156.331 618.255 151.714C600.735 145.167 593.626 123.527 593.626 123.527C593.626 123.527 572.392 134.077 559.082 126.792C545.06 119.118 539.18 102.474 539.18 102.474C539.18 102.474 520.151 114.198 507.854 105.784Z" fill="url(#paint1_linear)"/>
</g>
<g style="mix-blend-mode:multiply" opacity="0.1">
<path d="M522.107 76.8604C509.811 68.4465 488.134 74.6306 488.134 74.6306L459.498 82.2857L58.6916 526.807L459.498 697.331L685.408 147.686C685.408 147.686 666.269 152.699 653.816 153.816C648.943 145.157 635.945 125.223 627.014 120.576C611.177 112.336 593.626 123.527 593.626 123.527C593.626 123.527 585.773 105.235 572.463 97.9499C558.441 90.2756 539.179 102.474 539.179 102.474C539.179 102.474 534.404 85.2743 522.107 76.8604Z" fill="url(#paint2_linear)"/>
<path d="M522.107 76.8604C509.811 68.4465 488.134 74.6306 488.134 74.6306L459.498 82.2857L58.6916 526.807L459.498 697.331L685.408 147.686C685.408 147.686 666.269 152.699 653.816 153.816C648.943 145.157 635.945 125.223 627.014 120.576C611.177 112.336 593.626 123.527 593.626 123.527C593.626 123.527 585.773 105.235 572.463 97.9499C558.441 90.2756 539.179 102.474 539.179 102.474C539.179 102.474 534.404 85.2743 522.107 76.8604Z" fill="url(#paint3_linear)"/>
</g>
<path d="M501.139 73.1921L499.92 96.9228M511.046 72.7816L503.512 101.425M521.249 76.5608L507.685 104.695M529.078 83.6033L512.378 107.134M534.047 91.6046L518.262 108.172M492.026 72.9594L496.507 92.3025M536.133 96.2901L525.671 106.967M544.333 99.0273L545.616 114.725M554.359 95.7113L549.31 119.367M563.925 95.4819L554.602 123.502M572.63 97.9073L561.135 126.914M579.666 102.778L568.666 128.451M584.978 108.628L578.532 127.626M589.754 116.154L588.765 124.267M612.413 117.708L599.078 132.423M619.394 118.225L604.523 141.149M625.51 120.281L612.082 147.75M630.6 123.805L621.111 152.084M632.334 153.931L635.204 127.913M638.533 131.548L643.416 154.21M648.976 145.795L659.091 152.686" stroke="black" stroke-linecap="round" stroke-linejoin="round"/>
<path d="M501.139 73.1921L499.92 96.9228M511.046 72.7816L503.512 101.425M521.249 76.5608L507.685 104.695M529.078 83.6033L512.378 107.134M534.047 91.6046L518.262 108.172M492.026 72.9594L496.507 92.3025M536.133 96.2901L525.671 106.967M544.333 99.0273L545.616 114.725M554.359 95.7113L549.31 119.367M563.925 95.4819L554.602 123.502M572.63 97.9073L561.135 126.914M579.666 102.778L568.666 128.451M584.978 108.628L578.532 127.626M589.754 116.154L588.765 124.267M612.413 117.708L599.078 132.423M619.394 118.225L604.523 141.149M625.51 120.281L612.082 147.75M630.6 123.805L621.111 152.084M632.334 153.931L635.204 127.913M638.533 131.548L643.416 154.21M648.976 145.795L659.091 152.686" stroke="url(#paint4_linear)" stroke-linecap="round" stroke-linejoin="round"/>
<path d="M501.139 73.1921L499.92 96.9228M511.046 72.7816L503.512 101.425M521.249 76.5608L507.685 104.695M529.078 83.6033L512.378 107.134M534.047 91.6046L518.262 108.172M492.026 72.9594L496.507 92.3025M536.133 96.2901L525.671 106.967M544.333 99.0273L545.616 114.725M554.359 95.7113L549.31 119.367M563.925 95.4819L554.602 123.502M572.63 97.9073L561.135 126.914M579.666 102.778L568.666 128.451M584.978 108.628L578.532 127.626M589.754 116.154L588.765 124.267M612.413 117.708L599.078 132.423M619.394 118.225L604.523 141.149M625.51 120.281L612.082 147.75M630.6 123.805L621.111 152.084M632.334 153.931L635.204 127.913M638.533 131.548L643.416 154.21M648.976 145.795L659.091 152.686" stroke="url(#paint5_linear)" stroke-linecap="round" stroke-linejoin="round"/>
<path d="M460.49 82.166C460.49 82.166 494.694 67.2448 515.367 73.9054C540.484 81.9977 535.128 116.231 559.517 126.421C583.745 136.544 603.069 108.141 626.218 120.668C645.003 130.832 658.534 165.71 658.534 165.71M486.725 70.9243C486.725 70.9243 494.569 95.5433 506.811 104.187C526.923 118.389 545.56 88.7346 568.761 96.4296C595.772 105.388 591.766 140.951 618.331 151.232C642.75 160.682 684.984 146.932 684.984 146.932" stroke="black" stroke-width="2" stroke-linecap="round" stroke-linejoin="round"/>
<path d="M460.49 82.166C460.49 82.166 494.694 67.2448 515.367 73.9054C540.484 81.9977 535.128 116.231 559.517 126.421C583.745 136.544 603.069 108.141 626.218 120.668C645.003 130.832 658.534 165.71 658.534 165.71M486.725 70.9243C486.725 70.9243 494.569 95.5433 506.811 104.187C526.923 118.389 545.56 88.7346 568.761 96.4296C595.772 105.388 591.766 140.951 618.331 151.232C642.75 160.682 684.984 146.932 684.984 146.932" stroke="url(#paint6_linear)" stroke-width="2" stroke-linecap="round" stroke-linejoin="round"/>
<path opacity="0.75" fill-rule="evenodd" clip-rule="evenodd" d="M702.145 75.373C713.45 75.373 722.614 66.209 722.614 54.9045C722.614 43.6001 713.45 34.436 702.145 34.436C690.841 34.436 681.677 43.6001 681.677 54.9045C681.677 66.209 690.841 75.373 702.145 75.373ZM702.145 70.4996C710.758 70.4996 717.74 63.5174 717.74 54.9045C717.74 46.2916 710.758 39.3094 702.145 39.3094C693.532 39.3094 686.55 46.2916 686.55 54.9045C686.55 63.5174 693.532 70.4996 702.145 70.4996Z" fill="white"/>
<path opacity="0.5" fill-rule="evenodd" clip-rule="evenodd" d="M757.018 91.8581C766.123 91.8581 773.504 84.4772 773.504 75.3724C773.504 66.2676 766.123 58.8867 757.018 58.8867C747.914 58.8867 740.533 66.2676 740.533 75.3724C740.533 84.4772 747.914 91.8581 757.018 91.8581ZM757.019 87.9334C763.956 87.9334 769.58 82.3098 769.58 75.3728C769.58 68.4358 763.956 62.8123 757.019 62.8123C750.082 62.8123 744.459 68.4358 744.459 75.3728C744.459 82.3098 750.082 87.9334 757.019 87.9334Z" fill="white"/>
<path opacity="0.75" fill-rule="evenodd" clip-rule="evenodd" d="M767.931 36.6635C783.062 36.6635 795.329 24.3969 795.329 9.26534C795.329 -5.86624 783.062 -18.1328 767.931 -18.1328C752.799 -18.1328 740.533 -5.86624 740.533 9.26534C740.533 24.3969 752.799 36.6635 767.931 36.6635ZM767.932 30.14C779.461 30.14 788.807 20.794 788.807 9.26519C788.807 -2.26366 779.461 -11.6096 767.932 -11.6096C756.403 -11.6096 747.058 -2.26366 747.058 9.26519C747.058 20.794 756.403 30.14 767.932 30.14Z" fill="white"/>
<path fill-rule="evenodd" clip-rule="evenodd" d="M647.272 91.858C652.402 91.858 656.561 87.6991 656.561 82.5689C656.561 77.4387 652.402 73.2798 647.272 73.2798C642.142 73.2798 637.983 77.4387 637.983 82.5689C637.983 87.6991 642.142 91.858 647.272 91.858ZM647.272 89.6465C651.181 89.6465 654.349 86.4779 654.349 82.5691C654.349 78.6604 651.181 75.4917 647.272 75.4917C643.363 75.4917 640.194 78.6604 640.194 82.5691C640.194 86.4779 643.363 89.6465 647.272 89.6465Z" fill="white" fill-opacity="0.5"/>
<g opacity="0.65">
<line x1="646.703" y1="44.9165" x2="660.431" y2="54.1569" stroke="white" stroke-width="3" stroke-linecap="round"/>
<path d="M658.187 42.6694L650.028 54.7917" stroke="white" stroke-width="3" stroke-linecap="round"/>
</g>
<path opacity="0.35" d="M679.359 96.9762L682.095 104.616M684.547 99.4281L676.776 102.212" stroke="white" stroke-linecap="round"/>
<path opacity="0.5" d="M729.418 18.75L723.68 24.4885M729.418 24.4885L723.581 18.6514" stroke="white" stroke-linecap="round"/>
<defs>
<linearGradient id="paint0_linear" x1="671.685" y1="169.407" x2="455.638" y2="66.6459" gradientUnits="userSpaceOnUse">
<stop offset="0.015625" stop-color="#C4C4C4" stop-opacity="0"/>
<stop offset="0.213542" stop-color="#C4C4C4" stop-opacity="0.897597"/>
<stop offset="0.458333" stop-color="#C4C4C4"/>
<stop offset="0.75" stop-color="#C4C4C4" stop-opacity="0.817242"/>
<stop offset="0.923278" stop-color="#C4C4C4" stop-opacity="0"/>
</linearGradient>
<linearGradient id="paint1_linear" x1="694.98" y1="172.239" x2="436.909" y2="42.5974" gradientUnits="userSpaceOnUse">
<stop offset="0.015625" stop-color="#C4C4C4" stop-opacity="0"/>
<stop offset="0.213542" stop-color="#C4C4C4" stop-opacity="0.897597"/>
<stop offset="0.458333" stop-color="#C4C4C4"/>
<stop offset="0.75" stop-color="#C4C4C4" stop-opacity="0.817242"/>
<stop offset="0.923278" stop-color="#C4C4C4" stop-opacity="0"/>
</linearGradient>
<linearGradient id="paint2_linear" x1="671.684" y1="169.408" x2="455.637" y2="66.6467" gradientUnits="userSpaceOnUse">
<stop offset="0.015625" stop-opacity="0"/>
<stop offset="0.213542" stop-opacity="0.897597"/>
<stop offset="0.458333"/>
<stop offset="0.863963" stop-opacity="0.817242"/>
<stop offset="0.973801" stop-opacity="0"/>
</linearGradient>
<linearGradient id="paint3_linear" x1="711.991" y1="174.366" x2="431.926" y2="37.7641" gradientUnits="userSpaceOnUse">
<stop offset="0.015625" stop-opacity="0"/>
<stop offset="0.213542" stop-opacity="0.897597"/>
<stop offset="0.458333"/>
<stop offset="0.818031" stop-opacity="0.817242"/>
<stop offset="0.96152" stop-opacity="0"/>
</linearGradient>
<linearGradient id="paint4_linear" x1="623.479" y1="145.868" x2="612.476" y2="86.6951" gradientUnits="userSpaceOnUse">
<stop stop-color="#FF6B5C"/>
<stop offset="1" stop-color="#FEBA61"/>
</linearGradient>
<linearGradient id="paint5_linear" x1="580.203" y1="101.102" x2="567.796" y2="130.512" gradientUnits="userSpaceOnUse">
<stop stop-color="white"/>
<stop offset="1" stop-color="white" stop-opacity="0"/>
</linearGradient>
<linearGradient id="paint6_linear" x1="642.446" y1="139.808" x2="533.984" y2="106.101" gradientUnits="userSpaceOnUse">
<stop stop-color="#FF6B5C"/>
<stop offset="1" stop-color="#FEBA61"/>
</linearGradient>
</defs>
</svg>
