<svg fill="none" xmlns="http://www.w3.org/2000/svg">
<path d="M-0.193359 0.628906H2560.22V229.942C2560.22 229.942 2550.14 192.173 2449.2 162.184C2116.27 63.2725 419.662 -10.7569 182.834 75.4195C150.088 87.3347 172.953 180.478 103.884 193.539C61.4725 201.559 101.994 414.55 14.1347 345.674C1.78146 335.989 -0.193359 307.036 -0.193359 307.036V0.628906Z" fill="#C4C4C4"/>
<path d="M-0.193359 0.628906H2560.22V229.942C2560.22 229.942 2550.14 192.173 2449.2 162.184C2116.27 63.2725 419.662 -10.7569 182.834 75.4195C150.088 87.3347 172.953 180.478 103.884 193.539C61.4725 201.559 101.994 414.55 14.1347 345.674C1.78146 335.989 -0.193359 307.036 -0.193359 307.036V0.628906Z" fill="url(#paint0_linear)"/>
<defs>
<linearGradient id="paint0_linear" x1="406.744" y1="-33.9714" x2="-22.3767" y2="137.674" gradientUnits="userSpaceOnUse">
<stop stop-color="#242424"/>
<stop offset="0.921875" stop-color="#3E70DF"/>
</linearGradient>
</defs>
</svg>
