<svg fill="none" xmlns="http://www.w3.org/2000/svg">
<g opacity="0.5" filter="url(#filter0_f)">
<g filter="url(#filter1_d)">
<path opacity="0.75" d="M34.0032 88.2106C34.0032 96.1975 33.0976 103.41 31.644 108.61C30.9162 111.214 30.0587 113.284 29.128 114.693C28.1843 116.12 27.2472 116.75 26.3853 116.75C25.5233 116.75 24.5862 116.12 23.6425 114.693C22.7118 113.284 21.8544 111.214 21.1266 108.61C19.6729 103.41 18.7673 96.1975 18.7673 88.2106C18.7673 80.2236 19.6729 73.0111 21.1266 67.811C21.8544 65.2075 22.7118 63.1368 23.6425 61.7287C24.5862 60.3008 25.5233 59.6709 26.3853 59.6709C27.2472 59.6709 28.1843 60.3008 29.128 61.7287C30.0587 63.1368 30.9162 65.2075 31.644 67.811C33.0976 73.0111 34.0032 80.2236 34.0032 88.2106ZM26.3851 110.835C27.498 110.835 28.4423 110.033 29.2098 108.872C29.9903 107.691 30.6738 106.015 31.2402 103.989C32.3749 99.9304 33.0702 94.3516 33.0702 88.2097C33.0702 82.0677 32.3749 76.4889 31.2402 72.43C30.6738 70.404 29.9903 68.7281 29.2098 67.5472C28.4423 66.386 27.498 65.5842 26.3851 65.5842C25.2723 65.5842 24.328 66.386 23.5605 67.5472C22.78 68.7281 22.0964 70.404 21.5301 72.43C20.3954 76.4889 19.7 82.0677 19.7 88.2097C19.7 94.3516 20.3954 99.9304 21.5301 103.989C22.0964 106.015 22.78 107.691 23.5605 108.872C24.328 110.033 25.2723 110.835 26.3851 110.835Z" fill="black" stroke="black"/>
<mask id="mask0" mask-type="alpha" maskUnits="userSpaceOnUse" x="18" y="59" width="17" height="59">
<path d="M34.0032 88.2106C34.0032 96.1975 33.0976 103.41 31.644 108.61C30.9162 111.214 30.0587 113.284 29.128 114.693C28.1843 116.12 27.2472 116.75 26.3853 116.75C25.5233 116.75 24.5862 116.12 23.6425 114.693C22.7118 113.284 21.8544 111.214 21.1266 108.61C19.6729 103.41 18.7673 96.1975 18.7673 88.2106C18.7673 80.2236 19.6729 73.0111 21.1266 67.811C21.8544 65.2075 22.7118 63.1368 23.6425 61.7287C24.5862 60.3008 25.5233 59.6709 26.3853 59.6709C27.2472 59.6709 28.1843 60.3008 29.128 61.7287C30.0587 63.1368 30.9162 65.2075 31.644 67.811C33.0976 73.0111 34.0032 80.2236 34.0032 88.2106ZM26.3851 110.835C27.498 110.835 28.4423 110.033 29.2098 108.872C29.9903 107.691 30.6738 106.015 31.2402 103.989C32.3749 99.9304 33.0702 94.3516 33.0702 88.2097C33.0702 82.0677 32.3749 76.4889 31.2402 72.43C30.6738 70.404 29.9903 68.7281 29.2098 67.5472C28.4423 66.386 27.498 65.5842 26.3851 65.5842C25.2723 65.5842 24.328 66.386 23.5605 67.5472C22.78 68.7281 22.0964 70.404 21.5301 72.43C20.3954 76.4889 19.7 82.0677 19.7 88.2097C19.7 94.3516 20.3954 99.9304 21.5301 103.989C22.0964 106.015 22.78 107.691 23.5605 108.872C24.328 110.033 25.2723 110.835 26.3851 110.835Z" fill="#595959" stroke="#595959"/>
</mask>
<g mask="url(#mask0)">
<ellipse cx="30.4042" cy="108.118" rx="4.17956" ry="14.9512" fill="#5A85E3"/>
</g>
</g>
<path d="M7.93699 83.9303V92.9303H7.03847L5.80647 86.5703V92.9303H4.74121V83.9303H5.63973L6.87173 85.2903V83.9303H7.93699Z" fill="white"/>
<path d="M11.2009 83.9903V92.9303H10.2051V91.8903C10.1125 92.3036 10.0044 92.6169 9.8809 92.8303C9.7574 93.0303 9.62617 93.1303 9.48722 93.1303C9.1661 93.1303 8.90828 92.7103 8.71375 91.8703C8.51923 91.0169 8.42196 89.7369 8.42196 88.0303V83.9903H9.4687V87.2503C9.4687 87.9969 9.49648 88.5303 9.55206 88.8503C9.60764 89.1703 9.68947 89.3303 9.79754 89.3303C9.89943 89.3303 9.98434 89.1569 10.0523 88.8103C10.1202 88.4503 10.1542 87.8903 10.1542 87.1303V83.9903H11.2009Z" fill="white"/>
<path d="M13.0269 93.1303C12.7397 93.1303 12.4819 92.8903 12.2534 92.4103C12.028 91.9303 11.8504 91.2569 11.7208 90.3903C11.5942 89.5236 11.5309 88.5436 11.5309 87.4503C11.5309 86.3569 11.5942 86.3836 11.7208 85.5303C11.8504 84.6636 12.028 83.9903 12.2534 83.5103C12.4819 83.0303 12.7397 82.7903 13.0269 82.7903C13.3356 82.7903 13.5996 83.0769 13.8189 83.6503C14.0381 84.2236 14.1894 84.0169 14.2727 85.0303L13.4622 86.7503C13.3634 85.7903 13.2167 85.3103 13.0222 85.3103C12.8987 85.3103 12.7953 85.4969 12.7119 85.8703C12.6316 86.2436 12.5915 86.7703 12.5915 87.4503C12.5915 88.1436 12.6316 88.6769 12.7119 89.0503C12.7953 89.4236 12.8987 89.6103 13.0222 89.6103C13.2167 89.6103 13.3634 89.1303 13.4622 88.1703L14.2727 89.8903C14.1894 90.9036 14.0381 91.6969 13.8189 92.2703C13.5996 92.8436 13.3356 93.1303 13.0269 93.1303Z" fill="white"/>
<path d="M14.5147 79.0903H15.5614V92.9303H14.5147V79.0903Z" fill="white"/>
<path d="M18.7209 87.4503C18.7209 87.5169 18.7163 87.8703 18.707 88.5103H16.947C16.9841 88.9236 17.0458 89.2436 17.1323 89.4703C17.2188 89.6836 17.3268 89.7903 17.4565 89.7903C17.5677 89.7903 17.6603 89.7303 17.7344 89.6103C17.8116 89.4903 17.895 89.2836 17.9845 88.9903L18.531 91.3703C18.284 92.5436 17.915 93.1303 17.4241 93.1303C17.1184 93.1303 16.8498 92.8903 16.6182 92.4103C16.3866 91.9169 16.2075 91.2369 16.0809 90.3703C15.9543 89.5036 15.891 88.5303 15.891 87.4503C15.891 86.3569 15.9528 85.3836 16.0763 84.5303C16.2029 83.6636 16.3743 82.9903 16.5904 82.5103C16.8096 82.0303 17.0551 81.7903 17.3268 81.7903C17.5831 81.7903 17.8162 82.0103 18.0262 82.4503C18.2392 82.8903 18.4075 83.5369 18.531 84.3903C18.6576 85.2436 18.7209 86.2636 18.7209 87.4503ZM17.3361 84.8703C17.228 84.8703 17.1385 84.9969 17.0675 85.2503C16.9964 85.5036 16.9501 85.8636 16.9285 86.3303H17.7437C17.7221 85.8769 17.6757 85.5236 17.6047 85.2703C17.5337 85.0036 17.4442 84.8703 17.3361 84.8703Z" fill="white"/>
<path d="M20.3898 93.1303C20.1088 93.1303 19.8556 92.8903 19.6302 92.4103C19.4079 91.9169 19.2334 91.2436 19.1068 90.3903C18.9802 89.5236 18.9169 88.5436 18.9169 87.4503C18.9169 86.3569 18.9802 85.3836 19.1068 84.5303C19.2334 83.6636 19.4079 82.9903 19.6302 82.5103C19.8556 82.0303 20.1088 81.7903 20.3898 81.7903C20.6738 81.7903 20.927 82.0303 21.1493 82.5103C21.3747 82.9903 21.5492 83.6636 21.6727 84.5303C21.7993 85.3836 21.8626 86.3569 21.8626 87.4503C21.8626 88.5436 21.7993 89.5236 21.6727 90.3903C21.5492 91.2436 21.3747 91.9169 21.1493 92.4103C20.927 92.8903 20.6738 93.1303 20.3898 93.1303ZM20.3898 89.6103C20.5102 89.6103 20.609 89.4236 20.6862 89.0503C20.7634 88.6636 20.802 88.1303 20.802 87.4503C20.802 86.7703 20.7634 86.2436 20.6862 85.8703C20.609 85.4969 20.5102 85.3103 20.3898 85.3103C20.2693 85.3103 20.1705 85.4969 20.0934 85.8703C20.0162 86.2436 19.9776 86.7703 19.9776 87.4503C19.9776 88.1303 20.0162 88.6636 20.0934 89.0503C20.1705 89.4236 20.2693 89.6103 20.3898 89.6103Z" fill="white"/>
<path d="M24.0567 92.5503C23.8993 92.9369 23.6847 93.1303 23.4129 93.1303C23.0579 93.1303 22.7846 92.7636 22.5932 92.0303C22.4017 91.2836 22.306 90.1703 22.306 88.6903V85.8903H21.9586V82.5903H22.306V79.5303H23.3527V82.5903H23.8715V85.8903H23.3527V88.6503C23.3527 88.9836 23.3728 89.2436 23.4129 89.4303C23.4531 89.6169 23.5056 89.7103 23.5704 89.7103C23.66 89.7103 23.7387 89.6103 23.8066 89.4103L24.0567 92.5503Z" fill="white"/>
<path d="M24.3206 81.9903H25.3673V92.9303H24.3206V81.9903ZM24.8439 81.1103C24.6556 81.1103 24.5027 80.8969 24.3854 80.4703C24.2711 80.0303 24.214 79.4769 24.214 78.8103C24.214 78.1436 24.2711 77.5969 24.3854 77.1703C24.5027 76.7303 24.6556 76.5103 24.8439 76.5103C25.0354 76.5103 25.1882 76.7169 25.3024 77.1303C25.4167 77.5436 25.4738 78.0769 25.4738 78.7303C25.4738 79.4236 25.4167 79.9969 25.3024 80.4503C25.1882 80.8903 25.0354 81.1103 24.8439 81.1103Z" fill="white"/>
<path d="M28.6333 78.0903V92.9303H27.6375V92.0303C27.4863 92.7636 27.2547 93.1303 26.9428 93.1303C26.7205 93.1303 26.5152 92.9036 26.3268 92.4503C26.1416 91.9836 25.9933 91.3169 25.8822 90.4503C25.7741 89.5836 25.7201 88.5836 25.7201 87.4503C25.7201 86.3169 25.7741 85.3236 25.8822 84.4703C25.9933 83.6036 26.1416 82.9436 26.3268 82.4903C26.5152 82.0236 26.7205 81.7903 26.9428 81.7903C27.2238 81.7903 27.4384 82.1036 27.5866 82.7303V78.0903H28.6333ZM27.1929 89.6103C27.3133 89.6103 27.4121 89.4236 27.4893 89.0503C27.5665 88.6636 27.6051 88.1303 27.6051 87.4503C27.6051 86.7703 27.5665 86.2436 27.4893 85.8703C27.4121 85.4969 27.3133 85.3103 27.1929 85.3103C27.0725 85.3103 26.9737 85.4969 26.8965 85.8703C26.8193 86.2436 26.7807 86.7703 26.7807 87.4503C26.7807 88.1303 26.8193 88.6636 26.8965 89.0503C26.9737 89.4236 27.0725 89.6103 27.1929 89.6103Z" fill="white"/>
<path d="M31.7924 87.4503C31.7924 87.5169 31.7878 87.8703 31.7785 88.5103H30.0185C30.0556 88.9236 30.1173 89.2436 30.2038 89.4703C30.2902 89.6836 30.3983 89.7903 30.528 89.7903C30.6392 89.7903 30.7318 89.7303 30.8059 89.6103C30.8831 89.4903 30.9665 89.2836 31.056 88.9903L31.6025 91.3703C31.3555 92.5436 30.9865 93.1303 30.4956 93.1303C30.1899 93.1303 29.9213 92.8903 29.6897 92.4103C29.4581 91.9169 29.279 91.2369 29.1524 90.3703C29.0258 89.5036 28.9625 88.5303 28.9625 87.4503C28.9625 86.3569 29.0243 85.3836 29.1478 84.5303C29.2744 83.6636 29.4458 82.9903 29.6619 82.5103C29.8811 82.0303 30.1266 81.7903 30.3983 81.7903C30.6546 81.7903 30.8877 82.0103 31.0977 82.4503C31.3107 82.8903 31.479 83.5369 31.6025 84.3903C31.7291 85.2436 31.7924 86.2636 31.7924 87.4503ZM30.4076 84.8703C30.2995 84.8703 30.21 84.9969 30.139 85.2503C30.0679 85.5036 30.0216 85.8636 30 86.3303H30.8152C30.7935 85.8769 30.7472 85.5236 30.6762 85.2703C30.6052 85.0036 30.5157 84.8703 30.4076 84.8703Z" fill="white"/>
<path d="M7.33488 109.61C7.52632 109.917 7.67453 110.364 7.77951 110.95C7.8845 111.537 7.93699 112.244 7.93699 113.07C7.93699 114.297 7.81965 113.25 7.58499 113.93C7.35032 114.597 7.01068 112.93 6.56605 112.93H4.74121V102.93H6.47341C6.90569 102.93 7.23145 103.264 7.45067 103.93C7.67299 104.597 7.78415 105.484 7.78415 106.59C7.78415 107.244 7.74555 107.83 7.66836 108.35C7.59425 108.87 7.48309 109.29 7.33488 109.61ZM5.81573 106.23V108.31H6.3252C6.56296 108.31 6.68183 107.964 6.68183 107.27C6.68183 106.577 6.56296 106.23 6.3252 106.23H5.81573ZM6.47341 110.63C6.71426 110.63 6.83468 111.264 6.83468 110.53C6.83468 109.797 6.71426 109.43 6.47341 109.43H5.81573V110.63H6.47341Z" fill="white"/>
<path d="M8.32343 102.93H9.41648V112.27H10.8801V115.93L8.32343 114.93V102.93Z" fill="white"/>
<path d="M13.4365 113.49H12.2045L11.9868 115.93H10.8752L12.2925 102.93H13.367L14.7842 116.93L13.6541 115.93L13.4365 113.49ZM13.1354 111.09L12.8205 107.57L12.5055 111.09H13.1354Z" fill="white"/>
<path d="M16.1675 117.25C15.8989 117.25 15.6364 117.124 15.3802 116.87C15.127 116.604 14.9185 116.25 14.7549 115.81L15.1069 112.37C15.2613 112.757 15.4342 113.07 15.6256 113.31C15.8171 113.537 16.0008 113.65 16.1768 113.65C16.3281 113.65 16.4362 113.59 16.501 113.47C16.5658 113.337 16.5983 113.144 16.5983 112.89C16.5983 112.597 16.555 112.377 16.4686 112.23C16.3852 112.084 16.2463 111.924 16.0517 111.75C15.8016 111.524 15.5932 111.284 15.4265 111.03C15.2597 110.764 15.1146 110.337 14.9911 109.75C14.8676 109.15 14.8058 108.344 14.8058 107.33C14.8058 106.45 14.863 105.65 14.9772 104.93C15.0915 104.21 15.2613 103.644 15.4867 103.23C15.7152 102.817 15.9915 102.61 16.3157 102.61C16.538 102.61 16.7557 102.717 16.9688 102.93C17.1849 103.13 17.3748 103.43 17.5385 103.83L17.2096 107.25C16.8916 106.557 16.5905 106.21 16.3065 106.21C16.0255 106.21 15.885 106.504 15.885 107.09C15.885 107.37 15.9267 107.584 16.0101 107.73C16.0934 107.864 16.2308 108.01 16.4223 108.17C16.6693 108.37 16.8777 108.604 17.0475 108.87C17.2173 109.124 17.364 109.544 17.4875 110.13C17.6141 110.717 17.6774 111.517 17.6774 112.53C17.6774 113.41 17.6203 114.21 17.506 114.93C17.3918 115.637 17.2204 116.204 16.9919 116.63C16.7665 117.044 16.4917 117.25 16.1675 117.25Z" fill="white"/>
<path d="M18.6614 106.59H17.712V102.93H20.704V106.59H19.7545V116.93H18.6614V106.59Z" fill="white"/>
</g>
<g opacity="0.5">
<g filter="url(#filter2_f)">
<path d="M36.5507 31.5539L36.2568 48.5054M38.9402 31.2607L37.123 51.7214M41.401 33.9604L38.1295 54.057M43.2893 38.991L39.2614 55.7992M44.4877 44.7065L40.6805 56.5412M34.3528 31.3877L35.4336 45.205M44.9908 48.0535L42.4674 55.6804M46.9684 50.0087L47.2779 61.2221M49.3865 47.64L48.1686 64.5377M51.6936 47.4761L49.4451 67.4918M53.793 49.2087L51.0208 69.9292M55.49 52.6881L52.8371 71.0267M56.7714 56.8668L55.2165 70.4376M57.9232 62.2429L57.6847 68.0378M63.388 63.3528L60.172 73.8638M65.0717 63.7222L61.4852 80.0976M66.5469 65.1905L63.3082 84.8126M67.7744 67.7084L65.486 87.9084M68.1928 89.2281L68.8849 70.6425M69.6878 73.2391L70.8654 89.4272M72.2064 83.4162L74.6459 88.3388" stroke="black" stroke-linecap="round" stroke-linejoin="round"/>
<path d="M36.5507 31.5539L36.2568 48.5054M38.9402 31.2607L37.123 51.7214M41.401 33.9604L38.1295 54.057M43.2893 38.991L39.2614 55.7992M44.4877 44.7065L40.6805 56.5412M34.3528 31.3877L35.4336 45.205M44.9908 48.0535L42.4674 55.6804M46.9684 50.0087L47.2779 61.2221M49.3865 47.64L48.1686 64.5377M51.6936 47.4761L49.4451 67.4918M53.793 49.2087L51.0208 69.9292M55.49 52.6881L52.8371 71.0267M56.7714 56.8668L55.2165 70.4376M57.9232 62.2429L57.6847 68.0378M63.388 63.3528L60.172 73.8638M65.0717 63.7222L61.4852 80.0976M66.5469 65.1905L63.3082 84.8126M67.7744 67.7084L65.486 87.9084M68.1928 89.2281L68.8849 70.6425M69.6878 73.2391L70.8654 89.4272M72.2064 83.4162L74.6459 88.3388" stroke="url(#paint0_linear)" stroke-linecap="round" stroke-linejoin="round"/>
</g>
<g filter="url(#filter3_f)">
<path d="M26.7469 37.9645C26.7469 37.9645 34.9963 27.3059 39.9823 32.0637C46.0401 37.8442 44.7484 62.2982 50.6306 69.5771C56.474 76.808 61.1346 56.5192 66.7177 65.4672C71.2481 72.7282 74.5116 97.6423 74.5116 97.6423M33.0743 29.9343C33.0743 29.9343 34.9664 47.5203 37.9187 53.6948C42.7694 63.8392 47.2643 42.6566 52.8601 48.1534C59.3747 54.5527 58.4085 79.9559 64.8155 87.3C70.705 94.0508 80.891 84.2285 80.891 84.2285" stroke="black" stroke-width="4" stroke-linecap="round" stroke-linejoin="round"/>
<path d="M26.7469 37.9645C26.7469 37.9645 34.9963 27.3059 39.9823 32.0637C46.0401 37.8442 44.7484 62.2982 50.6306 69.5771C56.474 76.808 61.1346 56.5192 66.7177 65.4672C71.2481 72.7282 74.5116 97.6423 74.5116 97.6423M33.0743 29.9343C33.0743 29.9343 34.9664 47.5203 37.9187 53.6948C42.7694 63.8392 47.2643 42.6566 52.8601 48.1534C59.3747 54.5527 58.4085 79.9559 64.8155 87.3C70.705 94.0508 80.891 84.2285 80.891 84.2285" stroke="url(#paint1_linear)" stroke-width="4" stroke-linecap="round" stroke-linejoin="round"/>
</g>
</g>
<path opacity="0.75" fill-rule="evenodd" clip-rule="evenodd" d="M116.853 101.592C124.641 101.592 130.953 95.2788 130.953 87.4916C130.953 79.7044 124.641 73.3916 116.853 73.3916C109.066 73.3916 102.753 79.7044 102.753 87.4916C102.753 95.2788 109.066 101.592 116.853 101.592ZM116.853 98.2339C122.786 98.2339 127.596 93.4242 127.596 87.4911C127.596 81.558 122.786 76.7482 116.853 76.7482C110.92 76.7482 106.11 81.558 106.11 87.4911C106.11 93.4242 110.92 98.2339 116.853 98.2339Z" fill="white"/>
<path opacity="0.25" fill-rule="evenodd" clip-rule="evenodd" d="M223.415 139.382C229.136 139.382 233.775 132.005 233.775 122.905C233.775 113.805 229.136 106.428 223.415 106.428C217.693 106.428 213.054 113.805 213.054 122.905C213.054 132.005 217.693 139.382 223.415 139.382ZM223.414 135.458C227.774 135.458 231.308 129.838 231.308 122.904C231.308 115.971 227.774 110.35 223.414 110.35C219.055 110.35 215.521 115.971 215.521 122.904C215.521 129.838 219.055 135.458 223.414 135.458Z" fill="white"/>
<path opacity="0.75" fill-rule="evenodd" clip-rule="evenodd" d="M157.859 32.864C166.931 32.864 174.285 26.5918 174.285 18.8546C174.285 11.1174 166.931 4.84521 157.859 4.84521C148.787 4.84521 141.433 11.1174 141.433 18.8546C141.433 26.5918 148.787 32.864 157.859 32.864ZM157.859 29.5281C164.771 29.5281 170.374 24.7492 170.374 18.8542C170.374 12.9592 164.771 8.18038 157.859 8.18038C150.948 8.18038 145.344 12.9592 145.344 18.8542C145.344 24.7492 150.948 29.5281 157.859 29.5281Z" fill="white"/>
<path opacity="0.1" fill-rule="evenodd" clip-rule="evenodd" d="M263.638 145.57C272.71 145.57 280.064 139.298 280.064 131.561C280.064 123.823 272.71 117.551 263.638 117.551C254.566 117.551 247.212 123.823 247.212 131.561C247.212 139.298 254.566 145.57 263.638 145.57ZM263.638 142.234C270.55 142.234 276.153 137.455 276.153 131.56C276.153 125.665 270.55 120.886 263.638 120.886C256.727 120.886 251.124 125.665 251.124 131.56C251.124 137.455 256.727 142.234 263.638 142.234Z" fill="white"/>
<path opacity="0.5" fill-rule="evenodd" clip-rule="evenodd" d="M190.631 100.387C199.702 100.387 207.056 92.4745 207.056 82.714C207.056 72.9535 199.702 65.041 190.631 65.041C181.559 65.041 174.205 72.9535 174.205 82.714C174.205 92.4745 181.559 100.387 190.631 100.387ZM190.631 96.1787C197.543 96.1787 203.146 90.1502 203.146 82.7136C203.146 75.277 197.543 69.2484 190.631 69.2484C183.719 69.2484 178.116 75.277 178.116 82.7136C178.116 90.1502 183.719 96.1787 190.631 96.1787Z" fill="white"/>
<path opacity="0.1" fill-rule="evenodd" clip-rule="evenodd" d="M53.9442 122.905C56.2567 122.905 58.1313 120.373 58.1313 117.25C58.1313 114.127 56.2567 111.595 53.9442 111.595C51.6317 111.595 49.7571 114.127 49.7571 117.25C49.7571 120.373 51.6317 122.905 53.9442 122.905ZM53.9442 121.559C55.7061 121.559 57.1344 119.63 57.1344 117.25C57.1344 114.87 55.7061 112.941 53.9442 112.941C52.1823 112.941 50.754 114.87 50.754 117.25C50.754 119.63 52.1823 121.559 53.9442 121.559Z" fill="white"/>
<path opacity="0.25" fill-rule="evenodd" clip-rule="evenodd" d="M106.27 134.609C112.542 134.609 117.627 129.524 117.627 123.252C117.627 116.98 112.542 111.896 106.27 111.896C99.9982 111.896 94.9138 116.98 94.9138 123.252C94.9138 129.524 99.9982 134.609 106.27 134.609ZM106.271 131.905C111.049 131.905 114.923 128.031 114.923 123.253C114.923 118.474 111.049 114.6 106.271 114.6C101.492 114.6 97.618 118.474 97.618 123.253C97.618 128.031 101.492 131.905 106.271 131.905Z" fill="white"/>
<path opacity="0.75" fill-rule="evenodd" clip-rule="evenodd" d="M310.741 61.9845C327.684 61.9845 341.419 48.2496 341.419 31.3067C341.419 14.3638 327.684 0.628906 310.741 0.628906C293.798 0.628906 280.063 14.3638 280.063 31.3067C280.063 48.2496 293.798 61.9845 310.741 61.9845ZM310.741 54.6806C323.65 54.6806 334.115 44.2159 334.115 31.307C334.115 18.3982 323.65 7.93345 310.741 7.93345C297.833 7.93345 287.368 18.3982 287.368 31.307C287.368 44.2159 297.833 54.6806 310.741 54.6806Z" fill="white"/>
<path opacity="0.65" fill-rule="evenodd" clip-rule="evenodd" d="M233.775 44.3144C245.834 44.3144 255.61 34.5387 255.61 22.4797C255.61 10.4207 245.834 0.64502 233.775 0.64502C221.716 0.64502 211.94 10.4207 211.94 22.4797C211.94 34.5387 221.716 44.3144 233.775 44.3144ZM233.776 39.1159C242.963 39.1159 250.412 31.6677 250.412 22.4799C250.412 13.2922 242.963 5.84397 233.776 5.84397C224.588 5.84397 217.14 13.2922 217.14 22.4799C217.14 31.6677 224.588 39.1159 233.776 39.1159Z" fill="white"/>
<path opacity="0.25" fill-rule="evenodd" clip-rule="evenodd" d="M283.14 66.4108C275.278 63.4866 265.496 70.2786 261.293 81.5811C257.089 92.8837 260.055 104.417 267.917 107.341C275.78 110.265 285.561 103.473 289.765 92.1707C293.969 80.8681 291.003 69.3351 283.14 66.4108ZM281.328 71.2833C275.337 69.0553 267.885 74.2302 264.682 82.8416C261.479 91.4531 263.739 100.24 269.729 102.468C275.72 104.696 283.172 99.5213 286.375 90.9099C289.578 82.2984 287.318 73.5113 281.328 71.2833Z" fill="white"/>
<path fill-rule="evenodd" clip-rule="evenodd" d="M199.631 63.8442C201.945 63.8442 203.82 60.9559 203.82 57.393C203.82 53.8302 201.945 50.9419 199.631 50.9419C197.318 50.9419 195.442 53.8302 195.442 57.393C195.442 60.9559 197.318 63.8442 199.631 63.8442ZM199.631 62.3081C201.394 62.3081 202.823 60.1075 202.823 57.3929C202.823 54.6784 201.394 52.4778 199.631 52.4778C197.869 52.4778 196.44 54.6784 196.44 57.3929C196.44 60.1075 197.869 62.3081 199.631 62.3081Z" fill="white" fill-opacity="0.5"/>
<path fill-rule="evenodd" clip-rule="evenodd" d="M184.775 161.329C187.089 161.329 188.964 158.441 188.964 154.878C188.964 151.315 187.089 148.427 184.775 148.427C182.462 148.427 180.587 151.315 180.587 154.878C180.587 158.441 182.462 161.329 184.775 161.329ZM184.775 159.793C186.538 159.793 187.967 157.592 187.967 154.878C187.967 152.163 186.538 149.963 184.775 149.963C183.013 149.963 181.584 152.163 181.584 154.878C181.584 157.592 183.013 159.793 184.775 159.793Z" fill="white" fill-opacity="0.5"/>
<path opacity="0.25" fill-rule="evenodd" clip-rule="evenodd" d="M172.511 82.0146C176.045 82.0146 178.91 79.1497 178.91 75.6157C178.91 72.0817 176.045 69.2168 172.511 69.2168C168.977 69.2168 166.113 72.0817 166.113 75.6157C166.113 79.1497 168.977 82.0146 172.511 82.0146ZM172.511 80.491C175.204 80.491 177.387 78.3082 177.387 75.6156C177.387 72.923 175.204 70.7402 172.511 70.7402C169.819 70.7402 167.636 72.923 167.636 75.6156C167.636 78.3082 169.819 80.491 172.511 80.491Z" fill="white" fill-opacity="0.5"/>
<path fill-rule="evenodd" clip-rule="evenodd" d="M142.246 139.382C145.78 139.382 148.645 136.517 148.645 132.983C148.645 129.449 145.78 126.584 142.246 126.584C138.712 126.584 135.847 129.449 135.847 132.983C135.847 136.517 138.712 139.382 142.246 139.382ZM142.246 137.859C144.939 137.859 147.122 135.676 147.122 132.983C147.122 130.291 144.939 128.108 142.246 128.108C139.554 128.108 137.371 130.291 137.371 132.983C137.371 135.676 139.554 137.859 142.246 137.859Z" fill="white" fill-opacity="0.5"/>
<g opacity="0.65">
<line x1="124.659" y1="49.5185" x2="133.342" y2="55.3627" stroke="white" stroke-width="3" stroke-linecap="round"/>
<path d="M131.923 48.0986L126.302 56.4492" stroke="white" stroke-width="3" stroke-linecap="round"/>
</g>
<g opacity="0.1">
<line x1="209.551" y1="154.287" x2="218.233" y2="160.131" stroke="white" stroke-width="3" stroke-linecap="round"/>
<path d="M216.814 152.867L211.194 161.218" stroke="white" stroke-width="3" stroke-linecap="round"/>
</g>
<g opacity="0.65">
<line x1="216.151" y1="63.3144" x2="224.834" y2="69.1586" stroke="white" stroke-width="3" stroke-linecap="round"/>
<path d="M223.415 61.8945L217.794 70.2451" stroke="white" stroke-width="3" stroke-linecap="round"/>
</g>
<g opacity="0.25">
<line x1="358.6" y1="41.1894" x2="367.282" y2="47.0336" stroke="white" stroke-width="3" stroke-linecap="round"/>
<path d="M365.864 39.7695L360.243 48.1201" stroke="white" stroke-width="3" stroke-linecap="round"/>
</g>
<g opacity="0.65">
<line x1="1.5" y1="-1.5" x2="8.62213" y2="-1.5" transform="matrix(0.7589 0.651208 -0.457976 0.888965 176.16 118.454)" stroke="white" stroke-width="3" stroke-linecap="round"/>
<path d="M182.319 117.25L178.854 123.976" stroke="white" stroke-width="3" stroke-linecap="round"/>
</g>
<g opacity="0.65">
<line x1="187.52" y1="-9.28608" x2="194.247" y2="11.0568" stroke="white" stroke-width="3" stroke-linecap="round"/>
<path d="M201.056 -2.47949L183.721 3.2536" stroke="white" stroke-width="3" stroke-linecap="round"/>
</g>
<g opacity="0.3">
<line x1="124.074" y1="122.704" x2="130.801" y2="143.047" stroke="white" stroke-width="3" stroke-linecap="round"/>
<path d="M137.61 129.511L120.275 135.244" stroke="white" stroke-width="3" stroke-linecap="round"/>
</g>
<g opacity="0.65">
<line x1="137.929" y1="87.1279" x2="146.612" y2="92.9721" stroke="white" stroke-width="3" stroke-linecap="round"/>
<path d="M145.193 85.708L139.572 94.0586" stroke="white" stroke-width="3" stroke-linecap="round"/>
</g>
<g opacity="0.3">
<line x1="74.4833" y1="219.118" x2="83.1658" y2="224.962" stroke="white" stroke-width="3" stroke-linecap="round"/>
<path d="M81.7468 217.698L76.1262 226.049" stroke="white" stroke-width="3" stroke-linecap="round"/>
</g>
<g opacity="0.65">
<line x1="88.884" y1="66.4609" x2="97.5664" y2="72.3051" stroke="white" stroke-width="3" stroke-linecap="round"/>
<path d="M96.1475 65.041L90.5269 73.3916" stroke="white" stroke-width="3" stroke-linecap="round"/>
</g>
<g opacity="0.3">
<line x1="25.4379" y1="198.451" x2="34.1203" y2="204.295" stroke="white" stroke-width="3" stroke-linecap="round"/>
<path d="M32.7014 197.031L27.0808 205.382" stroke="white" stroke-width="3" stroke-linecap="round"/>
</g>
<g opacity="0.5">
<line x1="175.056" y1="49.519" x2="183.738" y2="55.3632" stroke="white" stroke-width="3" stroke-linecap="round"/>
<path d="M182.319 48.0991L176.699 56.4497" stroke="white" stroke-width="3" stroke-linecap="round"/>
</g>
<g opacity="0.3">
<line x1="111.61" y1="181.509" x2="120.292" y2="187.353" stroke="white" stroke-width="3" stroke-linecap="round"/>
<path d="M118.873 180.089L113.252 188.44" stroke="white" stroke-width="3" stroke-linecap="round"/>
</g>
<path opacity="0.35" d="M77.8107 111.925L79.6958 117.188M81.3848 113.614L76.0312 115.532" stroke="white" stroke-linecap="round"/>
<path opacity="0.3" d="M14.3647 243.915L16.2497 249.178M17.9387 245.604L12.5852 247.522" stroke="white" stroke-linecap="round"/>
<path opacity="0.35" d="M159.639 117.58L161.524 122.843M163.213 119.269L157.859 121.187" stroke="white" stroke-linecap="round"/>
<path opacity="0.3" d="M96.1923 249.571L98.0774 254.834M99.7664 251.26L94.4128 253.177" stroke="white" stroke-linecap="round"/>
<path opacity="0.5" d="M296.015 26.0357L292.062 29.9887M296.015 29.9888L291.994 25.9678" stroke="white" stroke-linecap="round"/>
<path opacity="0.3" d="M232.57 158.026L228.617 161.979M232.57 161.979L228.548 157.958" stroke="white" stroke-linecap="round"/>
<path opacity="0.5" d="M260.309 57.6937L254.96 59.3189M258.447 61.1808L256.794 55.7398" stroke="white" stroke-linecap="round"/>
<path opacity="0.3" d="M196.863 189.684L191.514 191.309M195.001 193.171L193.347 187.73" stroke="white" stroke-linecap="round"/>
<path opacity="0.5" d="M106.27 48.9991L102.317 52.9521M106.27 52.9522L102.249 48.9312" stroke="white" stroke-linecap="round"/>
<path opacity="0.3" d="M42.824 180.989L38.871 184.942M42.824 184.942L38.8028 180.921" stroke="white" stroke-linecap="round"/>
<path opacity="0.5" d="M119.637 152.935L115.684 156.888M119.637 156.888L115.616 152.867" stroke="white" stroke-linecap="round"/>
<path opacity="0.3" d="M56.1909 284.925L52.2379 288.878M56.1909 288.878L52.1698 284.857" stroke="white" stroke-linecap="round"/>
<path opacity="0.5" d="M171.91 38.0644L174.317 44.9358M176.16 39.5078L169.962 43.5611" stroke="white" stroke-linecap="round"/>
<path opacity="0.1" d="M360.952 20.4711L363.359 27.3425M365.203 21.9145L359.004 25.9678" stroke="white" stroke-linecap="round"/>
<path opacity="0.5" d="M241.189 95.4369L243.596 102.308M245.439 96.8804L239.241 100.934" stroke="white" stroke-linecap="round"/>
<path opacity="0.5" d="M93.7725 147.913L96.1795 154.784M98.0229 149.356L91.8244 153.41" stroke="white" stroke-linecap="round"/>
<defs>
<filter id="filter0_f" x="0.741211" y="55.1709" width="37.762" height="66.0794" filterUnits="userSpaceOnUse" color-interpolation-filters="sRGB">
<feFlood flood-opacity="0" result="BackgroundImageFix"/>
<feBlend mode="normal" in="SourceGraphic" in2="BackgroundImageFix" result="shape"/>
<feGaussianBlur stdDeviation="2" result="effect1_foregroundBlur"/>
</filter>
<filter id="filter1_d" x="14.2673" y="55.1709" width="24.2358" height="66.0794" filterUnits="userSpaceOnUse" color-interpolation-filters="sRGB">
<feFlood flood-opacity="0" result="BackgroundImageFix"/>
<feColorMatrix in="SourceAlpha" type="matrix" values="0 0 0 0 0 0 0 0 0 0 0 0 0 0 0 0 0 0 127 0"/>
<feOffset/>
<feGaussianBlur stdDeviation="2"/>
<feColorMatrix type="matrix" values="0 0 0 0 0 0 0 0 0 0 0 0 0 0 0 0 0 0 0.25 0"/>
<feBlend mode="normal" in2="BackgroundImageFix" result="effect1_dropShadow"/>
<feBlend mode="normal" in="SourceGraphic" in2="effect1_dropShadow" result="shape"/>
</filter>
<filter id="filter2_f" x="29.0334" y="25.6299" width="50.9319" height="69.4284" filterUnits="userSpaceOnUse" color-interpolation-filters="sRGB">
<feFlood flood-opacity="0" result="BackgroundImageFix"/>
<feBlend mode="normal" in="SourceGraphic" in2="BackgroundImageFix" result="shape"/>
<feGaussianBlur stdDeviation="2.5" result="effect1_foregroundBlur"/>
</filter>
<filter id="filter3_f" x="19.9177" y="22.7764" width="67.8028" height="82.0237" filterUnits="userSpaceOnUse" color-interpolation-filters="sRGB">
<feFlood flood-opacity="0" result="BackgroundImageFix"/>
<feBlend mode="normal" in="SourceGraphic" in2="BackgroundImageFix" result="shape"/>
<feGaussianBlur stdDeviation="2.5" result="effect1_foregroundBlur"/>
</filter>
<linearGradient id="paint0_linear" x1="66.057" y1="83.4684" x2="47.5778" y2="49.9153" gradientUnits="userSpaceOnUse">
<stop stop-color="#FF6B5C"/>
<stop offset="1" stop-color="#FEBA61"/>
</linearGradient>
<linearGradient id="paint1_linear" x1="70.6316" y1="79.1397" x2="42.2585" y2="76.1625" gradientUnits="userSpaceOnUse">
<stop stop-color="#FF6B5C"/>
<stop offset="1" stop-color="#FEBA61"/>
</linearGradient>
</defs>
</svg>
