<svg width="110" height="86" viewBox="0 0 110 86" fill="none" xmlns="http://www.w3.org/2000/svg">
<path opacity="0.75" fill-rule="evenodd" clip-rule="evenodd" d="M45.0038 65.1038C52.791 65.1038 59.1038 58.791 59.1038 51.0038C59.1038 43.2166 52.791 36.9038 45.0038 36.9038C37.2166 36.9038 30.9038 43.2166 30.9038 51.0038C30.9038 58.791 37.2166 65.1038 45.0038 65.1038ZM45.0035 61.7461C50.9366 61.7461 55.7463 56.9364 55.7463 51.0033C55.7463 45.0702 50.9366 40.2604 45.0035 40.2604C39.0703 40.2604 34.2606 45.0702 34.2606 51.0033C34.2606 56.9364 39.0703 61.7461 45.0035 61.7461Z" fill="white"/>
<path opacity="0.5" fill-rule="evenodd" clip-rule="evenodd" d="M82.8037 76.4598C89.0756 76.4598 94.16 71.3754 94.16 65.1035C94.16 58.8315 89.0756 53.7471 82.8037 53.7471C76.5317 53.7471 71.4473 58.8315 71.4473 65.1035C71.4473 71.3754 76.5317 76.4598 82.8037 76.4598ZM82.804 73.7562C87.5826 73.7562 91.4565 69.8823 91.4565 65.1037C91.4565 60.325 87.5826 56.4512 82.804 56.4512C78.0253 56.4512 74.1515 60.325 74.1515 65.1037C74.1515 69.8823 78.0253 73.7562 82.804 73.7562Z" fill="white"/>
<path opacity="0.75" fill-rule="evenodd" clip-rule="evenodd" d="M90.3208 38.4381C100.744 38.4381 109.194 29.9881 109.194 19.5645C109.194 9.1409 100.744 0.690918 90.3208 0.690918C79.8972 0.690918 71.4473 9.1409 71.4473 19.5645C71.4473 29.9881 79.8972 38.4381 90.3208 38.4381ZM90.3214 33.9447C98.2632 33.9447 104.701 27.5066 104.701 19.5648C104.701 11.623 98.2632 5.18493 90.3214 5.18493C82.3796 5.18493 75.9415 11.623 75.9415 19.5648C75.9415 27.5066 82.3796 33.9447 90.3214 33.9447Z" fill="white"/>
<path fill-rule="evenodd" clip-rule="evenodd" d="M7.20359 76.4599C10.7376 76.4599 13.6025 73.595 13.6025 70.061C13.6025 66.527 10.7376 63.6621 7.20359 63.6621C3.66957 63.6621 0.804688 66.527 0.804688 70.061C0.804688 73.595 3.66957 76.4599 7.20359 76.4599ZM7.20347 74.9363C9.89606 74.9363 12.0788 72.7535 12.0788 70.0609C12.0788 67.3683 9.89606 65.1855 7.20347 65.1855C4.51088 65.1855 2.32811 67.3683 2.32811 70.0609C2.32811 72.7535 4.51088 74.9363 7.20347 74.9363Z" fill="white" fill-opacity="0.5"/>
<g opacity="0.65">
<line x1="7.4594" y1="43.9956" x2="16.1418" y2="49.8397" stroke="white" stroke-width="3" stroke-linecap="round"/>
<path d="M14.7231 42.5757L9.10256 50.9262" stroke="white" stroke-width="3" stroke-linecap="round"/>
</g>
<path opacity="0.35" d="M29.3075 79.9851L31.1926 85.2481M32.8816 81.6741L27.528 83.5917" stroke="white" stroke-linecap="round"/>
<path opacity="0.5" d="M63.791 26.0982L59.838 30.0512M63.791 30.0513L59.7699 26.0303" stroke="white" stroke-linecap="round"/>
</svg>
